<svg xmlns="http://www.w3.org/2000/svg" viewBox="0 0 80 70">
  <g>
    <g>
      <path d="M9.05719,69.92084h4.09363l-7.26459-7.265-.05933.05866-.0581.05938a1.28083,1.28083,0,0,1-.90619,2.18641A1.27024,1.27024,0,0,1,3.957,64.585l-2.353-2.353H.35974v2.89416H4.26208Z" fill="#e65300"/>
      <polygon points="17.275 64.963 17.248 65.042 17.347 65.077 17.374 64.997 17.387 64.96 17.38 65 17.363 65.081 17.617 65.129 17.633 65.049 17.628 65.132 17.659 65.133 17.758 65.137 17.763 65.054 17.766 64.971 17.667 64.967 17.662 65.05 17.667 64.967 17.641 64.966 17.4 64.92 17.402 64.92 17.301 64.885 17.275 64.963" fill="#27a538"/>
      <g>
        <path d="M18.668,49.897a1.28265,1.28265,0,0,1,0,1.81117l.04531.04533-.04531-.04533a1.27023,1.27023,0,0,1-.90559.37462v.16656a1.43263,1.43263,0,0,0,1.023-.42376V51.825l.425-.42185V47.30919L17.64493,48.874Z" fill="#27a538"/>
        <path d="M16.85672,64.59606l-.05872.05873-.00127-.00064.05807-.06a1.28187,1.28187,0,0,1,.00192-1.80923l1.023-1.023L16.31618,60.1971v4.09266l.4212.42183.00192.00192.05743-.05936.00127.00064-.0587.05872a1.42,1.42,0,0,0,.47926.3178l.03128-.07722.03063-.07721a1.25066,1.25066,0,0,1-.42375-.28082Z" fill="#27a538"/>
      </g>
      <rect x="29.20196" y="20.35837" width="2.89416" height="2.89416" fill="#27a538"/>
      <g>
        <path d="M43.40326,63.75439a1.28063,1.28063,0,0,1-.22846-1.39379l.05231-.11737H33.90839l-2.353,2.353a1.28026,1.28026,0,0,1-1.8111,0,1.28325,1.28325,0,0,1-.00067-1.80926l.00067-.0019-.11743-.1181-7.25391,7.25391h4.09369l4.78376-4.78351H42.44855l.02038-.05164a2.92762,2.92762,0,0,1,.92347-1.21l.07208-.05426Z" fill="#d7282f"/>
        <rect x="18.78478" y="6.28373" width="0.00136" height="0.00132" fill="#d7282f"/>
        <path d="M19.20953,7.30778a1.43314,1.43314,0,0,1-.42475,1.0214L17.76206,9.35324l-.16141-.16141.14025-.12966.93012-.85209a1.28085,1.28085,0,0,0,0-1.8073l-.00265-.00131L18.7835,6.285h.00128l-.05555.0569.05691-.0569A1.43055,1.43055,0,0,1,19.20953,7.30778Z" fill="#d7282f"/>
        <polygon points="19.21 23.783 19.21 24.002 18.703 24.508 18.802 24.189 18.802 24.188 19.21 23.783" fill="#d7282f"/>
        <path d="M24.36969,68.15912v.36346a1.447,1.447,0,0,0,1.09106,1.39826h.71253a1.44664,1.44664,0,0,0,1.09051-1.39826V65.26624l.00068-.00062V43.11115l-.54181.5437a1.2819,1.2819,0,0,1-1.81122,0,1.32967,1.32967,0,0,1,.00067-1.81305l1.82519-1.8252-.08038-.05676a1.44707,1.44707,0,0,0-2.2879,1.17682l.00061,27.02246Z" fill="#e65300"/>
      </g>
      <polygon points="8.69 69.542 8.744 69.488 8.742 69.487 8.69 69.542" fill="#e65300"/>
      <g>
        <path d="M60.79338,53.4363h4.05884a.6492.6492,0,0,0,.46075-.18955l1.61014-1.6114a.65131.65131,0,0,0-.46139-1.11171H65.13237V48.75907a.65312.65312,0,0,0-.65286-.65222H62.71494V46.7756a.649.649,0,0,0-.40141-.60244.65727.65727,0,0,0-.70966.141l-1.612,1.6114a.64826.64826,0,0,0-.19082.46075V52.368l.74412.7435Z" fill="#e65300"/>
        <path d="M57.98985,54.17878H54.0095a.65255.65255,0,0,0-.462.19082l-1.61013,1.61078a.65182.65182,0,0,0,.46013,1.11234H53.73v1.76585a.65148.65148,0,0,0,.65093.65031h1.76457v1.33189a.65145.65145,0,0,0,.418.60562l.21761.04277.01659.00254a.64756.64756,0,0,0,.4595-.19082l1.6127-1.6114a.65246.65246,0,0,0,.19079-.46013V55.16988l-.31909-.23932Z" fill="#e65300"/>
        <path d="M66.92293,55.98017,65.31279,54.3694a.64975.64975,0,0,0-.46012-.19082H60.92145l-.01275.06892a1.26288,1.26288,0,0,1-.22656.52906l-.1238.14934-.15507.13017a1.24748,1.24748,0,0,1-.53289.22913l-.0683.01212v3.93312a.64861.64861,0,0,0,.18955.45949l1.6114,1.61014a.65241.65241,0,0,0,.46078.19208h.0083l.24122-.05041a.6491.6491,0,0,0,.40143-.60181V59.51h1.76457a.65351.65351,0,0,0,.65285-.65222V57.09188h1.33063a.651.651,0,0,0,.46012-1.11171Z" fill="#e65300"/>
        <path d="M50.19923,40.11366a1.44675,1.44675,0,0,0-2.046,0l-1.1883,1.187H38.70431a1.45669,1.45669,0,0,0-1.02237.42444l-10.58425,10.583v.00071l-2.303,2.30419a1.44677,1.44677,0,1,0,2.046,2.04605l.42309-.4238v-.00057l12.041-12.03975h7.78582v-.64138a1.28183,1.28183,0,0,1,1.28017-1.28082H50.0882l.111-.11235a1.4475,1.4475,0,0,0,0-2.04669Z" fill="#007297"/>
        <path d="M49.98155,18.748H43.53847a1.44871,1.44871,0,0,0-1.44741,1.44737v4.833A4.42358,4.42358,0,0,0,45.313,29.46941v.00193l.05869.0179.00511.00129.10179.02926V29.5167a4.66342,4.66342,0,0,0,2.56165,0v.00309l.10723-.03062.00085-.00026.05883-.01757v-.0022A4.42479,4.42479,0,0,0,51.429,25.02827V20.19532A1.44871,1.44871,0,0,0,49.98155,18.748Z" fill="#4a8b2c"/>
        <path d="M48.37086,42.10641a1.44925,1.44925,0,0,0-1.44677,1.44677v.642h.64138a1.4367,1.4367,0,0,0,.859-.28462l.164-.13849,1.66567-1.66566Z" fill="#86799c"/>
        <path d="M55.838,35.281a1.43931,1.43931,0,0,0-1.023-.42374h-.59925l-.425.42374a1.451,1.451,0,0,0,.00127,2.04729l.42376.42311H54.815a1.44721,1.44721,0,0,0,1.023-2.4704Z" fill="#ce738e"/>
        <path d="M60.96828,53.4363h.034l-.097-.12683-.02188-.03894h-.00794l-.20507-.26817-.86858-.86988v.00045l-2.35438-2.35265a1.446,1.446,0,0,0-1.0217-.425H44.98506v-.96879a1.44709,1.44709,0,0,0-2.89417,0v1.81632l-12.46434,12.465h0a1.45059,1.45059,0,0,0,.00017,2.04584,1.44817,1.44817,0,0,0,2.046,0l2.4704-2.46969h-.00006l9.99508-9.99449H55.82646l1.92818,1.92937H57.754l.87879.87686.26078.19723v.00685l.038.02189.12816.097v-.0345a1.4443,1.4443,0,0,0,.58689.12753,1.41666,1.41666,0,0,0,.15519-.00956V55.466l.08466-.01557.01285-.0018.06829-.01215v-.00413a1.397,1.397,0,0,0,.53877-.24589l.16783-.14361.13851-.16266a1.4439,1.4439,0,0,0,.24332-.535h.00479l.01075-.06454.00086-.00361.01788-.09826H61.085A1.46125,1.46125,0,0,0,60.96828,53.4363Z" fill="#f44c7f"/>
        <path d="M27.26436,15.3613a1.44335,1.44335,0,0,1-.42337,1.024L19.42384,23.788l-.21431.21433v-.21962l-.40753.40487.24213-.782-.02644-.24343-.07277-.23948-.1191-.21965-.0741-.10052-.08466-.09132-.90765.01193v.00264l-1.02273.12568-.10582.16538-.09529.23022-.04628.24608-.008.12306a1.27507,1.27507,0,0,0,.35327.8838l-.51866-.51863v.23419l-.20111-.20111L8.6845,16.38534a1.44112,1.44112,0,0,1-.42339-1.024,1.4596,1.4596,0,0,1,.42339-1.02274L10.296,12.72707a1.45488,1.45488,0,0,1,1.02273-.42337h.17863l-.01325-.15747V8.918a1.43682,1.43682,0,0,1,.42209-1.02406l1.6115-1.61016a1.44367,1.44367,0,0,1,2.04545,0l.58744.58744.58876-.58744a1.44374,1.44374,0,0,0,0,2.04545l.86132.86265.16141.16141,1.02272-1.02406A1.4437,1.4437,0,0,0,18.78614,6.285h.0013l.58614.58613.58744-.58744a1.44529,1.44529,0,0,1,2.04679,0l1.61148,1.61016A1.43909,1.43909,0,0,1,24.04138,8.918v3.22168l-.01456.16407h.17862a1.44121,1.44121,0,0,1,1.024.42337l1.6115,1.61149A1.462,1.462,0,0,1,27.26436,15.3613Z" fill="#d7282f"/>
        <polygon points="16.856 24.322 16.739 24.439 16.316 24.016 16.316 23.781 16.835 24.3 16.856 24.322" fill="#d7282f"/>
        <path d="M17.75941,9.07936v.27123l-.15876-.15876-.86132-.86265a1.44374,1.44374,0,0,1,0-2.04545l.05957.05821.0582.05953a1.27923,1.27923,0,0,0,0,1.81127l.8838.84943Z" fill="#d7282f"/>
        <path d="M19.20953,7.30778a1.43314,1.43314,0,0,1-.42475,1.0214L17.76206,9.35324l-.16141-.16141-.86132-.86265a1.44635,1.44635,0,0,1,2.04545-2.04545V6.285h.00136A1.43055,1.43055,0,0,1,19.20953,7.30778Z" fill="#f44c7f"/>
        <path d="M9.456,69.92084h.6084a1.44658,1.44658,0,0,0,1.09052-1.39826v-.598l-.00092-.00091V41.13611a1.44663,1.44663,0,0,0-2.28723-1.17682L8.787,40.0174l1.8258,1.82458a1.27265,1.27265,0,0,1,.37525.89789v.01593a1.28065,1.28065,0,0,1-2.18573.89917l-.5412-.54364V65.03082l-.00037-.00036v3.49212a1.43813,1.43813,0,0,0,.42371,1.0243A1.4179,1.4179,0,0,0,9.456,69.92084Z" fill="#d7282f"/>
        <path d="M10.73053,41.72455l-1.806-1.80548-.00043.0003L1.06458,32.05865a1.41576,1.41576,0,0,0-.70484-.361v3.74866l7.99359,7.993.33185.3324a1.44695,1.44695,0,0,0,2.04535-2.04724Z" fill="#e65300"/>
        <path d="M53.9081,37.20982a1.2838,1.2838,0,0,1,0-1.81115l.54246-.54118H50.58062l-.5865-.58646a1.43079,1.43079,0,0,0,.62861-1.189A1.44761,1.44761,0,0,0,49.176,31.63529h-.96878V29.2977L48.1,29.32955a4.58159,4.58159,0,0,1-2.68034,0l-.10722-.03185v2.33759H38.70616l-.00166-.00007-.00165.00007H35.48314a1.45156,1.45156,0,0,0-1.02237.42379l-7.86043,7.8598-.0005-.00032-1.8054,1.806a1.44742,1.44742,0,1,0,2.04663,2.04728l.28553-.28723,8.95453-8.95514H38.1048l1.99241,1.99235a1.4465,1.4465,0,0,0,2.09642-1.99235H46.1612l2.79588,2.79776a1.44172,1.44172,0,0,0,1.02428.42372h4.47047Z" fill="#d7282f"/>
        <path d="M10.73035,54.61249,8.26123,52.14215v.00055l-7.90149-7.902v4.094L8.427,56.40112v-.00061l.258.25806a1.44654,1.44654,0,0,0,2.04535-2.04608Z" fill="#f44c7f"/>
        <path d="M5.89752,62.66772l-.00464-.00427.00025-.00024-.00128-.00128L.35974,57.129v4.09344L1.38129,62.244H1.3811l2.47046,2.47034a1.447,1.447,0,0,0,2.046-2.04664Z" fill="#007297"/>
        <path d="M16.316,64.28973v5.63111h2.89355V51.40173l2.79956-2.797a1.44812,1.44812,0,0,0-1.02533-2.4715A1.43621,1.43621,0,0,0,19.961,46.558l-.75147.75147V38.51636h.00129v-.00269l12.462-12.46332a1.43382,1.43382,0,0,0,.42468-1.0227V23.25342h.16407a1.44745,1.44745,0,0,0,0-2.8949h-.16407v-.16406a1.44742,1.44742,0,1,0-2.89483,0v.16406h-.16413a1.44745,1.44745,0,0,0,0,2.8949h.16413v1.17486l-9.99317,9.99317V23.78265l-.40753.40485v.00128l-.13495.13367a1.28078,1.28078,0,0,1-1.80993,0h-.00135l-.02118-.02252-.51861-.51862V60.19617l-.75153-.75147a1.44727,1.44727,0,1,0-2.04675,2.04676Z" fill="#4a8b2c"/>
        <path d="M47.43476,64.14393l-.03382-.03831-.04978.01344a1.27982,1.27982,0,0,1-.3395.04657H44.74538l-.0114-.02073-.0032.00956h-.38163a1.284,1.284,0,0,1-.93941-.41165l-.05168-.0555-.06063.04658a3.084,3.084,0,0,0-.95764,1.23715h-.00346l-.0217.05169c-.005.01246-.00837.02532-.01325.03785l-.027.06519h.00416a3.057,3.057,0,1,0,5.15618-.98184Z" fill="#007297"/>
        <path d="M50.15666,60.52474a1.44407,1.44407,0,0,0-1.337-.89347H46.14952a1.455,1.455,0,0,0-1.02238.42374l-1.80668,1.80611a1.46006,1.46006,0,0,0-.26667.37062h-.00237l-.01873.04174-.00961.019-.05234.11744h.00876a1.45025,1.45025,0,0,0,.033,1.01712,1.4673,1.4673,0,0,0,.21585.35873l-.00333.00252.06172.0668.00017.00019.05169.0555.00294-.0022a1.44931,1.44931,0,0,0,1.00794.41191h.48167l.00361.00659.00255-.0064h2.18194a1.43282,1.43282,0,0,0,.31577-.03882l.00983.01137.05043-.01473c.04038-.01111.07913-.02636.11826-.04077l.01625-.00445-.0008-.00091a1.44082,1.44082,0,0,0,.507-.324l1.806-1.80668A1.44269,1.44269,0,0,0,50.15666,60.52474Z" fill="#4a8b2c"/>
      </g>
    </g>
    <g>
      <rect x="56.16501" y="33.49015" width="5.62831" height="5.62832" transform="translate(-8.39645 52.33774) rotate(-44.9999)" fill="#d7282f"/>
      <path d="M65.672,37.51507l-1.25553-1.2555,1.21088-1.21086a1.51208,1.51208,0,1,0-2.1384-2.13841l-1.21087,1.21084L60.7993,32.64245l1.21089-1.21092a1.51193,1.51193,0,1,0-2.1382-2.13817l-2.28006,2.28h0l0,.00007-3.66176,3.66175A1.512,1.512,0,0,0,53.93,37.37353l5.94178,5.94179a1.51209,1.51209,0,0,0,2.1384-2.13843L60.75466,39.9214l1.52341-1.5234,1.2555,1.2555A1.51209,1.51209,0,0,0,65.672,37.51507Zm-7.05572.26791-1.47875-1.47876,1.52338-1.52341,1.47874,1.47876Z" fill="#f44c7f"/>
    </g>
    <g>
      <path d="M48.38962,46.28287a3.30273,3.30273,0,0,1-.347-.01743,3.11855,3.11855,0,0,1-.34414-.05016c-.1123-.02227-.22463-.05209-.33675-.08463-.1098-.03486-.21924-.07222-.3244-.11735-.10728-.04474-.21205-.09469-.3143-.147-.09954-.055-.19947-.11484-.29668-.177-.0949-.06488-.18977-.135-.27944-.20722a3.29591,3.29591,0,0,1-.25718-.23451,3.3414,3.3414,0,0,1-.23452-.257,3.97114,3.97114,0,0,1-.384-.57613c-.05249-.10244-.10226-.20721-.14738-.3143-.04242-.105-.08231-.21476-.11735-.32438-.03216-.11-.06237-.22463-.08445-.33695a3.15281,3.15281,0,0,1-.05015-.342,3.28654,3.28654,0,0,1-.02014-.349,3.25284,3.25284,0,0,1,.02014-.34685,3.28624,3.28624,0,0,1,.05015-.34412c.02208-.11233.05229-.22446.08445-.33446.035-.1096.07493-.2196.11735-.3267.04512-.10748.09489-.212.14738-.312.055-.10224.11484-.202.17718-.29939.06488-.09469.13478-.18939.20682-.27924a3.22641,3.22641,0,0,1,.23452-.257,3.263,3.263,0,0,1,.25718-.23452c.08967-.07243.18454-.14214.27944-.20469a3.35877,3.35877,0,0,1,.29668-.177q.15337-.08252.3143-.14971c.10516-.0424.2146-.08229.3244-.11482a3.329,3.329,0,0,1,.33675-.08463c.11254-.02267.22951-.0401.34414-.05269a3.61314,3.61314,0,0,1,.69387,0q.17223.01889.34412.05269a3.11181,3.11181,0,0,1,.33425.08463c.10981.03253.21942.07242.3269.11482a3.25456,3.25456,0,0,1,.312.14971,3.09225,3.09225,0,0,1,.29922.177c.0949.06255.18977.13226.27925.20469.09.07494.17448.15183.25716.23452.08231.0823.15938.16692.23452.257.07243.08985.14215.18455.20451.27924a3.11478,3.11478,0,0,1,.177.29939,3.24011,3.24011,0,0,1,.14989.312c.0424.1071.0823.2171.11484.3267a3.20566,3.20566,0,0,1,.08481.33446,2.8109,2.8109,0,0,1,.0523.34412,3.25422,3.25422,0,0,1,.01762.34685,3.28872,3.28872,0,0,1-.01762.349,2.77709,2.77709,0,0,1-.0523.342,3.24967,3.24967,0,0,1-.08481.33695c-.03254.10962-.07244.21942-.11484.32438-.04513.10709-.0947.21186-.14989.3143a2.79647,2.79647,0,0,1-.177.29687,3.20573,3.20573,0,0,1-.20451.27926,3.33936,3.33936,0,0,1-.23452.257c-.08268.0823-.16963.16209-.25716.23451-.08948.07224-.18435.14234-.27925.20722-.09742.06216-.19717.122-.29922.177-.09992.05229-.20469.10224-.312.147-.10748.04513-.21709.08249-.3269.11735-.10941.03254-.22193.06236-.33425.08463a3.179,3.179,0,0,1-.34412.05016,3.3017,3.3017,0,0,1-.34684.01743Z" fill="#d7282f"/>
      <path d="M49.49327,42.37116l.13168-.13168a.527.527,0,0,0,.09838-.629.51639.51639,0,0,0-.81354-.11193l-.14448.14466a.53344.53344,0,0,1-.7539,0l-.13208-.13188a.5255.5255,0,0,0-.6284-.09818.51612.51612,0,0,0-.11215.81337l.14469.14465a.53288.53288,0,0,1,0,.75372l-.13211.13187a.52714.52714,0,0,0-.09838.62881.51668.51668,0,0,0,.81377.11212l.14466-.14486a.53346.53346,0,0,1,.7539,0l.13168.13208a.52641.52641,0,0,0,.62862.09818.51594.51594,0,0,0,.11212-.81316l-.14446-.145a.53288.53288,0,0,1,0-.75372Z" fill="#007297"/>
    </g>
    <path d="M19.61833,22.961a1.85561,1.85561,0,1,1-2.02559-1.84835q.08136-.008.16667-.00792h.00265A1.856,1.856,0,0,1,19.61833,22.961Z" fill="#f44c7f"/>
    <g>
      <path d="M24.91459,15.39437a1.48239,1.48239,0,0,1-.43529,1.05319,1.49967,1.49967,0,0,1-1.96077.12569,7.921,7.921,0,0,0-4.75647-1.58106h-.00265c-.05555,0-.11112,0-.16667.00129A7.92414,7.92414,0,0,0,13.007,16.57325a1.53231,1.53231,0,0,1-.91556.30561,1.47313,1.47313,0,0,1-1.04521-.4313,1.4881,1.4881,0,0,1,.15478-2.24,10.88238,10.88238,0,0,1,6.39177-2.191c.05555-.0013.11112-.0013.16667-.0013h.00265a10.87466,10.87466,0,0,1,6.56112,2.19232A1.47683,1.47683,0,0,1,24.91459,15.39437Z" fill="#f44c7f"/>
      <path d="M21.21,19.71687l-.00133.00128a1.47544,1.47544,0,0,1-1.75833.25671,3.43624,3.43624,0,0,0-1.68827-.4406h-.00265q-.08332,0-.16667.004a3.44249,3.44249,0,0,0-1.51889.43662,1.47353,1.47353,0,0,1-1.757-.25671l-.00132-.00128a1.48247,1.48247,0,0,1,.30428-2.33789,6.39618,6.39618,0,0,1,2.973-.819c.05555-.00133.11112-.00265.16667-.00265h.00265a6.40072,6.40072,0,0,1,3.14365.82162A1.48324,1.48324,0,0,1,21.21,19.71687Z" fill="#f44c7f"/>
    </g>
    <path d="M22.0082,59.44541a1.44914,1.44914,0,0,0-2.04666,0l-.89249.8925L17.76214,61.6443h0l-.05313.05318-.06435.06427,0,.00007-.90553.90612a1.44595,1.44595,0,0,0,.48055,2.36383l.14423.04974.26419.05046.13395.0051v.00071a1.4323,1.4323,0,0,0,.99824-.40124l.02484-.02255.00027-.00033.00032-.00032.25812-.2577v.00019l.11425-.11429.052-.05194v0l2.79811-2.7981A1.45066,1.45066,0,0,0,22.0082,59.44541Z" fill="#007297"/>
    <path d="M18.78512,49.77886l-.96762-.96647-1.5015-1.5033v.001l-.75224-.75223a1.447,1.447,0,1,0-2.046,2.04669l2.96434,2.96437v-.00039l.257.257a1.447,1.447,0,1,0,2.046-2.04663Z" fill="#007297"/>
    <path d="M18.78512,36.89159l-.95935-.95942L16.316,34.42181v.00064L6.32219,24.428V23.25252h.00033v-.00007h.16241a1.44708,1.44708,0,1,0,0-2.89415H6.32219v-.16273a1.44708,1.44708,0,1,0-2.89415,0v.16273H3.264a1.44708,1.44708,0,0,0,0,2.89415h.164v1.77478a1.43712,1.43712,0,0,0,.42313,1.02364L16.48141,38.68115v-.00064l.25771.2577a1.447,1.447,0,1,0,2.046-2.04662Z" fill="#007297"/>
  </g>
</svg>
