<svg xmlns="http://www.w3.org/2000/svg" xmlns:xlink="http://www.w3.org/1999/xlink" viewBox="0 0 500 40"><defs><clipPath id="a"><rect x="0.21" y="-5.16" width="166.12" height="50" fill="none"/></clipPath><clipPath id="b"><rect x="166.33" y="-5.16" width="43.15" height="50" fill="none"/></clipPath><clipPath id="c"><rect x="333.87" y="-5.16" width="166.12" height="50" fill="none"/></clipPath><clipPath id="d"><rect x="290.72" y="-5.16" width="43.15" height="50" fill="none"/></clipPath></defs><g clip-path="url(#a)"><rect x="60.63" y="12.22" width="4.11" height="4.74" fill="#d5002f"/><path d="M67.81,17a1.19,1.19,0,0,1-1.09,1.27H60.63A1.2,1.2,0,0,1,59.53,17V9.88a1.18,1.18,0,0,1,1.15-1.2,1.23,1.23,0,0,1,1,1.2v5.76h5A1.21,1.21,0,0,1,67.81,17Z" fill="#1b7396"/><path d="M67.81,12.6a1.19,1.19,0,0,1-1.09,1.27H60.63a1.22,1.22,0,0,1-1-1.33,1.21,1.21,0,0,1,1-1.2h6.09a1.19,1.19,0,0,1,1.09,1.26Z" fill="#1b7396"/><path d="M65.45,9.88V17c0,.7-.54,1.27-1.15,1.2a1.21,1.21,0,0,1-1-1.2V9.88a1.18,1.18,0,0,1,1.15-1.2A1.21,1.21,0,0,1,65.45,9.88Z" fill="#1b7396"/><path d="M51.69,23.47h8.23a1.28,1.28,0,0,0,0-2.52H58.71l2.36-2.72.38-.44a1.45,1.45,0,0,0,0-1.84,1,1,0,0,0-1.59,0l-.33.44L55.59,21H52l-.87-1-1.54-1.77-4.88-5.62-1.86-2.15A1,1,0,0,0,42.1,10a1,1,0,0,0-.77.38,1.35,1.35,0,0,0,0,1.77h0l.33.38,7.07,8.28,2,2.34A1,1,0,0,0,51.69,23.47Z" fill="#e65d31"/><path d="M50.93,20.06l-1.54-1.83,2.85-3.29a2.76,2.76,0,0,0,.55,1.14h0a1.67,1.67,0,0,0,1,.63Z" fill="#006d50"/><path d="M83.11,29.92l.71.82a1,1,0,0,0,.66.32.88.88,0,0,0,.66-.32l.71-.82.44.51a.72.72,0,0,0,.55.31c.55.07,1-.38,1-1V27.58a1.12,1.12,0,0,0-.28-.76l-2.52-2.9h0a.74.74,0,0,1-.33.12h0a.57.57,0,0,1-.33.07h-.65l-2.36,2.71a1.12,1.12,0,0,0-.28.76v2.09a.9.9,0,0,0,.22.63.87.87,0,0,0,1.32.13l0-.07Z" fill="#b94676"/><path d="M90.89,26.7A1.21,1.21,0,0,0,91,25.18l0-.06-.44-.51.71-.82a1.13,1.13,0,0,0,0-1.52h0l-.71-.82L91,21a1,1,0,0,0,.27-.64,1.28,1.28,0,0,0-.27-.88,1,1,0,0,0-.66-.32H88.48a.88.88,0,0,0-.66.32L85.3,22.34h0c.06.06.11.19.17.25h0v.06a1.3,1.3,0,0,1-.17,1.08l2.52,2.91a.9.9,0,0,0,.66.31h1.87A2.18,2.18,0,0,0,90.89,26.7Z" fill="#b94676"/><path d="M85.08,22l2.52-2.91a1.22,1.22,0,0,0,.28-.76V16.27a1.1,1.1,0,0,0-.28-.76.79.79,0,0,0-.76-.32.73.73,0,0,0-.55.32l-.44.51-.71-.83a.83.83,0,0,0-1.32,0l-.71.83-.44-.51a.88.88,0,0,0-1.37,0l-.06.06a1.46,1.46,0,0,0-.21.64v2.14a1.1,1.1,0,0,0,.27.76l2.41,2.78h.55a1.51,1.51,0,0,1,.55.07h0s.11.06.16.12S85,22,85.08,22Z" fill="#b94676"/><path d="M127.9,16.58V11.27a1.18,1.18,0,0,1,1-1.32,1.13,1.13,0,0,1,1.15,1.2v2.91Z" fill="#006d50"/><path d="M102.74,30.11a1.18,1.18,0,0,1-1,1.33,1.14,1.14,0,0,1-1.15-1.2V24.61l2.2,2.53Z" fill="#006d50"/><path d="M43.91,29.8a1.11,1.11,0,1,1-2.19,0h0V23.35l2.19,2.53Z" fill="#006d50"/><path d="M99.94,26.82a1.18,1.18,0,0,1-1,1.33A1.13,1.13,0,0,1,97.75,27V21.33l2.19,2.52Z" fill="#006d50"/><path d="M84.48,24.3h0a.39.39,0,0,0,.27-.07A1.68,1.68,0,0,1,84.48,24.3Z" fill="#b94676"/><path d="M85.14,24l-.33.19.33-.19Z" fill="#b94676"/><path d="M97.14,23.6a1.17,1.17,0,0,1-1,1.33A1.18,1.18,0,0,1,95,23.73V18.1l2.19,2.53Z" fill="#006d50"/><path d="M85.41,23.79h0a1.18,1.18,0,0,0,.22-.76,1,1,0,0,0,0-.38,1,1,0,0,1,0,.38A1.94,1.94,0,0,1,85.41,23.79Z" fill="#b94676"/><path d="M18.52,24l1.59-1.83,2.64,3h-.5a1,1,0,0,0-.77.38h0a1.28,1.28,0,0,0-.32.89V27Z" fill="#e65d31"/><path d="M133.66,30.24a1.2,1.2,0,0,0-1.1-1.27h-3.34l4.71-5.43H136l-.06-.25v-.13h0a4.52,4.52,0,0,1-.05-.82v-.13c0-.32.05-.57.05-.88h0V21.2c0-.06.06-.19.06-.25h-2.53a1.26,1.26,0,0,0-.44.12c-.05.07-.1.07-.16.13s-.11.13-.16.13L126.09,29h-6.58l-1.86,2.15a1,1,0,0,1-.77.38v.07h15.74a1.22,1.22,0,0,0,1-1.33Z" fill="#d5002f"/><path d="M147.25,27.58a1.1,1.1,0,0,0,.28-.76V17.6a1.22,1.22,0,0,0-.28-.76.84.84,0,0,0-.65-.32h-6a4.47,4.47,0,0,0-2.8.89,5.57,5.57,0,0,0-1.86,3c-.06.19-.06.32-.11.51s-.06.19-.06.25v.13h0a5.14,5.14,0,0,0-.05.88v.13c0,.31.05.57.05.82h0v.13c0,.06.06.18.06.25.11.5.27,1,.43,1.51a4.48,4.48,0,0,0,1.49,2,4.11,4.11,0,0,0,2.79.89h6A.87.87,0,0,0,147.25,27.58Z" fill="#940144"/><path d="M145.17,25.37h-4.38a2.56,2.56,0,0,1-1.59-.5,2.79,2.79,0,0,1-1-1.65,3.24,3.24,0,0,1-.11-.76v-.25a3.51,3.51,0,0,1,.44-1.71,2.34,2.34,0,0,1,.77-.94,2.55,2.55,0,0,1,1.53-.45h4.39v6.26Z" fill="#d5002f"/><path d="M85.52,22.59c0-.06,0-.13,0-.19A.27.27,0,0,1,85.52,22.59Z" fill="#b94676"/><path d="M7.17,22.78V17.72a1.18,1.18,0,0,1,1.16-1.2,1.22,1.22,0,0,1,1,1.2v2.53Z" fill="#006d50"/><path d="M85.47,22.4c0-.06-.06-.06-.06-.13A.26.26,0,0,1,85.47,22.4Z" fill="#b94676"/><path d="M122.25,23V17.72a1.18,1.18,0,0,1,1.16-1.2,1.22,1.22,0,0,1,1,1.2V20.5Z" fill="#006d50"/><path d="M76.26,30.3A1.2,1.2,0,0,0,75.16,29H71.92L76,24.3h8.44a.57.57,0,0,0,.33-.07h0l.33-.19h0c.11-.06.17-.19.22-.25h0a1.18,1.18,0,0,0,.22-.76,1,1,0,0,0,0-.38v-.06h0c0-.06-.06-.13-.06-.19s0-.06,0-.13v-.06a.94.94,0,0,0-.22-.25h-.06c0-.07-.11-.07-.16-.13h0a1,1,0,0,0-.44-.13H78.17l.94-1.07a1.46,1.46,0,0,0,0-1.83,1,1,0,0,0-1.59,0L74.72,22l-6,6.89H58.88l-.33.38a1.35,1.35,0,0,0,0,1.77h0a1,1,0,0,0,.76.38H75.05a1,1,0,0,0,1.21-1.14Z" fill="#1b7396"/><path d="M84.92,21.83a1,1,0,0,0-.44-.13h-.06A1,1,0,0,1,84.92,21.83Z" fill="#3c8aad"/><path d="M116.44,25.12l2.36-2.72a1.23,1.23,0,0,0,.33-.88,1.35,1.35,0,0,0-.33-.89l-1.59-1.83L118.8,17a1.33,1.33,0,0,0,0-1.7h0l-2.36-2.72a1,1,0,0,0-.76-.38h-2.36a1,1,0,0,0-.77.38l-4.39,5.06,0,.06-.33.38a1.34,1.34,0,0,0-.33.88h0a1.45,1.45,0,0,0,.28.83l.21.25.06.06,0,.06.06.07,4.33,5a1,1,0,0,0,.77.38h2.36A1.79,1.79,0,0,0,116.44,25.12Z" fill="#1b7396"/><path d="M10,19.56V14.5c.05-.7.54-1.27,1.15-1.2a1.21,1.21,0,0,1,1,1.2V17Z" fill="#006d50"/><path d="M125.11,19.81V14.5a1.17,1.17,0,0,1,1-1.33,1.18,1.18,0,0,1,1.15,1.2v2.91Z" fill="#006d50"/><path d="M12.82,16.21V11.27A1.18,1.18,0,0,1,14,10.07a1.22,1.22,0,0,1,1,1.2v2.41Z" fill="#006d50"/><polygon points="34.97 12.54 31.85 12.54 31.85 12.54 31.85 12.48 34.64 12.48 34.97 12.48 34.97 12.54" fill="#29a639"/><path d="M108.44,20h0l-.11-.13-.22-.25a1.41,1.41,0,0,1-.27-.82h0a1.34,1.34,0,0,1,.32-.89l.33-.38.06-.06h-1.92l-4.39-5.06h3a1.21,1.21,0,0,0,1-1.32,1.21,1.21,0,0,0-1-1.21H89.63a1.16,1.16,0,0,0-.93,1.27A1.23,1.23,0,0,0,89,12l.33.38H99l6.25,7.21.16.19h0c.06.06.11.06.17.12a.85.85,0,0,0,.44.13h2.41Z" fill="#cd9700"/><path d="M47.75,12.48H44.62l-1.86-2.15A1,1,0,0,0,42,10h5.76a1.21,1.21,0,0,1,1,1.32,1.14,1.14,0,0,1-1,1.21Z" fill="#e65d31"/><path d="M89.25,12.54l5.65,6.51,2.19,2.53.6.69,2.2,2.53.6.7L102.68,28l2.74,3.09a.92.92,0,0,0,.93.38h10.48a.91.91,0,0,0,.76-.38L119.46,29l4.66-5.37,2.79-3.16.06-.06,2.74-3.16c.06,0,.06-.07.06-.07l4-4.61h12.94l8.77,10.05,2.19,2.53,5.21,6a1,1,0,0,0,1.59,0,1.43,1.43,0,0,0,0-1.83h0l-7-8.09-.16-.19-7.4-8.53h25.27l.49-2.53h-42.1a1,1,0,0,0-1,.38l-2.47,2.84L127.9,15.7l-.6.69-2.19,2.53-.61.7-2.25,2.53L116.33,29h-9.65l-4.22-4.86h0l-2.79-3.23-2.8-3.22L92.48,12.6l-1.92-2.21A1.71,1.71,0,0,0,89.8,10H76.2a1,1,0,0,0-1,.38l-7.67,8.85L59,29.1h3.12L76.42,12.6H89.25Z" fill="#34871d"/><path d="M41.22,12.16a1.35,1.35,0,0,1,0-1.77h0A1,1,0,0,1,42,10h-9.6a.92.92,0,0,1,.66.38h0l1.87,2.15H41.5Z" fill="#e65d31"/><path d="M136.73,23.54h-.88c0-.07,0-.19,0-.25v-.13h0a3.78,3.78,0,0,1-.06-.82v-.13c0-.32.06-.57.06-.88h0V21.2c0-.06,0-.19,0-.25h.88a1.13,1.13,0,0,1,1.15,1.2,1.21,1.21,0,0,1-1,1.32C136.78,23.54,136.78,23.54,136.73,23.54Z" fill="#e95959"/><path d="M127.35,31.12a1,1,0,0,1-.76.38.91.91,0,0,1-.77-.38,1.35,1.35,0,0,1,0-1.77h0l.27-.31h3.13Z" fill="#e95959"/><path d="M133.93,23.54h-.44a1.19,1.19,0,0,1-1.09-1.27,1.23,1.23,0,0,1,.33-.88c.05-.06.11-.13.16-.13s.11-.06.16-.12a.88.88,0,0,1,.44-.13.94.94,0,0,1,.77.38,1.35,1.35,0,0,1,0,1.77h0Z" fill="#e95959"/><path d="M124.17,23.6a1,1,0,0,1-1.53,0,1.34,1.34,0,0,1-.33-.88v-.51l2.25-2.53v3A2.5,2.5,0,0,1,124.17,23.6Z" fill="#3a946f"/><path d="M126.91,20.44a1,1,0,0,1-.71.32,1.19,1.19,0,0,1-1.09-1.27v-.57l2.19-2.53v3a1.59,1.59,0,0,1-.28.88Z" fill="#3a946f"/><path d="M129.77,17.15a1,1,0,0,1-1.54-.06,1.49,1.49,0,0,1-.27-.82V15.7l2.19-2.53v3.1a1.69,1.69,0,0,1-.27.88C129.77,17.09,129.77,17.15,129.77,17.15Z" fill="#3a946f"/><path d="M117.65,31.12a1,1,0,0,1-.77.38.94.94,0,0,1-.77-.38,1.38,1.38,0,0,1,0-1.77h0l.28-.31h3.12Z" fill="#3a946f"/><path d="M106.35,31.5h-.16A1.13,1.13,0,0,1,105,30.3a1.18,1.18,0,0,1,1-1.33h.55l.33.38a1.35,1.35,0,0,1,0,1.77h0A.61.61,0,0,1,106.35,31.5Z" fill="#29a639"/><path d="M102.74,28l-2.2-2.53V25a1.2,1.2,0,0,1,1.1-1.26h0a1,1,0,0,1,.77.38h0a1.34,1.34,0,0,1,.33.88Z" fill="#29a639"/><path d="M99.94,24.8l-2.25-2.53v-.5c.06-.7.55-1.27,1.15-1.2a1.22,1.22,0,0,1,1,1.2Z" fill="#29a639"/><path d="M97.14,21.58,95,19.05v-.51a1.11,1.11,0,1,1,2.19-.12v3.16Z" fill="#29a639"/><path d="M115.29,23h-1.48l-3.67-4.17,3.67-4.23h1.48l1.32,1.51L115,18a1.26,1.26,0,0,0,0,1.7h0l1.59,1.84Z" fill="#d5002f"/><path d="M108.6,20.12h-.33l0-.06-.06-.06,0-.07-.22-.25a1.32,1.32,0,0,1-.27-.82h0a1.36,1.36,0,0,1,.32-.88l.33-.38.06-.07h.38a1.14,1.14,0,0,1,1.15,1.2,1.21,1.21,0,0,1-1,1.33.38.38,0,0,1-.22.06Z" fill="#3a946f"/><path d="M106.08,20.12a1.26,1.26,0,0,1-.44-.12s-.11-.07-.16-.13h0l-.17-.19a1.35,1.35,0,0,1,0-1.77,1,1,0,0,1,.77-.38h.44l.33.38a1.35,1.35,0,0,1,0,1.77h0A.86.86,0,0,1,106.08,20.12Z" fill="#f6b386"/><path d="M102.13,12.54H99l-.28-.32a1.38,1.38,0,0,1,0-1.77h0a1,1,0,0,1,1.54,0h0Z" fill="#f6b386"/><path d="M70.06,31.19a1,1,0,0,1-1.54,0h0a1.37,1.37,0,0,1,0-1.77h0l.33-.38H72Z" fill="#3c8aad"/><path d="M60.19,31.12a1,1,0,0,1-1.53,0,1.35,1.35,0,0,1,0-1.77h0L59,29h3.12Z" fill="#3c8aad"/><path d="M76,24.3H75.6A1.19,1.19,0,0,1,74.5,23a1.23,1.23,0,0,1,.33-.88,1,1,0,0,1,.77-.38h2.68Z" fill="#3c8aad"/><path d="M84.48,24.3H83.6l.17-.19a.91.91,0,0,1,.87-.32h.06s0,0,.11.06h0l.33.19-.33.19h0A.57.57,0,0,0,84.48,24.3Z" fill="#3c8aad"/><path d="M85.36,23.73a.35.35,0,0,1-.11-.19.92.92,0,0,1-.11-.38h0a.75.75,0,0,1,0-.51c0-.06,0-.06,0-.06h0v-.06h0c0-.07.06-.13.11-.19s.06-.13.11-.13v.06c.06.07.06.07.06.13a.27.27,0,0,1,0,.19h0v.06a.86.86,0,0,1,.06.38A1.07,1.07,0,0,1,85.36,23.73Z" fill="#3c8aad"/><path d="M85.14,22a.92.92,0,0,1-1.37,0l-.17-.19h.88a1.26,1.26,0,0,1,.44.12h0c0-.06.11,0,.22.07Z" fill="#3c8aad"/><path d="M76.37,12.54h-.44a1.14,1.14,0,0,1-1.15-1.2,1.17,1.17,0,0,1,1-1.33h.33a1.06,1.06,0,0,1,.54.38,1.35,1.35,0,0,1,0,1.77h0Z" fill="#29a639"/><polygon points="84.48 28.47 83.49 27.39 84.48 26.32 85.41 27.39 84.48 28.47" fill="#f3a16c"/><polygon points="89.19 22.97 88.26 24.11 87.33 22.97 88.26 21.89 89.19 22.97" fill="#f3a16c"/><polygon points="84.48 19.68 83.55 18.61 84.48 17.53 85.41 18.61 84.48 19.68" fill="#f3a16c"/><path d="M51.69,23.47h-.16a1.28,1.28,0,0,1,0-2.52H52l.33.38a1.35,1.35,0,0,1,0,1.77h0A.75.75,0,0,1,51.69,23.47Z" fill="#ec7d3d"/><path d="M56.85,23.1a1,1,0,0,1-.77.37A1.19,1.19,0,0,1,55,22.21a1.22,1.22,0,0,1,.33-.88l.28-.32h3.12Z" fill="#ec7d3d"/><path d="M44.68,12.48H41.55l-.33-.38a1.35,1.35,0,0,1,0-1.77h0A1,1,0,0,1,42,10a.94.94,0,0,1,.77.38Z" fill="#ec7d3d"/><path d="M60.9,18.23h-.27a1,1,0,0,1-.77-.38h0a1.35,1.35,0,0,1-.33-.89v-.57l.33-.37a1,1,0,0,1,1.59,0,1.43,1.43,0,0,1,0,1.83l-.38.44H60.9Z" fill="#87799d"/><path d="M50.32,20.76a1,1,0,0,1-1.53,0h0a1.35,1.35,0,0,1,0-1.77h0l.77-.89,1.59,1.77Z" fill="#29a639"/><path d="M18.8,30.3A1.2,1.2,0,0,0,17.7,29H14.41l4.22-4.87,1.54-1.77,1.53-1.77H29l1.64,1.9h0l.06.06.05.06.05.13.66.76.06.06v-.06h0l.05-.07a3.5,3.5,0,0,1,.66-.88h0a3.47,3.47,0,0,1,.82-.63.06.06,0,0,0,.06-.07h0s0-.06,0-.06l-.17-.19-2.68-3.1a1.2,1.2,0,0,0-.33-.25,1,1,0,0,0-.44-.13H21.27a1.17,1.17,0,0,0-.44.13c-.06.06-.11.06-.17.13s-.11.06-.16.12l-2.63,2.91L11.29,29H1.53l-.28.31a1.38,1.38,0,0,0,0,1.77h0A1,1,0,0,0,2,31.5v.07H17.76A1.2,1.2,0,0,0,18.8,30.3Z" fill="#b94676"/><path d="M43.91,26.45l-2.19-2.53v-.51a1.17,1.17,0,0,1,1.15-1.2,1.22,1.22,0,0,1,1,1.2Z" fill="#29a639"/><path d="M33.05,10.33a1.15,1.15,0,0,0-.66-.38h-.27a1.14,1.14,0,0,0-.93,1.26,1.24,1.24,0,0,0,.33.89l.33.38H35l-1.92-2.15Z" fill="#29a639"/><path d="M52,15.7V13.23a1.44,1.44,0,0,1,1.31-1.51h2.14a1.45,1.45,0,0,1,1.32,1.51h0V15.7a1.46,1.46,0,0,1-1.32,1.52H53.28A1.5,1.5,0,0,1,52,15.7Z" fill="#940144"/><path d="M54.38,13.3a1.06,1.06,0,0,0-1,1.14,1,1,0,1,0,2,0,1.15,1.15,0,0,0-1-1.14Z" fill="#d5002f"/><path d="M59.42,31.5a1,1,0,0,1-.76-.38,1.35,1.35,0,0,1,0-1.77h0L59,29H49.34l-5.71-6.44L35,12.54H31.85l9.87,11.38,2.19,2.53L48,31.19a1.2,1.2,0,0,0,.33.25,1,1,0,0,0,.44.13l10.63-.07Z" fill="#34871d"/><path d="M33.05,10.33a1.15,1.15,0,0,0-.66-.38H18.69a1,1,0,0,0-1,.38L15,13.42,12.82,16l-.6.7L10,19.18l-.61.69L7.23,22.4,1.53,29H4.65l4.61-5.31,2.79-3.22,2.8-3.22,4.06-4.68h16l-1.87-2.21Z" fill="#34871d"/><path d="M157.67,10.52l-1.59,1.77,10.58,12.2a2.64,2.64,0,0,1,.55-1.14h0a1.7,1.7,0,0,1,1-.63Z" fill="#006d50"/><polyline points="176.09 21.07 168.42 12.29 165.29 12.29 174.28 22.65 176.09 21.07" fill="#006d50"/><path d="M31.85,12.48h0l9.87,11.37,2.19,2.53L48,31.12a1.25,1.25,0,0,0,.33.26,1,1,0,0,0,.44.12H59.42a1,1,0,0,1-.76-.38,1.35,1.35,0,0,1,0-1.77h0L59,29H49.34l-5.71-6.44L34.86,12.41h0l-1.75-2h0a1.22,1.22,0,0,0-.66-.38H18.74a1,1,0,0,0-1,.38l-2.69,3.1v2.65c-.06.7-.55,1.27-1.15,1.2a1.21,1.21,0,0,1-1-1.2V16l-.61.69v2.66a1.17,1.17,0,0,1-1.15,1.2,1.22,1.22,0,0,1-1-1.2v-.13l-.6.69v2.66a1.19,1.19,0,0,1-1.1,1.26,1.19,1.19,0,0,1-1.1-1.26h0v-.13L1.58,29H-19.2a1.19,1.19,0,0,0-1.09,1.26h0v.25a1.18,1.18,0,0,0,1.09,1H2V31.5a1,1,0,0,0,.77-.38L4.65,29l4.61-5.31,2.79-3.22,2.8-3.22,4.06-4.68,12.94-.06Z" fill="#34871d"/><path d="M157.67,28.28a1.17,1.17,0,0,1-1.15,1.2,1.21,1.21,0,0,1-1-1.2V22.34l2.19,2.53Z" fill="#006d50"/><path d="M159.43,12.48H156.3L156,12.1a1.35,1.35,0,0,1,0-1.77,1,1,0,0,1,1.54,0Z" fill="#29a639"/><path d="M149.83,12.48h-3.12l-.33-.38a1.35,1.35,0,0,1,0-1.77.82.82,0,0,1,.71-.38h.16a.84.84,0,0,1,.66.31Z" fill="#29a639"/><path d="M157.67,25.12l-2.19-2.53v-.51a1.19,1.19,0,0,1,1.1-1.26.79.79,0,0,1,.65.25,1.39,1.39,0,0,1,.44,1Z" fill="#3a946f"/><path d="M12.77,30.93a1,1,0,0,1-1.59,0,1.43,1.43,0,0,1,0-1.83h0l.11-.13h3.12Z" fill="#ce728f"/><path d="M18.63,24.11l-.76-.89a1.35,1.35,0,0,1,0-1.77h0a1,1,0,0,1,1.53,0h0l.77.89Z" fill="#ce728f"/><path d="M21.76,20.57h-.44a1.2,1.2,0,0,1-1.1-1.27,1.23,1.23,0,0,1,.33-.88c.06-.07.11-.13.17-.13s.11-.06.16-.13a1,1,0,0,1,.44-.12,1.2,1.2,0,0,1,1.1,1.26,1.36,1.36,0,0,1-.33.89Z" fill="#ce728f"/><path d="M29.49,20.57h-.44l-.33-.38a1.35,1.35,0,0,1,0-1.77h0a1,1,0,0,1,.77-.38,1.26,1.26,0,0,1,.44.12c.11.07.27.13.33.26a1.34,1.34,0,0,1,.33.88,1.2,1.2,0,0,1-1.1,1.27Z" fill="#ce728f"/><path d="M9.09,23.47a1,1,0,0,1-1.53,0,1.32,1.32,0,0,1-.33-.88v-.13l2.19-2.53v2.66A1.32,1.32,0,0,1,9.09,23.47Z" fill="#29a639"/><path d="M11.89,20.25a1,1,0,0,1-1.54,0,1.38,1.38,0,0,1-.32-.88v-.13l2.19-2.53v2.66A1.34,1.34,0,0,1,11.89,20.25Z" fill="#29a639"/><path d="M14.74,17a1,1,0,0,1-.77.38,1.19,1.19,0,0,1-1.09-1.26h0V16l2.19-2.53v2.66A1.5,1.5,0,0,1,14.74,17Z" fill="#29a639"/><path d="M2.73,31.19a1,1,0,0,1-.76.38.94.94,0,0,1-.77-.38,1.35,1.35,0,0,1,0-1.77h0L1.53,29H4.65Z" fill="#ce728f"/><path d="M19,12.54h-.44a1.22,1.22,0,0,1-1-1.33,1.22,1.22,0,0,1,1-1.2h.22a.91.91,0,0,1,.55.38,1.35,1.35,0,0,1,0,1.77h0Z" fill="#29a639"/><path d="M168.64,12.48h-3.13l-.33-.38a1.36,1.36,0,0,1-.33-.89,1.34,1.34,0,0,1,.33-.88.9.9,0,0,1,.72-.38h.16a.87.87,0,0,1,.66.31Z" fill="#29a639"/><path d="M33.05,10.33h0a1.15,1.15,0,0,0-.66-.38h-.27a1.14,1.14,0,0,0-.93,1.26,1.24,1.24,0,0,0,.33.89l.33.38H35Z" fill="#29a639"/><path d="M35,25.62a2.67,2.67,0,0,0,0-3.41,1.9,1.9,0,0,0-1.92-.63,2.25,2.25,0,0,0-1,.63h0a2.66,2.66,0,0,0,.17,3.41A1.87,1.87,0,0,0,35,25.62Z" fill="#940144"/><path d="M33.88,22.53l-.88-1a2.16,2.16,0,0,0-1,.63h0a2.26,2.26,0,0,0-.55,1.2l.88,1a1,1,0,0,0,1.59,0,1.32,1.32,0,0,0,0-1.83Z" fill="#3a946f"/></g><g clip-path="url(#b)"><path d="M193.25,18.23A1.19,1.19,0,0,0,192.16,17h-9.93l-3.83-4.42h7.12a1.19,1.19,0,0,0,1.1-1.27,1.19,1.19,0,0,0-1.1-1.26h-20a.4.4,0,0,1,.22.06,1.2,1.2,0,0,0-.83,1.2,1.24,1.24,0,0,0,.33.89l.33.38h9.6l5.7,6.64a1.2,1.2,0,0,0,.33.25c.05,0,.11.06.16.06a.42.42,0,0,0,.28.07H192.1a1.31,1.31,0,0,0,1.15-1.33Z" fill="#34871d"/><path d="M157.67,10.45l-1.59,1.84,10.58,12.2a2.64,2.64,0,0,1,.55-1.14h0a1.7,1.7,0,0,1,1-.63Z" fill="#006d50"/><path d="M183.33,29.35l-.66-.76h7.79a1.13,1.13,0,0,0,1.15-1.2,1.21,1.21,0,0,0-1-1.32h-10l-4.16-4.81-.17-.19-7.73-8.85h-3.12l9.1,10.43v5.76a1.17,1.17,0,0,0,1.15,1.2,1.22,1.22,0,0,0,1-1.2V25.24l5.21,6a1,1,0,0,0,1.59,0,1.71,1.71,0,0,0-.11-1.9Z" fill="#006d50"/><path d="M170.06,26.57a2.59,2.59,0,0,0,0-3.35,1.83,1.83,0,0,0-2.9,0h0a2.11,2.11,0,0,0-.55,1.14,2.4,2.4,0,0,0,1.53,2.84,1.86,1.86,0,0,0,1.92-.63Z" fill="#940144"/><path d="M178.34,12.54h-3.12l-.28-.38a1.43,1.43,0,0,1,0-1.83,1,1,0,0,1,1.59,0h0Z" fill="#29a639"/><path d="M181.74,19.49a.45.45,0,0,1-.27-.06.2.2,0,0,1-.17-.06,1.37,1.37,0,0,1-.6-1.65,1.11,1.11,0,0,1,1-.76h.44l.33.38a1.45,1.45,0,0,1,0,1.84A1.11,1.11,0,0,1,181.74,19.49Z" fill="#29a639"/><path d="M169,23.54l-.82-.95a2.22,2.22,0,0,0-1,.63h0a2.26,2.26,0,0,0-.55,1.14l.83.95a1,1,0,0,0,1.59,0A1.43,1.43,0,0,0,169,23.54Z" fill="#3a946f"/><path d="M168.64,12.54h-3.13l-.33-.38a1.35,1.35,0,0,1,0-1.77.86.86,0,0,1,.72-.38h.16a.88.88,0,0,1,.66.32Z" fill="#29a639"/><path d="M197,22.21a1.3,1.3,0,0,1,.05-.44,12.91,12.91,0,0,0,0-7.08,1.41,1.41,0,0,1,.82-1.71,1.21,1.21,0,0,1,1.48.89,16,16,0,0,1,0,8.85,1.16,1.16,0,0,1-1.53.88,1.53,1.53,0,0,1-.82-1.39Z" fill="#34871d"/><path d="M194.13,20.38a.61.61,0,0,1,.06-.32,9.58,9.58,0,0,0,0-3.54,1.47,1.47,0,0,1,.87-1.71,1.26,1.26,0,0,1,1.48,1,11.76,11.76,0,0,1,0,4.8,1.28,1.28,0,0,1-1.48,1.07,1.25,1.25,0,0,1-.93-1.32Z" fill="#34871d"/><path d="M199.72,24.68a2.3,2.3,0,0,1,.11-.57,17.34,17.34,0,0,0,0-11.76,1.47,1.47,0,0,1,.72-1.77,1.18,1.18,0,0,1,1.53.69,20.16,20.16,0,0,1,0,13.91,1.17,1.17,0,0,1-1.59.76A1.3,1.3,0,0,1,199.72,24.68Z" fill="#34871d"/><path d="M190.51,30.49a2.86,2.86,0,0,1-2.63-3,2.66,2.66,0,1,1,5.26,0A2.85,2.85,0,0,1,190.51,30.49Z" fill="#f3a16c"/><path d="M193.14,27.77h0m-.65,1.77h0M191.94,28c0-.19-.06-.38-.06-.5a1.32,1.32,0,0,1,.06-.51l-.33-.38a1.4,1.4,0,0,1-.22-.44A1.1,1.1,0,0,1,191,26l-.44-.19c-.16.07-.27.13-.44.19a1,1,0,0,1-.43.13,3.57,3.57,0,0,1-.22.44c-.11.13-.17.25-.28.38s.06.38.06.51a1.25,1.25,0,0,1-.06.5,2.16,2.16,0,0,1,.28.38,2,2,0,0,1,.22.44,1,1,0,0,1,.43.13c.17.06.28.13.44.19a3.85,3.85,0,0,1,.44-.19,1.29,1.29,0,0,1,.44-.13,2.25,2.25,0,0,1,.22-.44Zm2.63-1.89c0,.44-.44.94-.44,1.39s.44.95.44,1.39V29c-.11.45-.88.57-1.15,1s-.06,1.27-.44,1.52-1-.19-1.37,0-.71.95-1.1.95-.71-.82-1.15-.95-1,.32-1.37,0-.16-1.14-.44-1.52-1-.44-1.15-1v-.12c0-.44.44-1,.44-1.39s-.44-.95-.44-1.39v-.13c.11-.44.88-.57,1.15-1s.06-1.26.44-1.52,1,.19,1.37,0,.71-.94,1.1-.94.71.82,1.15.94,1-.31,1.37,0,.16,1.14.44,1.52,1,.44,1.15,1v.13Z" fill="#d5002f"/><path d="M176.53,25.18l-2.25-2.59v-.51a1.11,1.11,0,1,1,2.2,0v3.1Z" fill="#3a946f"/><path d="M182.67,28.66l-2.19-2.53H180a1.28,1.28,0,0,0,0,2.53Z" fill="#3a946f"/></g><g clip-path="url(#c)"><rect x="435.46" y="22.72" width="4.11" height="4.74" fill="#d5002f"/><path d="M432.39,22.72a1.2,1.2,0,0,1,1.1-1.27h6.09a1.19,1.19,0,0,1,1.09,1.27V29.8a1.17,1.17,0,0,1-1.15,1.2,1.22,1.22,0,0,1-1-1.2V24h-5a1.22,1.22,0,0,1-1.1-1.32Z" fill="#1b7396"/><path d="M432.39,27.08a1.2,1.2,0,0,1,1.1-1.27h6.09a1.29,1.29,0,0,1,0,2.53h-6.09a1.2,1.2,0,0,1-1.1-1.26Z" fill="#1b7396"/><path d="M434.75,29.8V22.72c.06-.7.55-1.27,1.15-1.2a1.2,1.2,0,0,1,1,1.2V29.8a1.17,1.17,0,0,1-1.15,1.2A1.22,1.22,0,0,1,434.75,29.8Z" fill="#1b7396"/><path d="M448.51,16.21h-8.22a1.28,1.28,0,0,0,0,2.52h1.21l-2.36,2.72-.39.44a1.47,1.47,0,0,0,0,1.84,1,1,0,0,0,1.59,0l.33-.44,3.95-4.56h3.56l.88,1,1.54,1.77,4.88,5.62,1.86,2.15a1,1,0,0,0,.77.38,1,1,0,0,0,.77-.38,1.37,1.37,0,0,0,0-1.77h0l-.33-.38-7.08-8.28-2-2.34A1,1,0,0,0,448.51,16.21Z" fill="#e65d31"/><path d="M449.28,19.62l1.54,1.83L448,24.74a2.62,2.62,0,0,0-.54-1.14h0a1.78,1.78,0,0,0-1-.63Z" fill="#006d50"/><path d="M417.1,9.76l-.71-.82a1,1,0,0,0-.66-.32.84.84,0,0,0-.66.32l-.71.82-.44-.51a.73.73,0,0,0-.55-.31,1,1,0,0,0-1,1V12.1a1.17,1.17,0,0,0,.27.76l2.52,2.9h0a.74.74,0,0,1,.33-.12h0a.57.57,0,0,1,.33-.07h.66l2.36-2.71a1.17,1.17,0,0,0,.27-.76V10a.94.94,0,0,0-1.53-.76l-.06.07Z" fill="#b94676"/><path d="M409.31,13a1.22,1.22,0,0,0-.11,1.52l.06.06.44.51-.72.82a1.15,1.15,0,0,0,0,1.52h0l.72.82-.44.5a.92.92,0,0,0-.28.64,1.29,1.29,0,0,0,.28.88,1,1,0,0,0,.66.32h1.8a.84.84,0,0,0,.66-.32l2.52-2.91h0c0-.06-.1-.19-.16-.25h0V17a1,1,0,0,1-.05-.38,1.08,1.08,0,0,1,.21-.7L412.38,13a.87.87,0,0,0-.66-.31h-1.86A2.42,2.42,0,0,0,409.31,13Z" fill="#b94676"/><path d="M415.12,17.66l-2.52,2.91a1.28,1.28,0,0,0-.27.76v2.08a1.15,1.15,0,0,0,.27.76.81.81,0,0,0,.77.32.75.75,0,0,0,.55-.32l.44-.51.71.83a.82.82,0,0,0,1.32,0l.71-.83.44.51a.88.88,0,0,0,1.37,0l0-.06a1.48,1.48,0,0,0,.22-.64V21.33a1.15,1.15,0,0,0-.27-.76l-2.42-2.78H416a1.46,1.46,0,0,1-.55-.07h0c-.06,0-.11-.06-.17-.12s-.05.06-.11.06Z" fill="#b94676"/><path d="M372.31,23.1v5.31a1.18,1.18,0,0,1-1.05,1.32,1.13,1.13,0,0,1-1.15-1.2V25.62Z" fill="#006d50"/><path d="M397.47,9.57a1.18,1.18,0,0,1,1-1.33,1.14,1.14,0,0,1,1.15,1.2v5.63l-2.19-2.53Z" fill="#006d50"/><path d="M456.3,9.88a1.11,1.11,0,1,1,2.19,0h0v6.45L456.3,13.8Z" fill="#006d50"/><path d="M400.27,12.86a1.17,1.17,0,0,1,1-1.33,1.13,1.13,0,0,1,1.15,1.2v5.62l-2.19-2.52Z" fill="#006d50"/><path d="M469.18,14.06h0v0Z" fill="#3a946f"/><path d="M415.73,15.38h0a.42.42,0,0,0-.28.07C415.51,15.45,415.62,15.38,415.73,15.38Z" fill="#b94676"/><path d="M415.07,15.64l.33-.19-.33.19Z" fill="#b94676"/><path d="M403.06,16.08a1.11,1.11,0,1,1,2.2-.13v5.63l-2.2-2.53Z" fill="#006d50"/><path d="M414.8,15.89h0a1.19,1.19,0,0,0-.22.76,1,1,0,0,0,.05.38,1,1,0,0,1-.05-.38A1.94,1.94,0,0,1,414.8,15.89Z" fill="#b94676"/><path d="M481.68,15.7l-1.59,1.83-2.63-3H478a1,1,0,0,0,.77-.38h0a1.24,1.24,0,0,0,.33-.89v-.5Z" fill="#e65d31"/><path d="M366.55,9.44a1.19,1.19,0,0,0,1.09,1.27H371l-4.72,5.43h-2.08l.06.25v.13h0a4.52,4.52,0,0,1,.05.82v.13c0,.32-.05.57-.05.88h0v.13c0,.06-.06.19-.06.25h2.52a1.16,1.16,0,0,0,.44-.12c.06-.07.11-.07.17-.13s.11-.13.16-.13l6.63-7.64h6.58l1.87-2.15a1,1,0,0,1,.77-.38V8.11H367.59a1.21,1.21,0,0,0-1,1.33Z" fill="#d5002f"/><path d="M353,12.1a1.15,1.15,0,0,0-.27.76v9.22a1.28,1.28,0,0,0,.27.76.88.88,0,0,0,.66.32h6a4.49,4.49,0,0,0,2.8-.89,5.69,5.69,0,0,0,1.86-3c.06-.19.06-.32.11-.51s.06-.19.06-.25v-.13h0a5.14,5.14,0,0,0,0-.88v-.13c0-.31,0-.57,0-.82h0v-.13c0-.06-.06-.18-.06-.25a14.32,14.32,0,0,0-.44-1.51,4.54,4.54,0,0,0-1.48-2,4.13,4.13,0,0,0-2.79-.89h-6A.9.9,0,0,0,353,12.1Z" fill="#940144"/><path d="M355,14.31h4.39a2.56,2.56,0,0,1,1.59.5,2.89,2.89,0,0,1,1,1.65,3.87,3.87,0,0,1,.11.76v.25a3.62,3.62,0,0,1-.44,1.71,2.43,2.43,0,0,1-.77.94,2.59,2.59,0,0,1-1.53.45H355V14.31Z" fill="#d5002f"/><path d="M414.69,17.09c0,.06.05.13.05.19A.27.27,0,0,1,414.69,17.09Z" fill="#b94676"/><path d="M493,16.9V22a1.17,1.17,0,0,1-1.15,1.2,1.21,1.21,0,0,1-1-1.2V19.43Z" fill="#006d50"/><path d="M414.74,17.28c0,.06.06.06.06.13A.26.26,0,0,1,414.74,17.28Z" fill="#b94676"/><path d="M378,16.65V22a1.17,1.17,0,0,1-1.15,1.2,1.21,1.21,0,0,1-1-1.2V19.18Z" fill="#006d50"/><path d="M424,9.38a1.19,1.19,0,0,0,1.1,1.26h3.23l-4,4.74h-8.45a.57.57,0,0,0-.33.07h0l-.33.19h0c-.11.06-.16.19-.22.25h0a1.23,1.23,0,0,0-.21.76,1,1,0,0,0,.05.38v.06h0c0,.06.06.13.06.19s.05.06.05.13v.06a.69.69,0,0,0,.22.25h.05c.06.07.11.07.17.13h0a1,1,0,0,0,.44.13H422l-.93,1.07a1.43,1.43,0,0,0,0,1.83,1,1,0,0,0,1.59,0l2.8-3.22,6-6.89h9.87l.33-.38a1.35,1.35,0,0,0,0-1.77h0a1,1,0,0,0-.77-.38H425.16A1,1,0,0,0,424,9.38Z" fill="#1b7396"/><path d="M415.29,17.85a1,1,0,0,0,.44.13h0A1,1,0,0,1,415.29,17.85Z" fill="#3c8aad"/><path d="M383.76,14.56l-2.35,2.72a1.23,1.23,0,0,0-.33.88,1.35,1.35,0,0,0,.33.89L383,20.88l-1.59,1.84a1.32,1.32,0,0,0,0,1.7h0l2.35,2.72a1,1,0,0,0,.77.38h2.36a1,1,0,0,0,.77-.38L392,22.08l.06-.06.33-.38a1.34,1.34,0,0,0,.33-.88h0a1.45,1.45,0,0,0-.28-.83l-.22-.25-.05-.06-.06-.06,0-.07-4.33-5a1,1,0,0,0-.77-.38h-2.36A1.83,1.83,0,0,0,383.76,14.56Z" fill="#1b7396"/><path d="M490.18,20.12v5.06a1.16,1.16,0,0,1-1.15,1.2,1.21,1.21,0,0,1-1-1.2V22.72Z" fill="#006d50"/><path d="M375.1,19.87v5.31a1.11,1.11,0,1,1-2.19.13V22.4Z" fill="#006d50"/><path d="M487.38,23.47v4.94a1.17,1.17,0,0,1-1.15,1.2,1.22,1.22,0,0,1-1-1.2V26Z" fill="#006d50"/><polygon points="468.36 27.14 468.36 27.14 468.36 27.2 468.36 27.2 468.36 27.2 468.36 27.14" fill="#29a639"/><polygon points="465.24 27.14 468.36 27.14 468.36 27.14 468.36 27.2 465.56 27.2 465.24 27.2 465.24 27.14" fill="#29a639"/><path d="M391.77,19.68h0l.11.13.22.25a1.49,1.49,0,0,1,.27.82h0a1.35,1.35,0,0,1-.33.89l-.33.38,0,.06h1.92L398,27.27h-3a1.29,1.29,0,0,0,0,2.53h15.62a1.17,1.17,0,0,0,.94-1.27,1.23,1.23,0,0,0-.33-.88l-.33-.38H401.2L395,20.06l-.17-.19h0c0-.06-.11-.06-.16-.12a.85.85,0,0,0-.44-.13h-2.41Z" fill="#cd9700"/><path d="M452.46,27.2h3.13l1.86,2.15a1,1,0,0,0,.77.38h-5.76a1.21,1.21,0,0,1-1-1.32,1.13,1.13,0,0,1,1-1.21Z" fill="#e65d31"/><path d="M411,27.14l-5.65-6.51-2.19-2.53-.61-.69-2.19-2.53-.6-.7-2.19-2.53-2.75-3.09a.91.91,0,0,0-.93-.38H383.38a.94.94,0,0,0-.77.38l-1.86,2.15-4.66,5.37-2.8,3.16-.05.06-2.74,3.16c-.06,0-.06.07-.06.07l-4,4.61H353.5l-8.77-10-2.2-2.53-5.2-6a1,1,0,0,0-1.59,0,1.43,1.43,0,0,0,0,1.83h0l7,8.09.17.19,7.4,8.53H325.05l-.5,2.53h42.11a1,1,0,0,0,1-.38l2.47-2.84,2.2-2.53.6-.69,2.19-2.53.6-.7L378,17.53l5.92-6.82h9.65l4.22,4.86h0l2.8,3.23,2.8,3.22,4.38,5.06,1.92,2.21a1.74,1.74,0,0,0,.77.38H424a1,1,0,0,0,1-.38l7.68-8.85,8.55-9.86H438.1l-14.31,16.5H411Z" fill="#34871d"/><path d="M459,27.52a1.35,1.35,0,0,1,0,1.77h0a1,1,0,0,1-.76.38h9.59a.92.92,0,0,1-.66-.38h0l-1.86-2.15h-6.58Z" fill="#e65d31"/><path d="M353,29.73h0Z" fill="#34871d"/><path d="M363.48,16.14h.88c0,.07.05.19.05.25v.13h0a3.78,3.78,0,0,1,.06.82v.13c0,.32-.06.57-.06.88h0v.13c0,.06-.05.19-.05.25h-.88a1.13,1.13,0,0,1-1.15-1.2,1.21,1.21,0,0,1,1-1.32C363.42,16.14,363.42,16.14,363.48,16.14Z" fill="#e95959"/><path d="M372.85,8.56a1,1,0,0,1,.77-.38.92.92,0,0,1,.77.38,1.35,1.35,0,0,1,0,1.77h0l-.28.31H371Z" fill="#e95959"/><path d="M366.27,16.14h.44a1.19,1.19,0,0,1,1.1,1.27,1.23,1.23,0,0,1-.33.88c-.05.06-.11.13-.16.13s-.11.06-.17.12a.85.85,0,0,1-.44.13.93.93,0,0,1-.76-.38,1.35,1.35,0,0,1,0-1.77h0Z" fill="#e95959"/><path d="M376,16.08a1,1,0,0,1,1.54,0,1.34,1.34,0,0,1,.33.88v.51L375.65,20V17A2.48,2.48,0,0,1,376,16.08Z" fill="#3a946f"/><path d="M373.29,19.24a1.08,1.08,0,0,1,.71-.32,1.19,1.19,0,0,1,1.1,1.27v.57l-2.19,2.53v-3a1.66,1.66,0,0,1,.27-.88Z" fill="#3a946f"/><path d="M370.44,22.53a1,1,0,0,1,1.54.06,1.49,1.49,0,0,1,.27.82V24l-2.19,2.53v-3.1a1.69,1.69,0,0,1,.27-.88C370.44,22.59,370.44,22.53,370.44,22.53Z" fill="#3a946f"/><path d="M382.56,8.56a1,1,0,0,1,.77-.38.91.91,0,0,1,.76.38,1.35,1.35,0,0,1,0,1.77h0l-.27.31h-3.13Z" fill="#3a946f"/><path d="M393.85,8.18H394a1.13,1.13,0,0,1,1.15,1.2,1.19,1.19,0,0,1-1,1.33h-.55l-.33-.38a1.35,1.35,0,0,1,0-1.77h0A.61.61,0,0,1,393.85,8.18Z" fill="#29a639"/><path d="M397.47,11.65l2.19,2.53v.51A1.19,1.19,0,0,1,398.57,16h0a1,1,0,0,1-.77-.38h0a1.34,1.34,0,0,1-.33-.88Z" fill="#29a639"/><path d="M400.27,14.88l2.24,2.53v.5c-.05.7-.54,1.27-1.15,1.2a1.21,1.21,0,0,1-1-1.2Z" fill="#29a639"/><path d="M403.06,18.1l2.2,2.53v.51a1.11,1.11,0,1,1-2.2.12V18.1Z" fill="#29a639"/><path d="M384.92,16.65h1.48l3.67,4.17-3.67,4.23h-1.48l-1.32-1.51,1.59-1.84a1.26,1.26,0,0,0,0-1.7h0l-1.59-1.84Z" fill="#d5002f"/><path d="M391.6,19.56h.33l.06.06.05.06.06.07.22.25a1.32,1.32,0,0,1,.27.82h0a1.32,1.32,0,0,1-.33.88l-.33.38-.05.07h-.39a1.14,1.14,0,0,1-1.15-1.2,1.22,1.22,0,0,1,1-1.33.4.4,0,0,1,.22-.06Z" fill="#3a946f"/><path d="M394.13,19.56a1.16,1.16,0,0,1,.43.12c.06,0,.11.07.17.13h0l.16.19a1.35,1.35,0,0,1,0,1.77,1,1,0,0,1-.76.38h-.44l-.33-.38a1.35,1.35,0,0,1,0-1.77h0A.84.84,0,0,1,394.13,19.56Z" fill="#f6b386"/><path d="M398.07,27.14h3.13l.27.32a1.35,1.35,0,0,1,0,1.77h0a1,1,0,0,1-1.53,0h0Z" fill="#f6b386"/><path d="M430.15,8.49a1,1,0,0,1,1.53,0h0a1.35,1.35,0,0,1,0,1.77h0l-.33.38h-3.12Z" fill="#3c8aad"/><path d="M440,8.56a1,1,0,0,1,.76-.38,1,1,0,0,1,.77.38,1.35,1.35,0,0,1,0,1.77h0l-.33.38H438.1Z" fill="#3c8aad"/><path d="M424.17,15.38h.44a1.2,1.2,0,0,1,1.1,1.27,1.23,1.23,0,0,1-.33.88,1,1,0,0,1-.77.38h-2.69Z" fill="#3c8aad"/><path d="M415.73,15.38h.87l-.16.19a.93.93,0,0,1-.88.32h-.05c-.06,0-.06,0-.11-.06h0l-.33-.19.33-.19h0A.57.57,0,0,0,415.73,15.38Z" fill="#3c8aad"/><path d="M414.85,16c0,.07.11.13.11.19a1.16,1.16,0,0,1,.11.38h0a.89.89,0,0,1,0,.51c0,.06,0,.06-.06.06h0v.06h0a.29.29,0,0,1-.11.19c0,.07,0,.13-.1.13v-.06c-.06-.07-.06-.07-.06-.13a.27.27,0,0,1-.05-.19h0V17a.86.86,0,0,1-.06-.38A1.07,1.07,0,0,1,414.85,16Z" fill="#3c8aad"/><path d="M415.07,17.72a.92.92,0,0,1,1.37,0l.16.19h-.87a1.16,1.16,0,0,1-.44-.12h0c-.06.06-.11,0-.22-.07Z" fill="#3c8aad"/><path d="M423.84,27.14h.44a1.14,1.14,0,0,1,1.15,1.2,1.17,1.17,0,0,1-1,1.33h-.33a1.12,1.12,0,0,1-.55-.38,1.35,1.35,0,0,1,0-1.77h0Z" fill="#29a639"/><polygon points="415.73 11.21 416.71 12.29 415.73 13.36 414.8 12.29 415.73 11.21" fill="#f3a16c"/><polygon points="411.01 16.71 411.94 15.57 412.88 16.71 411.94 17.79 411.01 16.71" fill="#f3a16c"/><polygon points="415.73 20 416.66 21.07 415.73 22.15 414.8 21.07 415.73 20" fill="#f3a16c"/><path d="M448.51,16.21h.17a1.28,1.28,0,0,1,0,2.52h-.44l-.33-.38a1.35,1.35,0,0,1,0-1.77h0A.72.72,0,0,1,448.51,16.21Z" fill="#ec7d3d"/><path d="M443.36,16.58a1,1,0,0,1,.77-.37,1.18,1.18,0,0,1,1.09,1.26,1.22,1.22,0,0,1-.33.88l-.27.32H441.5Z" fill="#ec7d3d"/><path d="M455.53,27.2h3.13l.32.38a1.35,1.35,0,0,1,0,1.77h0a1,1,0,0,1-.76.38.91.91,0,0,1-.77-.38Z" fill="#ec7d3d"/><path d="M439.3,21.45h.28a1,1,0,0,1,.76.38h0a1.35,1.35,0,0,1,.33.89v.57l-.33.37a1,1,0,0,1-1.59,0,1.46,1.46,0,0,1,0-1.83l.39-.44h.16Z" fill="#87799d"/><path d="M449.88,18.92a1,1,0,0,1,1.54,0h0a1.35,1.35,0,0,1,0,1.77h0l-.77.89-1.59-1.77Z" fill="#29a639"/><path d="M481.41,9.38a1.19,1.19,0,0,0,1.1,1.26h3.28l-4.22,4.87L480,17.28l-1.54,1.77h-7.29l-1.64-1.9h0l-.06-.06-.05-.06-.06-.13-.66-.76-.05-.06v.06h0l-.06.07a3.24,3.24,0,0,1-.65.88h0a3.5,3.5,0,0,1-.83.63s0,0,0,.07H467a.06.06,0,0,0,.06.06l.16.19,2.69,3.1a1.2,1.2,0,0,0,.33.25,1,1,0,0,0,.44.13h8.22a1.17,1.17,0,0,0,.44-.13c.05-.06.11-.06.16-.13s.11-.06.17-.12l2.63-2.91,6.58-7.59h9.76l.27-.31a1.35,1.35,0,0,0,0-1.77h0a1,1,0,0,0-.76-.38V8.11H482.45A1.19,1.19,0,0,0,481.41,9.38Z" fill="#b94676"/><path d="M456.3,13.23l2.19,2.53v.51a1.17,1.17,0,0,1-1.15,1.2,1.21,1.21,0,0,1-1-1.2Z" fill="#29a639"/><path d="M467.15,29.35a1.22,1.22,0,0,0,.66.38h.28a1.16,1.16,0,0,0,.93-1.26,1.24,1.24,0,0,0-.33-.89l-.33-.38h-3.13l1.92,2.15Z" fill="#29a639"/><path d="M448.24,24v2.47A1.44,1.44,0,0,1,446.92,28h-2.14a1.44,1.44,0,0,1-1.31-1.51h0V24a1.45,1.45,0,0,1,1.31-1.52h2.14A1.5,1.5,0,0,1,448.24,24Z" fill="#940144"/><path d="M445.83,26.38a1.15,1.15,0,1,0-1-1.14,1.14,1.14,0,0,0,1,1.14Z" fill="#d5002f"/><path d="M440.78,8.18a1,1,0,0,1,.77.38,1.35,1.35,0,0,1,0,1.77h0l-.33.38h9.65l5.7,6.44,8.66,10h3.13l-9.87-11.38-2.19-2.53-4.11-4.74a1.2,1.2,0,0,0-.33-.25,1,1,0,0,0-.44-.13l-10.64.07Z" fill="#34871d"/><path d="M467.15,29.35a1.22,1.22,0,0,0,.66.38h13.71a1,1,0,0,0,1-.38l2.68-3.09,2.19-2.53L488,23l2.19-2.53.6-.69,2.2-2.53,5.7-6.57h-3.13L491,16l-2.8,3.22-2.79,3.22-4.06,4.68h-16l1.86,2.21Z" fill="#34871d"/><path d="M342.53,29.16l1.59-1.77-10.58-12.2a2.63,2.63,0,0,1-.54,1.14h0a1.73,1.73,0,0,1-1,.63Z" fill="#006d50"/><polyline points="324.11 18.61 331.79 27.39 334.91 27.39 325.92 17.03 324.11 18.61" fill="#006d50"/><path d="M468.36,27.2h0l-9.87-11.37L456.3,13.3l-4.11-4.74a1.25,1.25,0,0,0-.33-.26,1,1,0,0,0-.44-.12H440.78a1,1,0,0,1,.77.38,1.35,1.35,0,0,1,0,1.77h0l-.33.38h9.65l5.7,6.44,8.77,10.12h0l1.76,2h0a1.15,1.15,0,0,0,.66.38h13.7a1,1,0,0,0,1-.38l2.69-3.1V23.54c.05-.7.54-1.27,1.15-1.2a1.21,1.21,0,0,1,1,1.2v.12l.6-.69V20.31a1.18,1.18,0,0,1,1.15-1.2,1.23,1.23,0,0,1,1.05,1.2v.13l.6-.69V17.09a1.11,1.11,0,1,1,2.19,0h0v.13l5.7-6.58H519.4a1.19,1.19,0,0,0,1.1-1.26h0V9.13a1.18,1.18,0,0,0-1.1-1H498.19v.07a1,1,0,0,0-.77.38l-1.87,2.15L491,16l-2.8,3.22-2.79,3.22-4.06,4.68-12.94.06Z" fill="#34871d"/><path d="M342.53,11.4a1.18,1.18,0,0,1,1.16-1.2,1.22,1.22,0,0,1,1,1.2v5.94l-2.2-2.53Z" fill="#006d50"/><path d="M340.78,27.2h3.13l.32.38a1.35,1.35,0,0,1,0,1.77,1,1,0,0,1-.76.38,1,1,0,0,1-.77-.38Z" fill="#29a639"/><path d="M350.37,27.2h3.13l.33.38a1.35,1.35,0,0,1,0,1.77.83.83,0,0,1-.71.38H353a.87.87,0,0,1-.66-.31Z" fill="#29a639"/><path d="M342.53,14.56l2.2,2.53v.51a1.2,1.2,0,0,1-1.1,1.26.82.82,0,0,1-.66-.25,1.42,1.42,0,0,1-.44-1Z" fill="#3a946f"/><path d="M487.44,8.75a1,1,0,0,1,1.59,0,1.43,1.43,0,0,1,0,1.83h0l-.11.13h-3.13Z" fill="#ce728f"/><path d="M481.57,15.57l.77.89a1.35,1.35,0,0,1,0,1.77h0a1,1,0,0,1-1.53,0h0l-.77-.89Z" fill="#ce728f"/><path d="M478.45,19.11h.44A1.19,1.19,0,0,1,480,20.38a1.23,1.23,0,0,1-.33.88c0,.07-.11.13-.16.13s-.11.06-.16.13a1,1,0,0,1-.44.12,1.19,1.19,0,0,1-1.1-1.26,1.36,1.36,0,0,1,.33-.89Z" fill="#ce728f"/><path d="M470.72,19.11h.44l.33.38a1.37,1.37,0,0,1,0,1.77h0a1,1,0,0,1-.77.38,1.16,1.16,0,0,1-.44-.12c-.11-.07-.28-.13-.33-.26a1.34,1.34,0,0,1-.33-.88,1.19,1.19,0,0,1,1.1-1.27Z" fill="#ce728f"/><path d="M491.11,16.21a1,1,0,0,1,1.54,0,1.32,1.32,0,0,1,.33.88v.13l-2.2,2.53V17.09A1.32,1.32,0,0,1,491.11,16.21Z" fill="#29a639"/><path d="M488.32,19.43a1,1,0,0,1,1.53,0,1.34,1.34,0,0,1,.33.88v.13L488,23V20.31A1.34,1.34,0,0,1,488.32,19.43Z" fill="#29a639"/><path d="M485.47,22.72a1,1,0,0,1,.76-.38,1.19,1.19,0,0,1,1.1,1.26h0v.13l-2.19,2.53V23.6A1.5,1.5,0,0,1,485.47,22.72Z" fill="#29a639"/><path d="M497.47,8.49a1,1,0,0,1,.77-.38,1,1,0,0,1,.77.38,1.35,1.35,0,0,1,0,1.77h0l-.33.38h-3.13Z" fill="#ce728f"/><path d="M481.24,27.14h.44a1.29,1.29,0,0,1,0,2.53h-.22a.86.86,0,0,1-.54-.38,1.35,1.35,0,0,1,0-1.77h0Z" fill="#29a639"/><path d="M331.57,27.2h3.12l.33.38a1.36,1.36,0,0,1,.33.89,1.34,1.34,0,0,1-.33.88.9.9,0,0,1-.71.38h-.16a.84.84,0,0,1-.66-.31Z" fill="#29a639"/><path d="M467.15,29.35h0a1.22,1.22,0,0,0,.66.38h.28a1.16,1.16,0,0,0,.93-1.26,1.24,1.24,0,0,0-.33-.89l-.33-.38h-3.13Z" fill="#29a639"/><path d="M465.23,14.06a2.67,2.67,0,0,0,0,3.41,1.91,1.91,0,0,0,1.92.63,2.23,2.23,0,0,0,1.05-.63h0a2.67,2.67,0,0,0-.17-3.41A1.89,1.89,0,0,0,465.23,14.06Z" fill="#940144"/><path d="M466.33,17.15l.88,1a2.2,2.2,0,0,0,1-.63h0a2.42,2.42,0,0,0,.55-1.2l-.88-1a1,1,0,0,0-1.59,0,1.32,1.32,0,0,0,0,1.83Z" fill="#3a946f"/></g><g clip-path="url(#d)"><path d="M308,20.58l.16-.12.17-.07h.16l.82.32-6.05-7a1,1,0,0,0-1.53,0l-1.21,1.39a1.32,1.32,0,0,0-.33.88v.12h-2.51a1,1,0,0,0-.77.37l-1.21,1.39a1.36,1.36,0,0,0,0,1.77l.44.5-.44.51h0l.05.06-.05-.06h0l.11.12h0a.87.87,0,0,1,1.36,0l.77,1,9.24,0,.77-.94.05-.06Z" fill="#d5002f"/><path d="M297.78,21.44l-.66.76a.87.87,0,0,1-1.37,0h0l-.05.07-.06.06.44.5-.44.51a1.34,1.34,0,0,0,0,1.76l1.2,1.39a1,1,0,0,0,.76.39h2.52v.19a1.31,1.31,0,0,0,.32.88l1.2,1.39a1,1,0,0,0,1.53,0l6-6.93-.11-.12h0a.91.91,0,0,1-.65.31h-.11l-.17-.06-.16-.07-.11-.06-.76-.88Z" fill="#940144"/><path d="M297.94,21.44l-.76-.88a1,1,0,0,0-1.53,0,1.36,1.36,0,0,0,0,1.77,1,1,0,0,0,1.53,0Z" fill="#e95959"/><path d="M308.28,20.27l-.22.06-.16.12-.17.13-.77.88.77.89h0l0,.06.11.06.17.13.21.06h.22a1,1,0,0,0,.77-.37,1.35,1.35,0,0,0,0-1.77h0a1,1,0,0,0-.76-.38h-.11Z" fill="#e95959"/><path d="M302.21,18.86a1,1,0,0,0-.54.32l-1.21,1.38a1.52,1.52,0,0,0-.33,1v.06h4.59v-.06a1.45,1.45,0,0,0-.32-.95l-1.2-1.39a1,1,0,0,0-1-.32" fill="#eb6b70"/><path d="M304.72,21.52v-.06h-4.59v.06a1.09,1.09,0,0,0,.33.82l1.2,1.39a1,1,0,0,0,.54.32h.22a1,1,0,0,0,.77-.38l1.2-1.38a.87.87,0,0,0,.33-.76" fill="#e95959"/><path d="M307,21.45a1.2,1.2,0,0,0,1.1,1.27H318l3.84,4.42h-7.13a1.28,1.28,0,0,0,0,2.53h20a.38.38,0,0,1-.22-.06,1.21,1.21,0,0,0,.82-1.2,1.24,1.24,0,0,0-.33-.89l-.33-.38H325l-5.7-6.64a1.2,1.2,0,0,0-.33-.25c-.06,0-.11-.06-.16-.06a.42.42,0,0,0-.28-.07H308.1A1.32,1.32,0,0,0,307,21.45Z" fill="#34871d"/><path d="M342.53,29.23l1.59-1.84-10.58-12.2a2.63,2.63,0,0,1-.54,1.14h0a1.73,1.73,0,0,1-1,.63Z" fill="#006d50"/><path d="M316.88,10.33l.65.76h-7.78a1.13,1.13,0,0,0-1.15,1.2,1.21,1.21,0,0,0,1,1.32h10l4.17,4.81.16.19,7.73,8.85h3.13L325.76,17V11.27a1.18,1.18,0,0,0-1.15-1.2,1.23,1.23,0,0,0-1.05,1.2v3.17l-5.2-6a1,1,0,0,0-1.59,0,1.71,1.71,0,0,0,.11,1.9Z" fill="#006d50"/><path d="M330.14,13.11a2.59,2.59,0,0,0,0,3.35,1.84,1.84,0,0,0,2.91,0h0a2.26,2.26,0,0,0,.55-1.14,2.41,2.41,0,0,0-1.54-2.84,1.88,1.88,0,0,0-1.92.63Z" fill="#940144"/><path d="M321.87,27.14H325l.27.38a1.43,1.43,0,0,1,0,1.83,1,1,0,0,1-1.59,0h0Z" fill="#29a639"/><path d="M318.47,20.19a.45.45,0,0,1,.27.06.17.17,0,0,1,.16.06,1.37,1.37,0,0,1,.61,1.65,1.12,1.12,0,0,1-1,.76H318l-.33-.38a1.45,1.45,0,0,1,0-1.84A1.08,1.08,0,0,1,318.47,20.19Z" fill="#29a639"/><path d="M331.19,16.14l.82.95a2.27,2.27,0,0,0,1-.63h0a2.17,2.17,0,0,0,.54-1.14l-.82-1a1,1,0,0,0-1.59,0A1.43,1.43,0,0,0,331.19,16.14Z" fill="#3a946f"/><path d="M331.57,27.14h3.12l.33.38a1.35,1.35,0,0,1,0,1.77.84.84,0,0,1-.71.38h-.16a.84.84,0,0,1-.66-.32Z" fill="#29a639"/><path d="M309.69,9.19a2.86,2.86,0,0,1,2.64,3,2.66,2.66,0,1,1-5.27,0A2.85,2.85,0,0,1,309.69,9.19Z" fill="#f3a16c"/><path d="M307.06,11.91h0m.66-1.77h0m.55,1.58c0,.19.05.38.05.5a1.57,1.57,0,0,1-.05.51l.33.38a1.65,1.65,0,0,1,.22.44,1.1,1.1,0,0,1,.44.13c.16.06.27.12.43.19l.44-.19a1.1,1.1,0,0,1,.44-.13,3.57,3.57,0,0,1,.22-.44c.11-.13.16-.25.27-.38s-.05-.38-.05-.51a1.48,1.48,0,0,1,.05-.5,2.07,2.07,0,0,1-.27-.38,2,2,0,0,1-.22-.44,1,1,0,0,1-.44-.13c-.16-.06-.27-.13-.44-.19a3.63,3.63,0,0,1-.43.19,1.29,1.29,0,0,1-.44.13,4.48,4.48,0,0,1-.22.44Zm-2.63,1.89c0-.44.44-.94.44-1.39s-.44-1-.44-1.39v-.12c.11-.45.87-.57,1.15-1s0-1.27.44-1.52,1,.19,1.37,0,.71-1,1.09-1,.72.82,1.16,1,1-.32,1.37,0,.16,1.14.43,1.52,1,.44,1.16,1v.12c0,.44-.44.95-.44,1.39s.44.95.44,1.39v.13c-.11.44-.88.57-1.16.95s0,1.26-.43,1.52-1-.19-1.37,0-.72.94-1.1.94-.71-.82-1.15-.94-1,.31-1.37,0-.17-1.14-.44-1.52-1-.44-1.15-.95v-.13Z" fill="#d5002f"/><path d="M323.67,14.5l2.25,2.59v.51a1.11,1.11,0,1,1-2.19,0V14.5Z" fill="#3a946f"/><path d="M317.53,11l2.2,2.53h.44a1.19,1.19,0,0,0,1.09-1.26A1.19,1.19,0,0,0,320.17,11Z" fill="#3a946f"/></g><path d="M209.56,10.89h2.58l3.46,4.72,3.26-4.72h2.42v11.2h-2.56V15l-3.12,4.37h-.37L212.13,15v7.09h-2.57Z" fill="#fff"/><path d="M229.31,10.7a5.58,5.58,0,0,1,5.95,5.79,5.68,5.68,0,0,1-5.95,5.79,5.58,5.58,0,0,1-5.95-5.79A5.67,5.67,0,0,1,229.31,10.7Zm0,9.18a3.1,3.1,0,0,0,3.23-3.39,3.23,3.23,0,1,0-6.46,0A3.28,3.28,0,0,0,229.31,19.88Z" fill="#fff"/><path d="M237.34,10.89h2.56v8.8h4.56v2.4h-7.12Z" fill="#fff"/><path d="M246.06,10.89h.22c.6,0,2.58-.05,3.32-.05,4.48,0,6.29,2.58,6.29,5.55,0,3.14-2.15,5.73-6.42,5.73-.59,0-2.07,0-3.14,0h-.27Zm2.56,2.4v6.4c.34,0,.56,0,.93,0,2.21,0,3.62-1.2,3.62-3.33s-1.52-3.15-3.6-3.15A6.31,6.31,0,0,0,248.62,13.29Z" fill="#fff"/><path d="M263.12,10.7a5.58,5.58,0,0,1,5.95,5.79,5.68,5.68,0,0,1-5.95,5.79,5.59,5.59,0,0,1-6-5.79A5.68,5.68,0,0,1,263.12,10.7Zm0,9.18a3.1,3.1,0,0,0,3.23-3.39,3.24,3.24,0,1,0-6.47,0A3.29,3.29,0,0,0,263.12,19.88Z" fill="#fff"/><path d="M275.52,22.09h-2l-4.48-11.2h2.73l2.82,7.39,2.69-7.39h2.58Z" fill="#fff"/><path d="M283.42,10.89h2.29l4.66,11.2h-2.74l-.93-2.35h-4.43l-.93,2.35h-2.58Zm-.19,6.45h2.51l-1.25-3.17Z" fill="#fff"/><path d="M209.44,23.72H215v1.5h-2v5.5h-1.53v-5.5h-2Z" fill="#fff"/><path d="M217.33,23.72h1.37l2.78,7h-1.63l-.56-1.47h-2.64l-.56,1.47h-1.54Zm-.11,4h1.5l-.75-2Z" fill="#fff"/><path d="M221.06,23.72h5.54v1.5h-2v5.5h-1.52v-5.5h-2Z" fill="#fff"/><path d="M229,23.72h1.37l2.78,7h-1.64l-.55-1.47h-2.65l-.55,1.47h-1.54Zm-.12,4h1.5l-.74-2Z" fill="#fff"/><path d="M234,30.72v-7l2.27,0c1.82,0,2.47.95,2.47,2.24a2.13,2.13,0,0,1-1.12,2l1.94,2.76h-1.85l-1.62-2.45h-.57v2.45Zm1.52-5.5v1.55h.56c.58,0,1-.22,1-.81,0-.39-.19-.76-.93-.76Z" fill="#fff"/><path d="M245.94,27.83c0,2.14-1.3,3-2.73,3a2.75,2.75,0,0,1-2.91-3.08v-4h1.53v3.7c0,1.09.31,1.92,1.38,1.92s1.2-.71,1.2-1.83V23.72h1.53Z" fill="#fff"/><path d="M254.08,30.72l-3.17-4.2v4.2h-1.43v-7h1.22l3.17,4.22V23.72h1.43v7Z" fill="#fff"/><path d="M257.12,23.72h1.53v7h-1.53Z" fill="#fff"/><path d="M265.67,30a3,3,0,0,1-2.18.81A3.38,3.38,0,0,1,260,27.22a3.34,3.34,0,0,1,3.5-3.62,2.91,2.91,0,0,1,2,.73l-.67,1.2a2.35,2.35,0,0,0-1.37-.43,1.89,1.89,0,0,0-1.87,2.12,2,2,0,0,0,2,2.12,2.35,2.35,0,0,0,1.45-.51Z" fill="#fff"/><path d="M269.51,23.6a3.41,3.41,0,0,1,3.55,3.62,3.47,3.47,0,0,1-3.55,3.62A3.41,3.41,0,0,1,266,27.22,3.47,3.47,0,0,1,269.51,23.6Zm0,5.74a1.91,1.91,0,0,0,1.93-2.12,1.94,1.94,0,1,0-3.86,0A2,2,0,0,0,269.51,29.34Z" fill="#fff"/><path d="M274.3,23.72h1.53v5.5h2.72v1.5H274.3Z" fill="#fff"/><path d="M281.43,23.72h1.36l2.78,7h-1.63l-.55-1.47h-2.65l-.55,1.47h-1.54Zm-.12,4h1.5l-.74-2Z" fill="#fff"/><path d="M286.43,23.72h4v1.5H288v1.23h2.15V28H288v1.27h2.53v1.5h-4.06Z" fill="#fff"/></svg>