<svg xmlns="http://www.w3.org/2000/svg" xmlns:xlink="http://www.w3.org/1999/xlink" viewBox="0 0 500 20"><defs><clipPath id="a"><rect x="477.85" y="-5.48" width="25.74" height="29.95" fill="none"/></clipPath><clipPath id="b"><rect x="237.16" y="-5.48" width="44.03" height="29.95" fill="none"/></clipPath><clipPath id="c"><rect x="280.94" y="-5.48" width="196.93" height="29.95" fill="none"/></clipPath><clipPath id="d"><rect x="-3.84" y="-4.48" width="25.74" height="29.95" fill="none"/></clipPath><clipPath id="e"><rect x="218.57" y="-4.48" width="44.03" height="29.95" fill="none"/></clipPath><clipPath id="f"><rect x="21.88" y="-4.48" width="196.93" height="29.95" fill="none"/></clipPath></defs><g clip-path="url(#a)"><path d="M480.86,1.71l.91.86,8.05,7.69a1.58,1.58,0,0,1,0,2.31,1.78,1.78,0,0,1-2.42,0l-.28-.27L478.45,4a1.58,1.58,0,0,1,0-2.3A1.75,1.75,0,0,1,480.86,1.71Z" fill="#448a31"/><path d="M482.8,7.92V12.7a1.73,1.73,0,0,0,3.45,0V11.23Z" fill="#007455"/><path d="M495.68,17.46V2.86a1.62,1.62,0,0,1,.51-1.17,1.76,1.76,0,0,1,1.22-.48,1.7,1.7,0,0,1,1.73,1.65v14.6a1.73,1.73,0,0,1-3.46,0Z" fill="#448a31"/><path d="M479.66,1.22h17.76a1.76,1.76,0,0,1,1.21.48,1.59,1.59,0,0,1,.5,1.15,1.68,1.68,0,0,1-1.71,1.64H479.66A1.68,1.68,0,0,1,478,2.85,1.67,1.67,0,0,1,479.66,1.22Z" fill="#448a31"/><path d="M461.73,17.51a1.67,1.67,0,0,1,1.51-1.63.71.71,0,0,1,.21,0h13.08l2.94,2.82a1.77,1.77,0,0,0,1.22.48H463.45A1.69,1.69,0,0,1,461.73,17.51Z" fill="#007455"/><path d="M464,14.18h-4.77c.07-.13,0-.26,0-.4v-.15h0a3.69,3.69,0,0,0,0-1.1,3.75,3.75,0,0,0,0-1.11h0v-.14c0-.14.07-.27,0-.4h5.49a1,1,0,0,1,.43.07.86.86,0,0,1,.23.06,1.61,1.61,0,0,1,.56.35l5.68,5.44H467a.78.78,0,0,0-.22,0Z" fill="#007455"/><path d="M471,11.07a1.77,1.77,0,0,0,1.22.48A1.69,1.69,0,0,0,474,9.9V9.5l-3.45-3.31V9.9A1.62,1.62,0,0,0,471,11.07Z" fill="#369672"/><path d="M470.87,11.21l.15-.14a1.62,1.62,0,0,1-.51-1.17V6.19l-4.72-4.51a1.64,1.64,0,0,1,.51,1.17,1.7,1.7,0,0,1-1.73,1.65h-.71Z" fill="#448a31"/><path d="M474,9.5V5a1.73,1.73,0,0,0-3.45,0V6.19Z" fill="#007455"/><path d="M468.73,18.68a1.79,1.79,0,0,0,2.44,0,1.6,1.6,0,0,0,.5-1.17,1.56,1.56,0,0,0-.5-1.16l-.51-.49H466a.78.78,0,0,0-.22,0Z" fill="#369672"/><path d="M485.74,6.6a1.74,1.74,0,0,0-1.22-.48,1.68,1.68,0,0,0-1.73,1.65v.39l3.45,3.31V7.77A1.6,1.6,0,0,0,485.74,6.6Z" fill="#369672"/><path d="M497.08,19.17h.35a1.7,1.7,0,0,0,1.69-1.32,1,1,0,0,0,0-.3v0a1.7,1.7,0,0,0-1.73-1.66H480.62L474,9.5v.4a1.69,1.69,0,0,1-1.72,1.65,1.77,1.77,0,0,1-1.22-.48l-.15.14,4.87,4.65,2.94,2.82a1.75,1.75,0,0,0,1.22.48h17.18Z" fill="#448a31"/><path d="M497.05,1.22h.34a1.69,1.69,0,0,1,1.68,1.31,1.45,1.45,0,0,1,0,.29v0a1.68,1.68,0,0,1-1.72,1.63h-1.71V2.82A1.65,1.65,0,0,1,497.05,1.22Z" fill="#47a848"/><path d="M480.85,1.72a1.74,1.74,0,0,0-1.2-.47,1.7,1.7,0,0,0-1.2.47,1.57,1.57,0,0,0,0,2.3l.5.47h4.79Z" fill="#369672"/><path d="M478.68,18.68a1.75,1.75,0,0,0,1.22.48,1.7,1.7,0,0,0,1.22-.48,1.57,1.57,0,0,0,.51-1.17,1.54,1.54,0,0,0-.51-1.16l-.5-.49h-4.88Z" fill="#369672"/><path d="M497.08,19.17h.35a1.7,1.7,0,0,0,1.69-1.32,1,1,0,0,0,0-.3v0a1.7,1.7,0,0,0-1.73-1.66h-1.74v1.69A1.66,1.66,0,0,0,497.08,19.17Z" fill="#47a848"/></g><g clip-path="url(#b)"><path d="M273,19.16h-6.49a1.64,1.64,0,0,1-.22-3.28.78.78,0,0,1,.22,0h2.34l-2.8-2.68H261.3c.07-.13-.05-.26,0-.4v-.15a4.05,4.05,0,0,0,0-1.1,4.13,4.13,0,0,0,0-1.11v-.14c-.05-.14.07-.27,0-.4h5.48a1.1,1.1,0,0,1,.44.07.86.86,0,0,1,.23.06,1.67,1.67,0,0,1,.55.35l5.75,5.5h5.06l2.95,2.82a1.73,1.73,0,0,0,1.22.48Z" fill="#007455"/><path d="M414.25,19.17h17.48a1.77,1.77,0,0,1-1.22-.48,1.62,1.62,0,0,1,0-2.33l.51-.49H415l.51.49a1.55,1.55,0,0,1,.51,1.16,1.57,1.57,0,0,1-.51,1.17A1.7,1.7,0,0,1,414.25,19.17Z" fill="#448a31"/><path d="M401.74,19.17h12.51a1.71,1.71,0,0,1-1.22-.48l-2.95-2.82h-7.63l.51.49a1.61,1.61,0,0,1,.49,1.16,1.63,1.63,0,0,1-.49,1.17A1.75,1.75,0,0,1,401.74,19.17Z" fill="#00799b"/><path d="M397.8,19.17h3.94a1.72,1.72,0,0,1-1.23-.48l-2.93-2.8a1.64,1.64,0,0,0,.22,3.28Z" fill="#00799b"/><path d="M348.61,19.17h17.48a1.75,1.75,0,0,1-1.22-.48,1.62,1.62,0,0,1,0-2.33l.51-.49H349.32l.51.49a1.55,1.55,0,0,1,.51,1.16,1.57,1.57,0,0,1-.51,1.17A1.7,1.7,0,0,1,348.61,19.17Z" fill="#448a31"/><path d="M336.09,19.17h12.52a1.75,1.75,0,0,1-1.22-.48l-2.95-2.82H336.8l.51.49a1.59,1.59,0,0,1,.51,1.16,1.61,1.61,0,0,1-.51,1.17A1.7,1.7,0,0,1,336.09,19.17Z" fill="#f15f35"/><path d="M332.16,19.17h3.93a1.73,1.73,0,0,1-1.22-.48L332,15.89a1.64,1.64,0,0,0,.21,3.28Z" fill="#f15f35"/><path d="M366.09,19.17a1.3,1.3,0,0,0,.44-.06.88.88,0,0,0,.23-.07,1.57,1.57,0,0,0,.55-.35,1.59,1.59,0,0,0,.51-1.17,1.69,1.69,0,0,0-1.73-1.65h-.71l-.51.49a1.62,1.62,0,0,0,0,2.33A1.75,1.75,0,0,0,366.09,19.17Z" fill="#47a848"/><path d="M431.73,19.17a1.61,1.61,0,0,0,.44-.06.88.88,0,0,0,.23-.07,1.57,1.57,0,0,0,.55-.35,1.62,1.62,0,0,0,.51-1.17,1.69,1.69,0,0,0-1.73-1.65H431l-.51.49a1.62,1.62,0,0,0,0,2.33A1.77,1.77,0,0,0,431.73,19.17Z" fill="#47a848"/><path d="M366.76,19a.88.88,0,0,1-.23.07A.68.68,0,0,0,366.76,19Z" fill="#448a31"/><path d="M432.4,19a.88.88,0,0,1-.23.07A.68.68,0,0,0,432.4,19Z" fill="#448a31"/><path d="M299.24,18.69a1.77,1.77,0,0,0,2.44,0l4.71-4.51v-3.7a1.59,1.59,0,0,1,.51-1.16l-.15-.15-7.51,7.19A1.59,1.59,0,0,0,299.24,18.69Z" fill="#448a31"/><path d="M334.87,18.69a1.73,1.73,0,0,0,1.22.48,1.7,1.7,0,0,0,1.22-.48,1.61,1.61,0,0,0,.51-1.17,1.59,1.59,0,0,0-.51-1.16l-.51-.49h-4.64a.68.68,0,0,0-.21,0Z" fill="#f47a42"/><path d="M347.39,18.69a1.75,1.75,0,0,0,1.22.48,1.7,1.7,0,0,0,1.22-.48,1.57,1.57,0,0,0,.51-1.17,1.55,1.55,0,0,0-.51-1.16l-.51-.49h-4.88Z" fill="#47a848"/><path d="M366.76,19a1.47,1.47,0,0,0,.55-.35A1.57,1.57,0,0,1,366.76,19Z" fill="#448a31"/><path d="M400.51,18.69a1.72,1.72,0,0,0,1.23.48,1.75,1.75,0,0,0,1.22-.48,1.63,1.63,0,0,0,.49-1.17,1.61,1.61,0,0,0-.49-1.16l-.51-.49H397.8a.78.78,0,0,0-.22,0Z" fill="#008db1"/><path d="M413,18.69a1.79,1.79,0,0,0,2.44,0,1.57,1.57,0,0,0,.51-1.17,1.55,1.55,0,0,0-.51-1.16l-.51-.49h-4.88Z" fill="#47a848"/><path d="M432.4,19a1.47,1.47,0,0,0,.55-.35A1.57,1.57,0,0,1,432.4,19Z" fill="#448a31"/><path d="M367.31,18.69,372,14.17V10.48a1.59,1.59,0,0,1,.51-1.16l-.15-.15-7,6.7h.71a1.69,1.69,0,0,1,1.73,1.65A1.59,1.59,0,0,1,367.31,18.69Z" fill="#448a31"/><path d="M433,18.69l4.73-4.52V10.48a1.59,1.59,0,0,1,.51-1.16L438,9.17l-7,6.7h.71a1.69,1.69,0,0,1,1.73,1.65A1.62,1.62,0,0,1,433,18.69Z" fill="#448a31"/><path d="M386.21,16.29h2a2.24,2.24,0,0,0,1.56-.62l2.08-2,.19-.18.26-.26h-.91a1.65,1.65,0,1,1,0-3.3h.91L392,9.68l-.17-.17-2.07-2a2.28,2.28,0,0,0-1.56-.61h-2a2.27,2.27,0,0,0-1.54.61,1.89,1.89,0,0,0-.47.68,2,2,0,0,0,.18,1.93,2,2,0,0,0,0,2.93A2,2,0,0,0,384.2,15,2.17,2.17,0,0,0,386.21,16.29Z" fill="#ba5080"/><path d="M397.58,15.89a.78.78,0,0,1,.22,0h4.65l-5.68-5.43h0a1.59,1.59,0,0,1,.5,1.16,1.68,1.68,0,0,1-1.72,1.65h-.72Z" fill="#00799b"/><path d="M332,15.89a.68.68,0,0,1,.21,0h4.64l-5.68-5.43a1.59,1.59,0,0,1,.5,1.16,1.68,1.68,0,0,1-1.72,1.65h-.72Z" fill="#f15f35"/><path d="M410.08,15.87H415l-6.65-6.36v.4a1.69,1.69,0,0,1-1.73,1.65,1.82,1.82,0,0,1-1.22-.48l-.14.14Z" fill="#448a31"/><path d="M344.44,15.87h4.88l-6.65-6.36v.4A1.69,1.69,0,0,1,341,11.56a1.77,1.77,0,0,1-1.22-.48l-.15.14Z" fill="#448a31"/><path d="M306.39,15.41a1.73,1.73,0,0,0,3.46,0V10.88l-3.46,3.3Z" fill="#448a31"/><path d="M372,15.41a1.73,1.73,0,0,0,3.46,0V10.87L372,14.17Z" fill="#448a31"/><path d="M437.68,15.41a1.73,1.73,0,0,0,3.46,0V10.87l-3.46,3.3Z" fill="#448a31"/><path d="M318,15.63h4.37a4,4,0,0,0,3.85-2.38H325a1.65,1.65,0,1,1,0-3.3h1.18a3.61,3.61,0,0,0-1.32-1.63,4.39,4.39,0,0,0-2.53-.74H318a1.28,1.28,0,0,0-1.3,1.24v5.57A1.28,1.28,0,0,0,318,15.63Z" fill="#df1832"/><path d="M306.39,14.18l3.46-3.3v-.4a1.69,1.69,0,0,0-1.73-1.65,1.79,1.79,0,0,0-1.22.49,1.59,1.59,0,0,0-.51,1.16Z" fill="#47a848"/><path d="M372,14.17l3.46-3.3v-.39a1.7,1.7,0,0,0-1.73-1.65,1.75,1.75,0,0,0-1.22.49,1.59,1.59,0,0,0-.51,1.16Z" fill="#47a848"/><path d="M437.68,14.17l3.46-3.3v-.39a1.7,1.7,0,0,0-1.73-1.65,1.77,1.77,0,0,0-1.22.49,1.59,1.59,0,0,0-.51,1.16Z" fill="#47a848"/><path d="M353,13.56h1.42A2.27,2.27,0,0,0,356,13l2.17-2.08.48-.44H358a1.65,1.65,0,1,1,0-3.3h.58l-.46-.43L356,4.61A2.27,2.27,0,0,0,354.45,4H353a2.25,2.25,0,0,0-1.54.61L350.08,6a2,2,0,0,0-.64,1.48A2,2,0,0,0,350,8.78a2,2,0,0,0,.12,2.82L351.49,13A2.25,2.25,0,0,0,353,13.56Z" fill="#00799b"/><path d="M394.82,13.25h.72a1.68,1.68,0,0,0,1.72-1.65,1.59,1.59,0,0,0-.5-1.16,1.36,1.36,0,0,0-.56-.35A.62.62,0,0,0,396,10a1.21,1.21,0,0,0-.43-.07,1.71,1.71,0,0,0-1.22.49,1.6,1.6,0,0,0,0,2.33Z" fill="#008db1"/><path d="M392.29,13.25h2.53l-.5-.48a1.6,1.6,0,0,1,0-2.33,1.71,1.71,0,0,1,1.22-.49h-3.25l.18.18a2,2,0,0,1,0,2.95Z" fill="#00799b"/><path d="M391.38,13.25h.91l.18-.17a2,2,0,0,0,0-2.95l-.18-.18h-.91a1.65,1.65,0,1,0,0,3.3Z" fill="#7c78a1"/><path d="M329.18,13.25h.72a1.68,1.68,0,0,0,1.72-1.65,1.59,1.59,0,0,0-.5-1.16,1.36,1.36,0,0,0-.56-.35.56.56,0,0,0-.23-.07,1.21,1.21,0,0,0-.43-.07,1.74,1.74,0,0,0-1.22.49,1.6,1.6,0,0,0,0,2.33Z" fill="#f47a42"/><path d="M326.2,13.25h3l-.5-.48a1.6,1.6,0,0,1,0-2.33A1.74,1.74,0,0,1,329.9,10h-3.7a2.56,2.56,0,0,1,.16.4v.06l0,.08h0a4.47,4.47,0,0,1,.17,1.11,4.13,4.13,0,0,1-.17,1.1h0l0,.1v.06A2.14,2.14,0,0,1,326.2,13.25Z" fill="#f15f35"/><path d="M325,13.25h1.18a2.14,2.14,0,0,0,.16-.39V12.8l0-.1h0a4.13,4.13,0,0,0,.17-1.1,4.47,4.47,0,0,0-.17-1.11h0l0-.08v-.06a2.56,2.56,0,0,0-.16-.4H325a1.65,1.65,0,1,0,0,3.3Z" fill="#f3775f"/><path d="M287.13,12.06a1.73,1.73,0,0,0,3.45,0V10.43h-3.45Z" fill="#007455"/><path d="M339.73,11.08a1.77,1.77,0,0,0,1.22.48,1.69,1.69,0,0,0,1.72-1.65v-.4L339.22,6.2V9.91A1.62,1.62,0,0,0,339.73,11.08Z" fill="#369672"/><path d="M405.36,11.08a1.82,1.82,0,0,0,1.22.48,1.69,1.69,0,0,0,1.73-1.65v-.4L404.86,6.2V9.91A1.62,1.62,0,0,0,405.36,11.08Z" fill="#369672"/><path d="M405.22,11.22l.14-.14a1.62,1.62,0,0,1-.5-1.17V6.2l-4.72-4.51a1.64,1.64,0,0,1,.51,1.17,1.7,1.7,0,0,1-1.73,1.65h-.71Z" fill="#448a31"/><path d="M339.58,11.22l.15-.14a1.62,1.62,0,0,1-.51-1.17V6.2L334.5,1.69A1.64,1.64,0,0,1,335,2.86a1.7,1.7,0,0,1-1.73,1.65h-.71Z" fill="#448a31"/><path d="M309.85,10.88l6.66-6.37h-4.88l-4.88,4.66.15.15a1.79,1.79,0,0,1,1.22-.49,1.69,1.69,0,0,1,1.73,1.65Z" fill="#448a31"/><path d="M375.5,10.87l6.65-6.36h-4.88L372.4,9.17l.15.15a1.75,1.75,0,0,1,1.22-.49,1.7,1.7,0,0,1,1.73,1.65Z" fill="#448a31"/><path d="M441.14,10.87l6.65-6.36h-4.88L438,9.17l.15.15a1.77,1.77,0,0,1,1.22-.49,1.7,1.7,0,0,1,1.73,1.65Z" fill="#448a31"/><path d="M417.7,10.44h4a1.65,1.65,0,1,1,0-3.3h1.74a2.61,2.61,0,0,0-.22-.27l-3-2.85a2.25,2.25,0,0,0-1.55-.61h-4a2.15,2.15,0,0,0-2,1.3A2,2,0,0,0,413.18,7l3,2.86A2.23,2.23,0,0,0,417.7,10.44Z" fill="#007455"/><path d="M421.86,10.43h6.5a1.77,1.77,0,0,1-1.22-.49,1.59,1.59,0,0,1,0-2.33l.51-.48h-4.19a2,2,0,0,1,.25,2A2.15,2.15,0,0,1,421.86,10.43Z" fill="#f15f35"/><path d="M421.72,10.43h.14a2.15,2.15,0,0,0,1.85-1.29,2,2,0,0,0-.25-2h-1.74a1.65,1.65,0,1,0,0,3.3Z" fill="#369672"/><path d="M358.64,10.43h4.08a1.77,1.77,0,0,1-1.22-.49,1.59,1.59,0,0,1,0-2.33l.51-.48h-3.39l.19.17a2.1,2.1,0,0,1,.63,1.48,2.07,2.07,0,0,1-.63,1.48Z" fill="#f15f35"/><path d="M358,10.43h.6l.17-.17a2.07,2.07,0,0,0,.63-1.48,2.1,2.1,0,0,0-.63-1.48l-.19-.17H358a1.65,1.65,0,1,0,0,3.3Z" fill="#008db1"/><path d="M290.58,10.43h6.5a1.77,1.77,0,0,1-1.22-.49,1.59,1.59,0,0,1,0-2.33l.51-.48h-5.79Z" fill="#007455"/><rect x="287.13" y="7.13" width="3.45" height="3.3" fill="#369672"/><path d="M285,10.43h2.1V7.13H285a1.65,1.65,0,1,0,0,3.3Z" fill="#007455"/><path d="M297.08,10.43a1.77,1.77,0,0,0,1.22-.49,1.6,1.6,0,0,0,.51-1.16,1.68,1.68,0,0,0-1.73-1.65h-.71l-.51.48a1.59,1.59,0,0,0,0,2.33A1.77,1.77,0,0,0,297.08,10.43Z" fill="#369672"/><path d="M362.72,10.43a1.79,1.79,0,0,0,1.22-.49,1.6,1.6,0,0,0,.51-1.16,1.68,1.68,0,0,0-1.73-1.65H362l-.51.48a1.59,1.59,0,0,0,0,2.33A1.77,1.77,0,0,0,362.72,10.43Z" fill="#f47a42"/><path d="M428.36,10.43a1.77,1.77,0,0,0,1.22-.49,1.6,1.6,0,0,0,.51-1.16,1.68,1.68,0,0,0-1.73-1.65h-.71l-.51.48a1.59,1.59,0,0,0,0,2.33A1.77,1.77,0,0,0,428.36,10.43Z" fill="#f47a42"/><path d="M330.56,10.09a1.36,1.36,0,0,1,.56.35A1.29,1.29,0,0,0,330.56,10.09Z" fill="#448a31"/><path d="M396.2,10.09a1.36,1.36,0,0,1,.56.35A1.35,1.35,0,0,0,396.2,10.09Z" fill="#448a31"/><path d="M330.33,10a.56.56,0,0,1,.23.07A.51.51,0,0,0,330.33,10Z" fill="#448a31"/><path d="M396,10a.62.62,0,0,1,.23.07A.48.48,0,0,0,396,10Z" fill="#448a31"/><path d="M298.3,9.94,304,4.51h-4.65a.75.75,0,0,1-.21,0l-2.76,2.64h.71a1.68,1.68,0,0,1,1.73,1.65A1.6,1.6,0,0,1,298.3,9.94Z" fill="#007455"/><path d="M363.94,9.94l5.69-5.43H365a.75.75,0,0,1-.21,0L362,7.13h.71a1.68,1.68,0,0,1,1.73,1.65A1.6,1.6,0,0,1,363.94,9.94Z" fill="#f15f35"/><path d="M429.58,9.94l5.69-5.43h-4.65a.75.75,0,0,1-.21,0l-2.76,2.64h.71a1.68,1.68,0,0,1,1.73,1.65A1.6,1.6,0,0,1,429.58,9.94Z" fill="#f15f35"/><path d="M342.67,9.51V5a1.73,1.73,0,0,0-3.45,0V6.2Z" fill="#007455"/><path d="M408.31,9.51V5a1.73,1.73,0,0,0-3.45,0V6.2Z" fill="#007455"/><path d="M287.13,7.13h3.45V5.51a1.73,1.73,0,0,0-3.45,0Z" fill="#007455"/><path d="M463.78,4.51h.78a1.7,1.7,0,0,0,1.73-1.65A1.49,1.49,0,0,0,466,2l-.3-.29a1.81,1.81,0,0,0-2.44,0,1.6,1.6,0,0,0,0,2.34Z" fill="#47a848"/><path d="M447.79,4.51h16L463.27,4a1.6,1.6,0,0,1,0-2.34,1.81,1.81,0,0,1,2.44,0L466,2a1.73,1.73,0,0,0-1.45-.77H447.08a1.77,1.77,0,0,1,1.22.47,1.66,1.66,0,0,1,.5,1.17A1.62,1.62,0,0,1,448.3,4Z" fill="#448a31"/><path d="M442.91,4.51h4.88L448.3,4a1.62,1.62,0,0,0,.5-1.17,1.66,1.66,0,0,0-.5-1.17,1.82,1.82,0,0,0-2.44,0Z" fill="#47a848"/><path d="M435.27,4.51h7.64l2.95-2.82a1.75,1.75,0,0,1,1.22-.47H434.55a1.73,1.73,0,0,1,1.22.47,1.63,1.63,0,0,1,.51,1.17A1.59,1.59,0,0,1,435.77,4Z" fill="#df1832"/><path d="M430.62,4.51h4.65l.5-.48a1.59,1.59,0,0,0,.51-1.17,1.63,1.63,0,0,0-.51-1.17,1.73,1.73,0,0,0-1.22-.47,1.78,1.78,0,0,0-1.22.47l-2.92,2.8A.75.75,0,0,0,430.62,4.51Z" fill="#f3775f"/><path d="M398.21,4.51h.71a1.7,1.7,0,0,0,1.73-1.65,1.64,1.64,0,0,0-.51-1.17,1.36,1.36,0,0,0-.36-.25.88.88,0,0,0-.22-.1,1.79,1.79,0,0,0-1.86.35,1.6,1.6,0,0,0,0,2.34Z" fill="#47a848"/><path d="M382.15,4.51h16.06L397.7,4a1.6,1.6,0,0,1,0-2.34,1.79,1.79,0,0,1,1.86-.35,1.5,1.5,0,0,0-.64-.13H381.44a1.8,1.8,0,0,1,1.22.47,1.66,1.66,0,0,1,.5,1.17,1.62,1.62,0,0,1-.5,1.17Z" fill="#448a31"/><path d="M377.27,4.51h4.88l.51-.48a1.62,1.62,0,0,0,.5-1.17,1.66,1.66,0,0,0-.5-1.17,1.8,1.8,0,0,0-1.22-.47,1.73,1.73,0,0,0-1.22.47Z" fill="#47a848"/><path d="M369.63,4.51h7.64l3-2.82a1.73,1.73,0,0,1,1.22-.47H368.91a1.77,1.77,0,0,1,1.22.47,1.63,1.63,0,0,1,.51,1.17A1.59,1.59,0,0,1,370.13,4Z" fill="#df1832"/><path d="M365,4.51h4.65l.5-.48a1.59,1.59,0,0,0,.51-1.17,1.63,1.63,0,0,0-.51-1.17,1.82,1.82,0,0,0-2.44,0l-2.92,2.8A.75.75,0,0,0,365,4.51Z" fill="#f3775f"/><path d="M332.57,4.51h.71A1.7,1.7,0,0,0,335,2.86a1.64,1.64,0,0,0-.51-1.17,1.54,1.54,0,0,0-.36-.25.81.81,0,0,0-.21-.1,1.81,1.81,0,0,0-1.87.35,1.6,1.6,0,0,0,0,2.34Z" fill="#47a848"/><path d="M316.51,4.51h16.06L332.06,4a1.6,1.6,0,0,1,0-2.34,1.81,1.81,0,0,1,1.87-.35,1.57,1.57,0,0,0-.65-.13H315.8a1.77,1.77,0,0,1,1.22.47,1.66,1.66,0,0,1,.5,1.17A1.62,1.62,0,0,1,317,4Z" fill="#448a31"/><path d="M311.63,4.51h4.88L317,4a1.62,1.62,0,0,0,.5-1.17,1.66,1.66,0,0,0-.5-1.17,1.77,1.77,0,0,0-1.22-.47,1.73,1.73,0,0,0-1.22.47Z" fill="#47a848"/><path d="M304,4.51h7.64l2.95-2.82a1.73,1.73,0,0,1,1.22-.47H303.28a1.78,1.78,0,0,1,1.22.47,1.66,1.66,0,0,1,.5,1.17A1.62,1.62,0,0,1,304.5,4Z" fill="#448a31"/><path d="M299.34,4.51H304L304.5,4a1.62,1.62,0,0,0,.5-1.17,1.66,1.66,0,0,0-.5-1.17,1.78,1.78,0,0,0-1.22-.47,1.73,1.73,0,0,0-1.22.47l-2.93,2.8A.75.75,0,0,0,299.34,4.51Z" fill="#369672"/><path d="M299.13,4.49l2.93-2.8a1.73,1.73,0,0,1,1.22-.47h-3.94a1.69,1.69,0,0,0-1.73,1.65A1.66,1.66,0,0,0,299.13,4.49Z" fill="#448a31"/><path d="M364.77,4.49l2.92-2.8a1.77,1.77,0,0,1,1.22-.47H365a1.69,1.69,0,0,0-1.73,1.65A1.66,1.66,0,0,0,364.77,4.49Z" fill="#df1832"/><path d="M430.41,4.49l2.92-2.8a1.78,1.78,0,0,1,1.22-.47h-3.93a1.69,1.69,0,0,0-1.73,1.65A1.66,1.66,0,0,0,430.41,4.49Z" fill="#df1832"/><path d="M333.93,1.34a.81.81,0,0,1,.21.1A.81.81,0,0,0,333.93,1.34Z" fill="#448a31"/><path d="M399.56,1.34a.88.88,0,0,1,.22.1A.62.62,0,0,0,399.56,1.34Z" fill="#448a31"/><path d="M283,19.16h17.48a1.71,1.71,0,0,1-1.22-.48,1.6,1.6,0,0,1,0-2.33l.5-.49H283.69l.51.49a1.56,1.56,0,0,1,.5,1.16,1.6,1.6,0,0,1-.5,1.17A1.73,1.73,0,0,1,283,19.16Z" fill="#448a31"/><path d="M300.46,19.16a1.3,1.3,0,0,0,.44-.06l.23-.07a1.67,1.67,0,0,0,.55-.35,1.62,1.62,0,0,0,.5-1.17,1.69,1.69,0,0,0-1.72-1.65h-.72l-.5.49a1.6,1.6,0,0,0,0,2.33A1.71,1.71,0,0,0,300.46,19.16Z" fill="#47a848"/><path d="M276,9.05V4a1.73,1.73,0,0,0-3.45,0V5.74Z" fill="#007455"/><path d="M280,13v-5a1.73,1.73,0,0,0-3.46,0V9.64Z" fill="#007455"/><path d="M271.8,18.68a1.75,1.75,0,0,0,1.22.48,1.7,1.7,0,0,0,1.22-.48,1.57,1.57,0,0,0,.51-1.17,1.54,1.54,0,0,0-.51-1.16l-.51-.49H269.1a.78.78,0,0,0-.22,0Z" fill="#369672"/><path d="M283,19.16a1.73,1.73,0,0,0,1.22-.48,1.6,1.6,0,0,0,.5-1.17,1.56,1.56,0,0,0-.5-1.16l-.2-.19-.31-.3L276,8.55l-3.45-3.31L271,3.76a1.45,1.45,0,0,0-.36-.25.62.62,0,0,0-.22-.1,1.79,1.79,0,0,0-1-.07h-4.72A1.69,1.69,0,0,0,263,5a1.69,1.69,0,0,0,1.73,1.65h4.48l9.64,9.22.31.3,2.64,2.52A1.73,1.73,0,0,0,283,19.16Z" fill="#448a31"/><path d="M281.76,18.68a1.79,1.79,0,0,0,2.44,0,1.6,1.6,0,0,0,.5-1.17,1.56,1.56,0,0,0-.5-1.16l-.51-.49h-4.88Z" fill="#369672"/><path d="M273.1,10.12a1.77,1.77,0,0,0,1.22.48A1.69,1.69,0,0,0,276,9v-.4l-3.45-3.31V9A1.62,1.62,0,0,0,273.1,10.12Z" fill="#369672"/><path d="M277,13.9a1.75,1.75,0,0,0,1.22.49A1.69,1.69,0,0,0,280,12.74v-.4L276.53,9v3.71A1.59,1.59,0,0,0,277,13.9Z" fill="#369672"/><path d="M269.13,6.63h.78A1.69,1.69,0,0,0,271.64,5a1.42,1.42,0,0,0-.28-.88l-.3-.29a1.81,1.81,0,0,0-2.44,0,1.6,1.6,0,0,0,0,2.34Z" fill="#47a848"/><path d="M254.86,11.52v.06h-.48l0-.06-.9-.85a1.21,1.21,0,0,0-.3-.21,1.29,1.29,0,0,0-1.49.21l-.08.08-.09-.08a1.32,1.32,0,0,1-.33-.86,1.29,1.29,0,0,1,.41-1l.9-.85a1.37,1.37,0,0,1,1-.39h1.39a1.27,1.27,0,0,1,.32-.47l.9-.86a1.44,1.44,0,0,1,2,0l4.49,4.29-.08.09a1.3,1.3,0,0,0-.9-.36l-.23,0-.24.07a.91.91,0,0,0-.22.11.89.89,0,0,0-.21.16l-1,.91h-.47v-.06" fill="#df1832"/><path d="M259.19,11.52h.47l1,.85a1,1,0,0,0,.2.15l.22.12.23.06.25,0a1.3,1.3,0,0,0,.9-.36l.08.09L258,16.76a1.44,1.44,0,0,1-2,0l-.9-.86a1.27,1.27,0,0,1-.32-.47h-1.39a1.41,1.41,0,0,1-1-.39l-.9-.86a1.26,1.26,0,0,1-.41-.94,1.3,1.3,0,0,1,.33-.86l0,0,0,0-.06-.08a.41.41,0,0,1-.05-.09l0,0a1,1,0,0,0,0-.1l0-.09,0-.05,0-.1a.34.34,0,0,0,0-.1v0s0-.07,0-.11,0-.06,0-.1v0a.38.38,0,0,0,0-.1l0-.1,0,0,0-.09,0-.1,0,0a.41.41,0,0,1,.05-.09l.06-.08,0-.05.09-.1a1.41,1.41,0,0,1,1.64-.22,1.45,1.45,0,0,1,.33.22l.95.95h.39" fill="#930145"/><path d="M250.92,11.53a1.41,1.41,0,0,0,.44,1,1.55,1.55,0,0,0,2.12,0l1-1,0,0h0l0,0-1-1a1.56,1.56,0,0,0-2.12,0l0,.05a1.41,1.41,0,0,0-.4,1" fill="#e85859"/><ellipse cx="261.18" cy="11.52" rx="1.73" ry="1.65" fill="#e85859"/><path d="M255.09,11.52a5.55,5.55,0,0,0,.89,3,1.55,1.55,0,0,0,2.35.22l0,0a1.4,1.4,0,0,0,.23-1.77,2.79,2.79,0,0,1,0-2.91,1.42,1.42,0,0,0-.23-1.78h0A1.55,1.55,0,0,0,256,8.5,5.54,5.54,0,0,0,255.09,11.52Z" fill="#e85859"/><path d="M268,10.32a1.74,1.74,0,0,0-1.22-.48,1.78,1.78,0,0,0-1.22.48,1.6,1.6,0,0,0,0,2.33l.51.49h.71a1.68,1.68,0,0,0,1.73-1.65A1.6,1.6,0,0,0,268,10.32Z" fill="#369672"/></g><g clip-path="url(#c)"><path d="M316.68,14.39V8.82A1.28,1.28,0,0,1,318,7.58h4.36a4.37,4.37,0,0,1,2.53.74A3.63,3.63,0,0,1,326.2,10a4.16,4.16,0,0,1,.16.4v.06l0,.08h0a4,4,0,0,1,.17,1.11,3.77,3.77,0,0,1-.17,1.1h0l0,.1v.06a3.2,3.2,0,0,1-.16.39,4,4,0,0,1-3.86,2.38H318A1.28,1.28,0,0,1,316.68,14.39Z" fill="#df1832"/><path d="M287.12,10.43H285V7.13h11.33l3.07-2.94a.51.51,0,0,0,.21,0h4.65l-6,5.72a1.8,1.8,0,0,1-1.22.49h-10Z" fill="#007455"/><path d="M330.43,17.52a1.68,1.68,0,0,1,1.51-1.63l-2.76-2.64h-3.47a2.14,2.14,0,0,0,.16-.39V12.8l0-.1h0a4.13,4.13,0,0,0,.17-1.1,4.47,4.47,0,0,0-.17-1.11h0l0-.08v-.06a2.56,2.56,0,0,0-.16-.4h4.18a1.31,1.31,0,0,1,.44.07.62.62,0,0,1,.23.07,1.33,1.33,0,0,1,.55.35l5.69,5.43h8.36l2.94,2.82a1.75,1.75,0,0,0,1.22.48H332.16A1.68,1.68,0,0,1,330.43,17.52Z" fill="#f15f35"/><path d="M364.77,4.49a1.65,1.65,0,0,1-1.52-1.63A1.69,1.69,0,0,1,365,1.21h16.48v.14a1,1,0,0,0-.59.12,1.45,1.45,0,0,0-.36.22l-2.95,2.82H365A.65.65,0,0,1,364.77,4.49Z" fill="#df1832"/><path d="M396.09,17.78a1.66,1.66,0,0,1,1.49-1.89l-2.76-2.64h-3l.18-.17a2,2,0,0,0,0-2.95l-.18-.18h3.74A1.31,1.31,0,0,1,396,10a.62.62,0,0,1,.23.07,1.4,1.4,0,0,1,.55.35h0l5.69,5.43h7.63L413,18.69a1.75,1.75,0,0,0,1.22.48H397.89A1.77,1.77,0,0,1,396.09,17.78Z" fill="#00799b"/><path d="M421.42,10.43a2.16,2.16,0,0,0,1.85-1.29,2,2,0,0,0-.25-2h4.62l2.76-2.64h0l2.93-2.8a1.82,1.82,0,0,1,2.44,0,1.66,1.66,0,0,1,.5,1.17,1.62,1.62,0,0,1-.5,1.17l-.36.34-.15.14-5.85,5.59.08-.09a1.8,1.8,0,0,1-1.13.42Z" fill="#f15f35"/><path d="M470,19.16h-6.49a1.64,1.64,0,0,1-.22-3.28.78.78,0,0,1,.22,0h2.33L464,14.18h-4.77c.07-.13-.05-.26,0-.4v-.15a4.05,4.05,0,0,0,0-1.1,4.13,4.13,0,0,0,0-1.11v-.14c-.05-.14.07-.27,0-.4h5.48a1.1,1.1,0,0,1,.44.07.86.86,0,0,1,.23.06,1.57,1.57,0,0,1,.55.35l4.71,4.5h5.07l2.95,2.82a1.73,1.73,0,0,0,1.22.48Z" fill="#007455"/><path d="M480.62,15.86l.51.49a1.56,1.56,0,0,1,.5,1.16,1.6,1.6,0,0,1-.5,1.17,1.71,1.71,0,0,1-1.22.48" fill="#448a31"/><path d="M474,10V5a1.73,1.73,0,0,0-3.45,0V6.68Z" fill="#007455"/><path d="M468.73,18.68a1.77,1.77,0,0,0,1.22.48,1.7,1.7,0,0,0,1.22-.48,1.57,1.57,0,0,0,.51-1.17,1.54,1.54,0,0,0-.51-1.16l-.5-.49H466a.78.78,0,0,0-.22,0Z" fill="#369672"/><path d="M366.76,19a.88.88,0,0,1-.23.07A.68.68,0,0,0,366.76,19Z" fill="#448a31"/><path d="M432.4,19a.88.88,0,0,1-.23.07A.75.75,0,0,0,432.4,19Z" fill="#448a31"/><path d="M334.86,18.69a1.77,1.77,0,0,0,1.22.48,1.7,1.7,0,0,0,1.22-.48,1.57,1.57,0,0,0,.51-1.17,1.55,1.55,0,0,0-.51-1.16l-.5-.49h-4.64a.78.78,0,0,0-.22,0Z" fill="#f47a42"/><path d="M366.76,19a1.56,1.56,0,0,0,.55-.35A1.67,1.67,0,0,1,366.76,19Z" fill="#448a31"/><path d="M400.5,18.69a1.8,1.8,0,0,0,2.45,0,1.6,1.6,0,0,0,.5-1.17,1.58,1.58,0,0,0-.5-1.16l-.5-.49H397.8a.78.78,0,0,0-.22,0Z" fill="#008db1"/><path d="M432.4,19a1.56,1.56,0,0,0,.55-.35A1.67,1.67,0,0,1,432.4,19Z" fill="#448a31"/><path d="M394.82,13.25h.71a1.68,1.68,0,0,0,1.73-1.65,1.6,1.6,0,0,0-.51-1.16,1.4,1.4,0,0,0-.55-.35A.62.62,0,0,0,396,10a1.31,1.31,0,0,0-.44-.07,1.71,1.71,0,0,0-1.22.49,1.6,1.6,0,0,0,0,2.33Z" fill="#008db1"/><path d="M329.18,13.25h.71a1.68,1.68,0,0,0,1.73-1.65,1.6,1.6,0,0,0-.51-1.16,1.33,1.33,0,0,0-.55-.35.62.62,0,0,0-.23-.07,1.31,1.31,0,0,0-.44-.07,1.76,1.76,0,0,0-1.22.49,1.6,1.6,0,0,0,0,2.33Z" fill="#f47a42"/><path d="M325,13.25h1.19a3.2,3.2,0,0,0,.16-.39V12.8l0-.1h0a3.77,3.77,0,0,0,.17-1.1,4,4,0,0,0-.17-1.11h0l0-.08v-.06a4.16,4.16,0,0,0-.16-.4H325a1.65,1.65,0,1,0,0,3.3Z" fill="#f3775f"/><path d="M416.16,9.82l-3-2.86a2,2,0,0,1-.47-2.26,2.16,2.16,0,0,1,2-1.3h4a2.21,2.21,0,0,1,1.54.61l3,2.85a2.61,2.61,0,0,1,.22.27,2,2,0,0,1,.26,2,2.18,2.18,0,0,1-1.86,1.29H417.7A2.2,2.2,0,0,1,416.16,9.82Z" fill="#007455"/><path d="M297.08,10.43a1.8,1.8,0,0,0,1.22-.49,1.59,1.59,0,0,0,.5-1.16,1.68,1.68,0,0,0-1.72-1.65h-.72l-.5.48a1.59,1.59,0,0,0,0,2.33A1.75,1.75,0,0,0,297.08,10.43Z" fill="#369672"/><path d="M330.56,10.09a1.33,1.33,0,0,1,.55.35A1.32,1.32,0,0,0,330.56,10.09Z" fill="#448a31"/><path d="M396.2,10.09a1.4,1.4,0,0,1,.55.35A1.32,1.32,0,0,0,396.2,10.09Z" fill="#448a31"/><path d="M330.33,10a.62.62,0,0,1,.23.07A.51.51,0,0,0,330.33,10Z" fill="#448a31"/><path d="M396,10a.62.62,0,0,1,.23.07A.48.48,0,0,0,396,10Z" fill="#448a31"/><path d="M358.21,10.26a2.07,2.07,0,0,0,.63-1.48,2.1,2.1,0,0,0-.63-1.48L358,7.13h4L365.23,4a.75.75,0,0,0,.21,0h4.65l-6.15,5.88a1.82,1.82,0,0,1-1.22.49H358Z" fill="#f15f35"/><path d="M342.67,10V5a1.73,1.73,0,0,0-3.46,0V6.72Z" fill="#007455"/><path d="M408.31,9.51V5a1.73,1.73,0,0,0-3.46,0V6.2Z" fill="#007455"/><path d="M435.26,4.51h8.05l2.95-2.82c.12-.11.51,0,.6-.07a1.21,1.21,0,0,0,.29-.4h-12.6a1.75,1.75,0,0,1,1.22.47,1.66,1.66,0,0,1,.5,1.17,1.62,1.62,0,0,1-.5,1.17Z" fill="#df1832"/><path d="M365,4.51h4.65l.51-.48a1.62,1.62,0,0,0,.5-1.17,1.66,1.66,0,0,0-.5-1.17,1.78,1.78,0,0,0-1.22-.47,1.73,1.73,0,0,0-1.22.47l-2.92,2.8A.65.65,0,0,0,365,4.51Z" fill="#f3775f"/><path d="M430.4,4.49l2.93-2.8a1.75,1.75,0,0,1,1.22-.47h-3.94a1.7,1.7,0,0,0-1.73,1.65A1.66,1.66,0,0,0,430.4,4.49Z" fill="#df1832"/><path d="M333.92,1.34a.88.88,0,0,1,.22.1A.88.88,0,0,0,333.92,1.34Z" fill="#448a31"/><path d="M399.56,1.34a.88.88,0,0,1,.22.1A.62.62,0,0,0,399.56,1.34Z" fill="#448a31"/><path d="M265.45,17.51A1.68,1.68,0,0,1,267,15.88a.78.78,0,0,1,.22,0h12.28l3,2.82a1.73,1.73,0,0,0,1.22.48H267.18A1.7,1.7,0,0,1,265.45,17.51Z" fill="#007455"/><path d="M344.44,15.87l-4.87-4.65-7-6.71H316.51l-6.67,6.37v4.53a1.73,1.73,0,0,1-3.45,0V14.18l-4.72,4.51a1.75,1.75,0,0,1-1.37.47H283a1.75,1.75,0,0,1-1.22-.48l-2.95-2.82-4.87-4.65.15-.14a1.8,1.8,0,0,0,1.22.48A1.69,1.69,0,0,0,277,9.9V9.5l6.65,6.36h16.07l7-6.69,4.88-4.66h-12.3a.68.68,0,0,1-.2,0,1.65,1.65,0,0,1-1.52-1.63,1.69,1.69,0,0,1,1.72-1.65h33.94a1.54,1.54,0,0,1,.65.13.88.88,0,0,1,.22.1,1.72,1.72,0,0,1,.35.25l4.72,4.51,3.46,3.31,6.65,6.36h16.06l7-6.7,4.86-4.66,2.95-2.82a1.73,1.73,0,0,1,1.22-.47h17.48a1.57,1.57,0,0,1,.65.13.88.88,0,0,1,.22.1,1.3,1.3,0,0,1,.35.25l4.72,4.51,3.46,3.31L415,15.87H431l7-6.7,4.87-4.66,3-2.82a1.75,1.75,0,0,1,1.22-.47h17.51a2,2,0,0,1,.34,0,1.79,1.79,0,0,1,.9.45l.3.29.1.12,4.3,4.09L474,9.5l6.65,6.36.51.49a1.56,1.56,0,0,1,.5,1.16,1.6,1.6,0,0,1-.5,1.17,1.79,1.79,0,0,1-2.44,0l-2.95-2.82-4.87-4.65-7-6.7h-16.1l-6.65,6.36v4.54a1.73,1.73,0,0,1-3.45,0V14.17L433,18.69a1.67,1.67,0,0,1-.55.35.88.88,0,0,1-.23.07,1.61,1.61,0,0,1-.44.06H414.24a1.75,1.75,0,0,1-1.22-.48l-2.94-2.82-4.87-4.65-7-6.71H382.14l-6.65,6.36v4.54a1.73,1.73,0,0,1-3.45,0V14.17l-4.73,4.52a1.67,1.67,0,0,1-.55.35.88.88,0,0,1-.23.07,1.3,1.3,0,0,1-.44.06H348.61a1.73,1.73,0,0,1-1.22-.48Z" fill="#448a31"/><path d="M421.71,10.43h.14a2.18,2.18,0,0,0,1.86-1.29,2,2,0,0,0-.26-2h-1.74a1.65,1.65,0,1,0,0,3.3Z" fill="#369672"/><path d="M428.36,10.43a1.8,1.8,0,0,0,1.22-.49,1.59,1.59,0,0,0,.5-1.16,1.68,1.68,0,0,0-1.72-1.65h-.72l-.5.48a1.59,1.59,0,0,0,0,2.33A1.77,1.77,0,0,0,428.36,10.43Z" fill="#f47a42"/><path d="M384.19,15a2,2,0,0,1,.19-1.93,2,2,0,0,1,0-2.93,2,2,0,0,1-.19-1.93,2,2,0,0,1,.48-.68,2.23,2.23,0,0,1,1.54-.61h2a2.24,2.24,0,0,1,1.55.61l2.07,2,.18.17.28.27.19.18a2,2,0,0,1,0,2.95l-.19.17-.26.26-.18.18-2.09,2a2.2,2.2,0,0,1-1.55.62h-2A2.19,2.19,0,0,1,384.19,15Z" fill="#ba5080"/><path d="M478.69,18.68a1.79,1.79,0,0,0,2.44,0,1.6,1.6,0,0,0,.5-1.17,1.56,1.56,0,0,0-.5-1.16l-.51-.49h-4.88Z" fill="#369672"/><path d="M471,11.07a1.79,1.79,0,0,0,1.22.48A1.69,1.69,0,0,0,474,9.9V9.5l-3.45-3.31V9.9A1.62,1.62,0,0,0,471,11.07Z" fill="#369672"/><path d="M463.88,4.51h.79a1.69,1.69,0,0,0,1.72-1.65,1.48,1.48,0,0,0-.27-.88l-.3-.29a1.81,1.81,0,0,0-2.44,0,1.6,1.6,0,0,0,0,2.34Z" fill="#47a848"/><path d="M431.73,19.17a1.61,1.61,0,0,0,.44-.06.88.88,0,0,0,.23-.07,1.67,1.67,0,0,0,.55-.35,1.62,1.62,0,0,0,.5-1.17,1.69,1.69,0,0,0-1.72-1.65H431l-.5.49a1.6,1.6,0,0,0,0,2.33A1.73,1.73,0,0,0,431.73,19.17Z" fill="#47a848"/><path d="M413,18.69a1.75,1.75,0,0,0,1.22.48,1.7,1.7,0,0,0,1.22-.48,1.57,1.57,0,0,0,.51-1.17,1.55,1.55,0,0,0-.51-1.16l-.5-.49h-4.88Z" fill="#47a848"/><path d="M437.68,14.17l3.45-3.3v-.39a1.7,1.7,0,0,0-1.73-1.65,1.79,1.79,0,0,0-1.22.49,1.58,1.58,0,0,0-.5,1.16Z" fill="#47a848"/><path d="M398.2,4.51h.71a1.69,1.69,0,0,0,1.73-1.65,1.64,1.64,0,0,0-.51-1.17,1.3,1.3,0,0,0-.35-.25.88.88,0,0,0-.22-.1,1.81,1.81,0,0,0-1.87.35,1.6,1.6,0,0,0,0,2.34Z" fill="#47a848"/><path d="M442.9,4.51h4.88l.51-.48a1.63,1.63,0,0,0,.51-1.17,1.67,1.67,0,0,0-.51-1.17,1.82,1.82,0,0,0-2.44,0Z" fill="#47a848"/><path d="M430.61,4.51h4.65l.51-.48a1.62,1.62,0,0,0,.5-1.17,1.66,1.66,0,0,0-.5-1.17,1.82,1.82,0,0,0-2.44,0l-2.93,2.8A.75.75,0,0,0,430.61,4.51Z" fill="#f3775f"/><path d="M421.71,10.43h.14a2.18,2.18,0,0,0,1.86-1.29,2,2,0,0,0-.26-2h-1.74a1.65,1.65,0,1,0,0,3.3Z" fill="#369672"/><path d="M405.36,11.08a1.8,1.8,0,0,0,1.22.48,1.7,1.7,0,0,0,1.73-1.65v-.4L404.85,6.2V9.91A1.62,1.62,0,0,0,405.36,11.08Z" fill="#369672"/><path d="M391.38,13.25h.9l.19-.17a2,2,0,0,0,0-2.95l-.19-.18h-.9a1.65,1.65,0,1,0,0,3.3Z" fill="#7c78a1"/><path d="M366.09,19.17a1.3,1.3,0,0,0,.44-.06.88.88,0,0,0,.23-.07,1.67,1.67,0,0,0,.55-.35,1.62,1.62,0,0,0,.51-1.17,1.7,1.7,0,0,0-1.73-1.65h-.71l-.51.49a1.6,1.6,0,0,0,0,2.33A1.71,1.71,0,0,0,366.09,19.17Z" fill="#47a848"/><path d="M347.39,18.69a1.79,1.79,0,0,0,2.44,0,1.6,1.6,0,0,0,.5-1.17,1.58,1.58,0,0,0-.5-1.16l-.51-.49h-4.88Z" fill="#47a848"/><path d="M372,14.17l3.45-3.3v-.39a1.69,1.69,0,0,0-1.72-1.65,1.73,1.73,0,0,0-1.22.49,1.55,1.55,0,0,0-.51,1.16Z" fill="#47a848"/><path d="M377.26,4.51h4.88l.51-.48a1.63,1.63,0,0,0,.51-1.17,1.67,1.67,0,0,0-.51-1.17,1.77,1.77,0,0,0-1.22-.47,1.73,1.73,0,0,0-1.22.47Z" fill="#47a848"/><path d="M351.48,13l-1.4-1.35a2,2,0,0,1-.65-1.47A2.07,2.07,0,0,1,350,8.78a2,2,0,0,1-.52-1.34A2,2,0,0,1,350.08,6l1.4-1.35A2.27,2.27,0,0,1,353,4h1.41a2.23,2.23,0,0,1,1.54.61l2.18,2.09.46.43.18.17a2.07,2.07,0,0,1,.64,1.48,2,2,0,0,1-.64,1.48l-.17.17-.47.44L356,13a2.23,2.23,0,0,1-1.54.61H353A2.27,2.27,0,0,1,351.48,13Z" fill="#00799b"/><path d="M362.72,10.43a1.82,1.82,0,0,0,1.22-.49,1.59,1.59,0,0,0,.5-1.16,1.68,1.68,0,0,0-1.72-1.65H362l-.5.48a1.59,1.59,0,0,0,0,2.33A1.75,1.75,0,0,0,362.72,10.43Z" fill="#f47a42"/><path d="M358,10.43h.6l.17-.17a2,2,0,0,0,.64-1.48,2.07,2.07,0,0,0-.64-1.48l-.18-.17H358a1.65,1.65,0,1,0,0,3.3Z" fill="#008db1"/><path d="M306.39,14.18l3.45-3.3v-.4a1.69,1.69,0,0,0-1.72-1.65,1.77,1.77,0,0,0-1.22.49,1.55,1.55,0,0,0-.51,1.16Z" fill="#47a848"/><path d="M339.72,11.08a1.79,1.79,0,0,0,1.22.48,1.69,1.69,0,0,0,1.73-1.65v-.4L339.21,6.2V9.91A1.62,1.62,0,0,0,339.72,11.08Z" fill="#369672"/><path d="M332.56,4.51h.71A1.7,1.7,0,0,0,335,2.86a1.6,1.6,0,0,0-.51-1.17,1.72,1.72,0,0,0-.35-.25.88.88,0,0,0-.22-.1,1.81,1.81,0,0,0-1.87.35,1.61,1.61,0,0,0,0,2.34Z" fill="#47a848"/><path d="M311.63,4.51h4.88L317,4a1.59,1.59,0,0,0,.51-1.17A1.63,1.63,0,0,0,317,1.69a1.82,1.82,0,0,0-2.44,0Z" fill="#47a848"/><path d="M299.33,4.51H304l.51-.48A1.63,1.63,0,0,0,305,2.86a1.67,1.67,0,0,0-.51-1.17,1.82,1.82,0,0,0-2.44,0l-2.92,2.8A.68.68,0,0,0,299.33,4.51Z" fill="#369672"/><path d="M300.45,19.16a1.3,1.3,0,0,0,.44-.06l.23-.07a1.57,1.57,0,0,0,.55-.35,1.62,1.62,0,0,0,.51-1.17,1.69,1.69,0,0,0-1.73-1.65h-.71l-.51.49a1.62,1.62,0,0,0,0,2.33A1.75,1.75,0,0,0,300.45,19.16Z" fill="#47a848"/><path d="M281.75,18.68a1.75,1.75,0,0,0,1.22.48,1.7,1.7,0,0,0,1.22-.48,1.57,1.57,0,0,0,.51-1.17,1.54,1.54,0,0,0-.51-1.16l-.51-.49H278.8Z" fill="#369672"/><polygon points="455.67 8.4 451.41 12.48 455.67 16.55 459.94 12.48 455.67 8.4" fill="#ce738e"/><path d="M452.42,5.29a1.68,1.68,0,0,1,2.29,0l6.37,6.09a1.49,1.49,0,0,1,0,2.19l-6.37,6.09a1.66,1.66,0,0,1-2.29,0,1.51,1.51,0,0,1,0-2.19l5.23-5-5.23-5A1.52,1.52,0,0,1,452.42,5.29Z" fill="#ba5080"/><path d="M448.5,9.05a1.66,1.66,0,0,1,2.29,0l6.37,6.08a1.51,1.51,0,0,1,0,2.19,1.66,1.66,0,0,1-2.29,0l-6.37-6.08A1.49,1.49,0,0,1,448.5,9.05Z" fill="#ba5080"/><path d="M448.55,13.76l6.36-6.08a1.67,1.67,0,0,1,2.3,0,1.51,1.51,0,0,1,0,2.19L450.84,16a1.66,1.66,0,0,1-2.29,0A1.49,1.49,0,0,1,448.55,13.76Z" fill="#ba5080"/><path d="M287.34,5.79a3,3,0,0,1,3.08,2.93,3.07,3.07,0,0,1-6.14,0,3,3,0,0,1,3.06-2.94Z" fill="#f2a06c"/><path d="M284.27,8.39h0m.79-1.68h0m.63,1.5a3.22,3.22,0,0,0,.35-.38,2.21,2.21,0,0,0,.28-.45,2.68,2.68,0,0,0,.53-.12,2.75,2.75,0,0,0,.5-.2,2.39,2.39,0,0,0,.49.2,3.64,3.64,0,0,0,.53.12,3.19,3.19,0,0,0,.28.44,3.33,3.33,0,0,0,.35.39,2.78,2.78,0,0,0,0,.51,4.38,4.38,0,0,0,0,.52,3.22,3.22,0,0,0-.35.38,3.68,3.68,0,0,0-.28.45,2.59,2.59,0,0,0-.52.12,2.48,2.48,0,0,0-.5.2,3.26,3.26,0,0,0-.5-.2,3.52,3.52,0,0,0-.52-.12,4.54,4.54,0,0,0-.28-.44,3.33,3.33,0,0,0-.35-.39,4.06,4.06,0,0,0,0-.51,3,3,0,0,0-.05-.52Zm-3.08,1.86a.27.27,0,0,0,0,.13c.15.44,1,.53,1.32.9s.1,1.2.49,1.47,1.15-.16,1.62,0,.8.92,1.3.92.85-.78,1.3-.92,1.23.28,1.62,0,.2-1.1.48-1.48,1.17-.46,1.32-.9a.51.51,0,0,0,0-.13c0-.41-.54-.91-.54-1.33s.53-.93.53-1.34a.51.51,0,0,0,0-.13c-.15-.44-1-.53-1.32-.9s-.1-1.2-.49-1.47-1.16.16-1.62,0-.81-.92-1.3-.92-.86.78-1.3.92-1.23-.28-1.62,0-.2,1.11-.48,1.48-1.17.46-1.32.9a.51.51,0,0,0,0,.13c0,.41.54.91.54,1.33s-.53.93-.53,1.34Z" fill="#df1832"/><path d="M459.56,14.17h.91l.18-.15c1.22-1,1.22-2.08.08-3l-.17-.13h-1a1.65,1.65,0,1,0,0,3.29Z" fill="#7c78a1"/><path d="M286.32,7.38a2.21,2.21,0,0,1-.28.45,3.22,3.22,0,0,1-.35.38,3,3,0,0,1,.05.52,4.06,4.06,0,0,1,0,.51,3.33,3.33,0,0,1,.35.39,4.54,4.54,0,0,1,.28.44,3.52,3.52,0,0,1,.52.12,3.26,3.26,0,0,1,.5.2,2.48,2.48,0,0,1,.5-.2,2.59,2.59,0,0,1,.52-.12,3.68,3.68,0,0,1,.28-.45,3.22,3.22,0,0,1,.35-.38,4.38,4.38,0,0,1,0-.52,2.78,2.78,0,0,1,0-.51,3.33,3.33,0,0,1-.35-.39,3.19,3.19,0,0,1-.28-.44,3.64,3.64,0,0,1-.53-.12,2.75,2.75,0,0,1-.5-.2,2.39,2.39,0,0,1-.49.2A2.68,2.68,0,0,1,286.32,7.38Z" fill="none"/><path d="M286,4.9c-.46.15-1.23-.28-1.62,0s-.2,1.11-.48,1.48-1.17.46-1.32.9a.51.51,0,0,0,0,.13c0,.41.54.91.54,1.33s-.53.93-.53,1.34a.27.27,0,0,0,0,.13c.15.44,1,.53,1.32.9s.1,1.2.49,1.47,1.15-.16,1.62,0,.8.92,1.3.92.85-.78,1.3-.92,1.23.28,1.62,0,.2-1.1.48-1.48.8-.4,1.12-.65h-.37a1.76,1.76,0,0,1-1.21-.49,1.6,1.6,0,0,1,0-2.33,1.78,1.78,0,0,1,1.22-.48H292c-.26-.34-1-.45-1.25-.78s-.1-1.2-.49-1.47-1.16.16-1.62,0-.81-.92-1.3-.92S286.48,4.76,286,4.9Zm1.8,2.36a3.64,3.64,0,0,0,.53.12,3.19,3.19,0,0,0,.28.44,3.33,3.33,0,0,0,.35.39,2.78,2.78,0,0,0,0,.51,4.38,4.38,0,0,0,0,.52,3.22,3.22,0,0,0-.35.38,3.68,3.68,0,0,0-.28.45,2.59,2.59,0,0,0-.52.12,2.48,2.48,0,0,0-.5.2,3.26,3.26,0,0,0-.5-.2,3.52,3.52,0,0,0-.52-.12,4.54,4.54,0,0,0-.28-.44,3.33,3.33,0,0,0-.35-.39,4.06,4.06,0,0,0,0-.51,3,3,0,0,0-.05-.52,3.22,3.22,0,0,0,.35-.38,2.21,2.21,0,0,0,.28-.45,2.68,2.68,0,0,0,.53-.12,2.39,2.39,0,0,0,.49-.2A2.75,2.75,0,0,0,287.84,7.26Z" fill="none"/><path d="M290.54,7.61A1.67,1.67,0,0,0,290,8.78a1.62,1.62,0,0,0,.51,1.16,1.77,1.77,0,0,0,1.22.49h.13a.6.6,0,0,0,.2-.25.51.51,0,0,0,0-.13c0-.41-.54-.91-.54-1.33s.53-.93.53-1.34a.51.51,0,0,0,0-.13.47.47,0,0,0-.07-.12h-.25A1.74,1.74,0,0,0,290.54,7.61Z" fill="#dd4943"/></g><g clip-path="url(#d)"><path d="M18.89,18.28,18,17.41l-8-7.68a1.58,1.58,0,0,1-.5-1.16,1.61,1.61,0,0,1,.5-1.15,1.76,1.76,0,0,1,2.41,0l.28.27L21.3,16a1.58,1.58,0,0,1,0,2.3A1.75,1.75,0,0,1,18.89,18.28Z" fill="#448a31"/><path d="M17,12.07V7.29a1.73,1.73,0,0,0-3.45,0V8.76Z" fill="#007455"/><path d="M4.07,2.53v14.6a1.62,1.62,0,0,1-.5,1.17,1.82,1.82,0,0,1-1.22.48A1.7,1.7,0,0,1,.62,17.13V2.53A1.7,1.7,0,0,1,2.35.88,1.69,1.69,0,0,1,4.07,2.53Z" fill="#448a31"/><path d="M20.09,18.77H2.33a1.72,1.72,0,0,1-1.2-.48,1.59,1.59,0,0,1-.5-1.15,1.67,1.67,0,0,1,1.7-1.64H20.09a1.64,1.64,0,1,1,0,3.27Z" fill="#448a31"/><path d="M38,2.48a1.68,1.68,0,0,1-1.51,1.63.78.78,0,0,1-.22,0H23.23L20.28,1.31A1.73,1.73,0,0,0,19.06.83H36.3A1.69,1.69,0,0,1,38,2.48Z" fill="#007455"/><path d="M35.73,5.81H40.5c-.07.13,0,.26,0,.39v.16h0a4.05,4.05,0,0,0,0,1.1,4.13,4.13,0,0,0,0,1.11h0v.14c0,.13-.07.27,0,.4H35A1.1,1.1,0,0,1,34.58,9,.86.86,0,0,1,34.35,9a1.46,1.46,0,0,1-.55-.36L28.11,3.19h4.64a.78.78,0,0,0,.22,0Z" fill="#007455"/><path d="M28.74,8.92a1.79,1.79,0,0,0-1.22-.48,1.69,1.69,0,0,0-1.73,1.65v.4l3.45,3.31V10.09A1.62,1.62,0,0,0,28.74,8.92Z" fill="#369672"/><path d="M28.89,8.78l-.15.14a1.62,1.62,0,0,1,.5,1.17V13.8L34,18.31a1.63,1.63,0,0,1-.5-1.17,1.69,1.69,0,0,1,1.72-1.65h.72Z" fill="#448a31"/><path d="M25.79,10.49V15a1.73,1.73,0,0,0,3.45,0V13.8Z" fill="#007455"/><path d="M31,1.31A1.77,1.77,0,0,0,29.81.83a1.7,1.7,0,0,0-1.22.48,1.57,1.57,0,0,0-.51,1.17,1.55,1.55,0,0,0,.51,1.16l.5.49h4.64a.78.78,0,0,0,.22,0Z" fill="#369672"/><path d="M14,13.39a1.72,1.72,0,0,0,1.22.48A1.68,1.68,0,0,0,17,12.22v-.39L13.51,8.52v3.7A1.61,1.61,0,0,0,14,13.39Z" fill="#369672"/><path d="M2.68.81H2.33A1.71,1.71,0,0,0,.63,2.14a1.53,1.53,0,0,0,0,.3v0A1.69,1.69,0,0,0,2.33,4.13H19.14l6.65,6.36v-.4a1.69,1.69,0,0,1,1.73-1.65,1.79,1.79,0,0,1,1.22.48l.15-.14L24,4.13,21.07,1.31A1.73,1.73,0,0,0,19.85.83H2.72Z" fill="#448a31"/><path d="M2.7,18.77H2.36A1.7,1.7,0,0,1,.68,17.46a1.5,1.5,0,0,1,0-.29v0A1.67,1.67,0,0,1,2.36,15.5H4.07v1.67A1.65,1.65,0,0,1,2.7,18.77Z" fill="#47a848"/><path d="M18.91,18.27a1.74,1.74,0,0,0,1.2.47,1.66,1.66,0,0,0,1.19-.47,1.57,1.57,0,0,0,0-2.3l-.49-.47H16Z" fill="#369672"/><path d="M21.07,1.31a1.79,1.79,0,0,0-2.44,0,1.6,1.6,0,0,0-.5,1.17,1.58,1.58,0,0,0,.5,1.16l.51.49H24Z" fill="#369672"/><path d="M2.68.81H2.33A1.71,1.71,0,0,0,.63,2.14a1.53,1.53,0,0,0,0,.3v0A1.69,1.69,0,0,0,2.33,4.13H4.06V2.44A1.68,1.68,0,0,0,2.68.81Z" fill="#47a848"/></g><g clip-path="url(#e)"><path d="M226.73.83h6.5A1.69,1.69,0,0,1,235,2.48a1.67,1.67,0,0,1-1.51,1.63.68.68,0,0,1-.21,0h-2.35l2.81,2.68h4.77c-.07.13,0,.26,0,.39v.16a3.69,3.69,0,0,0,0,1.1,3.75,3.75,0,0,0,0,1.11v.14c0,.13-.07.27,0,.4H233a1.08,1.08,0,0,1-.43-.07.86.86,0,0,1-.23-.06,1.5,1.5,0,0,1-.56-.36L226,4.13H221L218,1.31a1.75,1.75,0,0,0-1.22-.48Z" fill="#007455"/><path d="M85.5.82H68a1.73,1.73,0,0,1,1.22.48,1.6,1.6,0,0,1,0,2.33l-.51.49H84.79l-.51-.49a1.61,1.61,0,0,1,0-2.33A1.71,1.71,0,0,1,85.5.82Z" fill="#448a31"/><path d="M98,.82H85.5a1.71,1.71,0,0,1,1.22.48l3,2.82H97.3l-.51-.49a1.63,1.63,0,0,1,0-2.33A1.77,1.77,0,0,1,98,.82Z" fill="#00799b"/><path d="M102,.82H98a1.76,1.76,0,0,1,1.24.48l2.92,2.79a1.66,1.66,0,0,0,1.51-1.62A1.68,1.68,0,0,0,102,.82Z" fill="#00799b"/><path d="M151.14.82H133.66a1.71,1.71,0,0,1,1.22.48,1.6,1.6,0,0,1,0,2.33l-.51.49h16.06l-.51-.49a1.61,1.61,0,0,1,0-2.33A1.71,1.71,0,0,1,151.14.82Z" fill="#448a31"/><path d="M163.67.82H151.14a1.73,1.73,0,0,1,1.22.48l2.95,2.82H163l-.51-.49a1.61,1.61,0,0,1,0-2.33A1.74,1.74,0,0,1,163.67.82Z" fill="#f15f35"/><path d="M167.59.82h-3.92a1.72,1.72,0,0,1,1.21.48l2.93,2.79a1.66,1.66,0,0,0,1.51-1.62A1.68,1.68,0,0,0,167.59.82Z" fill="#f15f35"/><path d="M133.66.82a1.3,1.3,0,0,0-.44.06A.88.88,0,0,0,133,1a1.57,1.57,0,0,0-.55.35,1.61,1.61,0,0,0-.51,1.17,1.69,1.69,0,0,0,1.73,1.65h.71l.51-.49a1.6,1.6,0,0,0,0-2.33A1.71,1.71,0,0,0,133.66.82Z" fill="#47a848"/><path d="M68,.82a1.61,1.61,0,0,0-.44.06.88.88,0,0,0-.23.07,1.67,1.67,0,0,0-.55.35,1.61,1.61,0,0,0-.51,1.17A1.7,1.7,0,0,0,68,4.12h.71l.51-.49a1.6,1.6,0,0,0,0-2.33A1.73,1.73,0,0,0,68,.82Z" fill="#47a848"/><path d="M133,1a.88.88,0,0,1,.23-.07A.68.68,0,0,0,133,1Z" fill="#448a31"/><path d="M67.35,1a.88.88,0,0,1,.23-.07A.68.68,0,0,0,67.35,1Z" fill="#448a31"/><path d="M200.52,1.3a1.77,1.77,0,0,0-2.44,0l-4.72,4.51v3.7a1.59,1.59,0,0,1-.51,1.16l.15.15,7.52-7.19A1.59,1.59,0,0,0,200.52,1.3Z" fill="#448a31"/><path d="M164.88,1.3a1.79,1.79,0,0,0-2.44,0,1.61,1.61,0,0,0,0,2.33l.51.49h4.64a.53.53,0,0,0,.22,0Z" fill="#f47a42"/><path d="M152.36,1.3a1.79,1.79,0,0,0-2.44,0,1.61,1.61,0,0,0,0,2.33l.51.49h4.88Z" fill="#47a848"/><path d="M133,1a1.43,1.43,0,0,0-.55.35A1.57,1.57,0,0,1,133,1Z" fill="#448a31"/><path d="M99.25,1.3a1.82,1.82,0,0,0-2.46,0,1.63,1.63,0,0,0,0,2.33l.51.49H102a.53.53,0,0,0,.22,0Z" fill="#008db1"/><path d="M86.72,1.3a1.79,1.79,0,0,0-2.44,0,1.61,1.61,0,0,0,0,2.33l.51.49h4.88Z" fill="#47a848"/><path d="M67.35,1a1.43,1.43,0,0,0-.55.35A1.67,1.67,0,0,1,67.35,1Z" fill="#448a31"/><path d="M132.44,1.3l-4.73,4.52V9.51a1.59,1.59,0,0,1-.51,1.16l.15.15,7-6.7h-.71a1.69,1.69,0,0,1-1.73-1.65A1.61,1.61,0,0,1,132.44,1.3Z" fill="#448a31"/><path d="M66.8,1.3,62.07,5.82V9.51a1.59,1.59,0,0,1-.51,1.16l.15.15,7-6.7H68a1.7,1.7,0,0,1-1.73-1.65A1.61,1.61,0,0,1,66.8,1.3Z" fill="#448a31"/><path d="M113.54,3.7h-2a2.24,2.24,0,0,0-1.55.61l-2.09,2-.18.19-.27.25h.91a1.65,1.65,0,1,1,0,3.3h-.91l.29.28.17.16,2.08,2a2.2,2.2,0,0,0,1.55.62h2a2.2,2.2,0,0,0,1.54-.62,1.91,1.91,0,0,0,.48-.67,2,2,0,0,0-.19-1.93,2,2,0,0,0,0-2.93A2,2,0,0,0,115.56,5,2.17,2.17,0,0,0,113.54,3.7Z" fill="#ba5080"/><path d="M102.17,4.09a.53.53,0,0,1-.22,0H97.3L103,9.55h0a1.61,1.61,0,0,1-.51-1.17,1.69,1.69,0,0,1,1.73-1.65h.71Z" fill="#00799b"/><path d="M167.81,4.09a.53.53,0,0,1-.22,0H163l5.69,5.43a1.61,1.61,0,0,1-.51-1.17,1.69,1.69,0,0,1,1.73-1.65h.71Z" fill="#f15f35"/><path d="M89.67,4.12H84.79l6.65,6.35v-.39a1.69,1.69,0,0,1,1.73-1.65,1.8,1.8,0,0,1,1.22.48l.15-.14Z" fill="#448a31"/><path d="M155.31,4.12h-4.88l6.65,6.35v-.39a1.69,1.69,0,0,1,1.73-1.65,1.79,1.79,0,0,1,1.22.48l.15-.14Z" fill="#448a31"/><path d="M193.36,4.58a1.73,1.73,0,0,0-3.45,0V9.11l3.45-3.3Z" fill="#448a31"/><path d="M127.71,4.58a1.73,1.73,0,0,0-3.45,0V9.12l3.45-3.3Z" fill="#448a31"/><path d="M62.07,4.58a1.73,1.73,0,0,0-3.45,0V9.12l3.45-3.3Z" fill="#448a31"/><path d="M181.77,4.36h-4.36a4,4,0,0,0-3.86,2.37h1.19a1.65,1.65,0,1,1,0,3.3h-1.19a3.6,3.6,0,0,0,1.33,1.64,4.37,4.37,0,0,0,2.53.74h4.36a1.28,1.28,0,0,0,1.3-1.24V5.6A1.28,1.28,0,0,0,181.77,4.36Z" fill="#df1832"/><path d="M193.36,5.81l-3.45,3.3v.4a1.69,1.69,0,0,0,1.72,1.65,1.77,1.77,0,0,0,1.22-.49,1.59,1.59,0,0,0,.51-1.16Z" fill="#47a848"/><path d="M127.71,5.82l-3.45,3.3v.39A1.69,1.69,0,0,0,126,11.16a1.73,1.73,0,0,0,1.22-.49,1.59,1.59,0,0,0,.51-1.16Z" fill="#47a848"/><path d="M62.07,5.82l-3.45,3.3v.39a1.69,1.69,0,0,0,1.72,1.65,1.75,1.75,0,0,0,1.22-.49,1.59,1.59,0,0,0,.51-1.16Z" fill="#47a848"/><path d="M146.72,6.43h-1.41a2.27,2.27,0,0,0-1.55.61l-2.17,2.08-.47.44h.6a1.65,1.65,0,1,1,0,3.3h-.59l.46.43,2.17,2.09a2.27,2.27,0,0,0,1.55.61h1.41a2.27,2.27,0,0,0,1.55-.61l1.4-1.35a2,2,0,0,0,.13-2.82,2,2,0,0,0-.13-2.83L148.27,7A2.27,2.27,0,0,0,146.72,6.43Z" fill="#00799b"/><path d="M104.93,6.73h-.71a1.69,1.69,0,0,0-1.73,1.65A1.61,1.61,0,0,0,103,9.55a1.44,1.44,0,0,0,.55.35.62.62,0,0,0,.23.07,1.3,1.3,0,0,0,.44.06,1.71,1.71,0,0,0,1.22-.48,1.6,1.6,0,0,0,0-2.33Z" fill="#008db1"/><path d="M107.46,6.73h-2.53l.51.49a1.6,1.6,0,0,1,0,2.33,1.71,1.71,0,0,1-1.22.48h3.24l-.18-.17a2,2,0,0,1,0-2.95Z" fill="#00799b"/><path d="M108.37,6.73h-.91l-.18.18a2,2,0,0,0,0,2.95l.18.17h.91a1.65,1.65,0,1,0,0-3.3Z" fill="#7c78a1"/><path d="M170.57,6.73h-.71a1.69,1.69,0,0,0-1.73,1.65,1.61,1.61,0,0,0,.51,1.17,1.44,1.44,0,0,0,.55.35.62.62,0,0,0,.23.07,1.3,1.3,0,0,0,.44.06,1.77,1.77,0,0,0,1.22-.48,1.62,1.62,0,0,0,0-2.33Z" fill="#f47a42"/><path d="M173.55,6.73h-3l.51.49a1.62,1.62,0,0,1,0,2.33,1.77,1.77,0,0,1-1.22.48h3.69a3.2,3.2,0,0,1-.16-.39V9.58l0-.08h0a4.09,4.09,0,0,1-.18-1.12,3.89,3.89,0,0,1,.18-1.1h0l0-.09V7.13A4.16,4.16,0,0,1,173.55,6.73Z" fill="#f15f35"/><path d="M174.74,6.73h-1.19a4.16,4.16,0,0,0-.16.4v.06l0,.09h0a3.89,3.89,0,0,0-.18,1.1,4.09,4.09,0,0,0,.18,1.12h0l0,.08v.06a3.2,3.2,0,0,0,.16.39h1.19a1.65,1.65,0,1,0,0-3.3Z" fill="#f3775f"/><path d="M212.63,7.93a1.73,1.73,0,0,0-3.46,0V9.56h3.46Z" fill="#007455"/><path d="M160,8.91a1.79,1.79,0,0,0-1.22-.48,1.69,1.69,0,0,0-1.73,1.65v.39l3.45,3.32V10.08A1.62,1.62,0,0,0,160,8.91Z" fill="#369672"/><path d="M94.39,8.91a1.8,1.8,0,0,0-1.22-.48,1.69,1.69,0,0,0-1.73,1.65v.39l3.46,3.32V10.08A1.62,1.62,0,0,0,94.39,8.91Z" fill="#369672"/><path d="M94.54,8.77l-.15.14a1.62,1.62,0,0,1,.51,1.17v3.71l4.71,4.51a1.63,1.63,0,0,1-.5-1.17,1.69,1.69,0,0,1,1.72-1.65h.72Z" fill="#448a31"/><path d="M160.18,8.77l-.15.14a1.62,1.62,0,0,1,.5,1.17v3.71l4.72,4.51a1.63,1.63,0,0,1-.5-1.17,1.69,1.69,0,0,1,1.72-1.65h.72Z" fill="#448a31"/><path d="M189.91,9.11l-6.67,6.37h4.88L193,10.82l-.15-.15a1.77,1.77,0,0,1-1.22.49,1.69,1.69,0,0,1-1.72-1.65Z" fill="#448a31"/><path d="M124.26,9.12l-6.66,6.36h4.88l4.87-4.66-.15-.15a1.73,1.73,0,0,1-1.22.49,1.69,1.69,0,0,1-1.72-1.65Z" fill="#448a31"/><path d="M58.62,9.12,52,15.48h4.88l4.87-4.66-.15-.15a1.75,1.75,0,0,1-1.22.49,1.69,1.69,0,0,1-1.72-1.65Z" fill="#448a31"/><path d="M82.05,9.55H78a1.65,1.65,0,1,1,0,3.3H76.3a1.65,1.65,0,0,0,.21.27l3,2.84a2.18,2.18,0,0,0,1.54.62h4a2.18,2.18,0,0,0,2-1.3A2,2,0,0,0,86.57,13l-3-2.86A2.2,2.2,0,0,0,82.05,9.55Z" fill="#007455"/><path d="M77.9,9.56H71.39a1.77,1.77,0,0,1,1.22.49,1.59,1.59,0,0,1,0,2.33l-.5.48H76.3a2,2,0,0,1-.26-2A2.18,2.18,0,0,1,77.9,9.56Z" fill="#f15f35"/><path d="M78,9.56H77.9A2.18,2.18,0,0,0,76,10.85a2,2,0,0,0,.26,2H78a1.65,1.65,0,1,0,0-3.3Z" fill="#369672"/><path d="M141.12,9.56H137a1.75,1.75,0,0,1,1.22.49,1.59,1.59,0,0,1,0,2.33l-.5.48h3.38l-.18-.17a2.07,2.07,0,0,1-.64-1.48A2,2,0,0,1,141,9.73Z" fill="#f15f35"/><path d="M141.72,9.56h-.6l-.17.17a2,2,0,0,0-.64,1.48,2.07,2.07,0,0,0,.64,1.48l.18.17h.59a1.65,1.65,0,1,0,0-3.3Z" fill="#008db1"/><path d="M209.17,9.56h-6.5a1.75,1.75,0,0,1,1.22.49,1.59,1.59,0,0,1,0,2.33l-.51.48h5.79Z" fill="#007455"/><rect x="209.17" y="9.56" width="3.45" height="3.3" fill="#369672"/><path d="M214.72,9.56h-2.09v3.3h2.09a1.65,1.65,0,1,0,0-3.3Z" fill="#007455"/><path d="M202.67,9.56a1.77,1.77,0,0,0-1.22.49,1.6,1.6,0,0,0-.51,1.16,1.7,1.7,0,0,0,1.73,1.65h.71l.51-.48a1.59,1.59,0,0,0,0-2.33A1.75,1.75,0,0,0,202.67,9.56Z" fill="#369672"/><path d="M137,9.56a1.8,1.8,0,0,0-1.22.49,1.59,1.59,0,0,0-.5,1.16A1.69,1.69,0,0,0,137,12.86h.72l.5-.48a1.59,1.59,0,0,0,0-2.33A1.75,1.75,0,0,0,137,9.56Z" fill="#f47a42"/><path d="M71.39,9.56a1.8,1.8,0,0,0-1.22.49,1.59,1.59,0,0,0-.5,1.16,1.69,1.69,0,0,0,1.72,1.65h.72l.5-.48a1.59,1.59,0,0,0,0-2.33A1.77,1.77,0,0,0,71.39,9.56Z" fill="#f47a42"/><path d="M169.19,9.9a1.44,1.44,0,0,1-.55-.35A1.26,1.26,0,0,0,169.19,9.9Z" fill="#448a31"/><path d="M103.55,9.9a1.44,1.44,0,0,1-.55-.35A1.26,1.26,0,0,0,103.55,9.9Z" fill="#448a31"/><path d="M169.42,10a.62.62,0,0,1-.23-.07A.51.51,0,0,0,169.42,10Z" fill="#448a31"/><path d="M103.78,10a.62.62,0,0,1-.23-.07A.48.48,0,0,0,103.78,10Z" fill="#448a31"/><path d="M201.45,10.05l-5.68,5.43h4.64a.75.75,0,0,1,.21,0l2.76-2.64h-.71a1.7,1.7,0,0,1-1.73-1.65A1.6,1.6,0,0,1,201.45,10.05Z" fill="#007455"/><path d="M135.81,10.05l-5.68,5.43h4.65a.68.68,0,0,1,.2,0l2.77-2.64H137a1.69,1.69,0,0,1-1.72-1.65A1.59,1.59,0,0,1,135.81,10.05Z" fill="#f15f35"/><path d="M70.17,10.05l-5.68,5.43h4.65a.65.65,0,0,1,.2,0l2.77-2.64h-.72a1.69,1.69,0,0,1-1.72-1.65A1.59,1.59,0,0,1,70.17,10.05Z" fill="#f15f35"/><path d="M157.08,10.47V15a1.73,1.73,0,0,0,3.45,0V13.79Z" fill="#007455"/><path d="M91.44,10.47V15a1.73,1.73,0,0,0,3.46,0V13.79Z" fill="#007455"/><path d="M212.63,12.86h-3.46v1.62a1.73,1.73,0,0,0,3.46,0Z" fill="#007455"/><path d="M36,15.48H35.2a1.69,1.69,0,0,0-1.73,1.65,1.42,1.42,0,0,0,.28.88l.29.29a1.81,1.81,0,0,0,2.44,0,1.6,1.6,0,0,0,0-2.34Z" fill="#47a848"/><path d="M52,15.48H36l.5.48a1.6,1.6,0,0,1,0,2.34,1.81,1.81,0,0,1-2.44,0L33.75,18a1.72,1.72,0,0,0,1.45.77H52.68a1.78,1.78,0,0,1-1.22-.47A1.63,1.63,0,0,1,51,17.13,1.59,1.59,0,0,1,51.46,16Z" fill="#448a31"/><path d="M56.84,15.48H52l-.5.48A1.59,1.59,0,0,0,51,17.13a1.63,1.63,0,0,0,.51,1.17,1.78,1.78,0,0,0,1.22.47,1.81,1.81,0,0,0,1.22-.47Z" fill="#47a848"/><path d="M64.49,15.48H56.84L53.9,18.3a1.81,1.81,0,0,1-1.22.47H65.2A1.78,1.78,0,0,1,64,18.3a1.67,1.67,0,0,1-.51-1.17A1.63,1.63,0,0,1,64,16Z" fill="#df1832"/><path d="M69.14,15.48H64.49L64,16a1.63,1.63,0,0,0-.51,1.17A1.67,1.67,0,0,0,64,18.3a1.78,1.78,0,0,0,1.22.47,1.79,1.79,0,0,0,1.22-.47l2.92-2.8A.65.65,0,0,0,69.14,15.48Z" fill="#f3775f"/><path d="M101.55,15.48h-.72a1.69,1.69,0,0,0-1.72,1.65,1.63,1.63,0,0,0,.5,1.17,1.91,1.91,0,0,0,.36.25.88.88,0,0,0,.22.1,1.79,1.79,0,0,0,1.86-.35,1.6,1.6,0,0,0,0-2.34Z" fill="#47a848"/><path d="M117.6,15.48h-16l.5.48a1.6,1.6,0,0,1,0,2.34,1.79,1.79,0,0,1-1.86.35,1.53,1.53,0,0,0,.64.13h17.49a1.81,1.81,0,0,1-1.22-.47,1.63,1.63,0,0,1-.51-1.17A1.59,1.59,0,0,1,117.1,16Z" fill="#448a31"/><path d="M122.48,15.48H117.6l-.5.48a1.59,1.59,0,0,0-.51,1.17,1.63,1.63,0,0,0,.51,1.17,1.81,1.81,0,0,0,1.22.47,1.79,1.79,0,0,0,1.22-.47Z" fill="#47a848"/><path d="M130.13,15.48h-7.65l-2.94,2.82a1.79,1.79,0,0,1-1.22.47h12.52a1.81,1.81,0,0,1-1.22-.47,1.67,1.67,0,0,1-.51-1.17,1.63,1.63,0,0,1,.51-1.17Z" fill="#df1832"/><path d="M134.78,15.48h-4.65l-.51.48a1.63,1.63,0,0,0-.51,1.17,1.67,1.67,0,0,0,.51,1.17,1.81,1.81,0,0,0,1.22.47,1.78,1.78,0,0,0,1.22-.47L135,15.5A.68.68,0,0,0,134.78,15.48Z" fill="#f3775f"/><path d="M167.19,15.48h-.72a1.69,1.69,0,0,0-1.72,1.65,1.63,1.63,0,0,0,.5,1.17,2.31,2.31,0,0,0,.36.25.88.88,0,0,0,.22.1,1.79,1.79,0,0,0,1.86-.35,1.6,1.6,0,0,0,0-2.34Z" fill="#47a848"/><path d="M183.24,15.48H167.19l.5.48a1.6,1.6,0,0,1,0,2.34,1.79,1.79,0,0,1-1.86.35,1.5,1.5,0,0,0,.64.13H184a1.79,1.79,0,0,1-1.22-.47,1.63,1.63,0,0,1-.51-1.17,1.59,1.59,0,0,1,.51-1.17Z" fill="#448a31"/><path d="M188.12,15.48h-4.88l-.5.48a1.59,1.59,0,0,0-.51,1.17,1.63,1.63,0,0,0,.51,1.17,1.82,1.82,0,0,0,2.44,0Z" fill="#47a848"/><path d="M195.77,15.48h-7.65l-2.94,2.82a1.79,1.79,0,0,1-1.22.47h12.52a1.79,1.79,0,0,1-1.22-.47,1.63,1.63,0,0,1-.51-1.17,1.59,1.59,0,0,1,.51-1.17Z" fill="#448a31"/><path d="M200.41,15.48h-4.64l-.51.48a1.59,1.59,0,0,0-.51,1.17,1.63,1.63,0,0,0,.51,1.17,1.82,1.82,0,0,0,2.44,0l2.92-2.8A.75.75,0,0,0,200.41,15.48Z" fill="#369672"/><path d="M200.62,15.5l-2.92,2.8a1.79,1.79,0,0,1-1.22.47h3.93a1.69,1.69,0,0,0,1.73-1.65A1.65,1.65,0,0,0,200.62,15.5Z" fill="#448a31"/><path d="M135,15.5l-2.92,2.8a1.78,1.78,0,0,1-1.22.47h3.94a1.69,1.69,0,0,0,1.72-1.65A1.65,1.65,0,0,0,135,15.5Z" fill="#df1832"/><path d="M69.34,15.5l-2.92,2.8a1.79,1.79,0,0,1-1.22.47h3.94a1.69,1.69,0,0,0,1.72-1.65A1.65,1.65,0,0,0,69.34,15.5Z" fill="#df1832"/><path d="M165.83,18.65a.88.88,0,0,1-.22-.1A.88.88,0,0,0,165.83,18.65Z" fill="#448a31"/><path d="M100.19,18.65a.88.88,0,0,1-.22-.1A.62.62,0,0,0,100.19,18.65Z" fill="#448a31"/><path d="M216.78.83H199.3a1.75,1.75,0,0,1,1.22.48,1.62,1.62,0,0,1,0,2.33l-.51.49h16.05l-.5-.49a1.54,1.54,0,0,1-.51-1.16,1.57,1.57,0,0,1,.51-1.17A1.7,1.7,0,0,1,216.78.83Z" fill="#448a31"/><path d="M199.3.83a1.3,1.3,0,0,0-.44.06l-.23.07a1.57,1.57,0,0,0-.55.35,1.59,1.59,0,0,0-.51,1.17,1.69,1.69,0,0,0,1.73,1.65H200l.51-.49a1.62,1.62,0,0,0,0-2.33A1.75,1.75,0,0,0,199.3.83Z" fill="#47a848"/><path d="M223.71,10.94v5a1.73,1.73,0,0,0,3.45,0V14.25Z" fill="#007455"/><path d="M219.77,7v5a1.73,1.73,0,0,0,3.45,0V10.35Z" fill="#007455"/><path d="M228,1.31a1.79,1.79,0,0,0-2.44,0,1.6,1.6,0,0,0-.5,1.17,1.56,1.56,0,0,0,.5,1.16l.51.49h4.64a.78.78,0,0,0,.22,0Z" fill="#369672"/><path d="M216.78.83a1.7,1.7,0,0,0-1.22.48,1.57,1.57,0,0,0-.51,1.17,1.54,1.54,0,0,0,.51,1.16l.19.19.31.3,7.65,7.31,3.45,3.31,1.56,1.48a1.4,1.4,0,0,0,.35.25.62.62,0,0,0,.22.1,1.8,1.8,0,0,0,1.05.07h4.73a1.65,1.65,0,1,0,0-3.3h-4.49l-9.64-9.22-.31-.3L218,1.31A1.75,1.75,0,0,0,216.78.83Z" fill="#448a31"/><path d="M218,1.31a1.75,1.75,0,0,0-1.22-.48,1.7,1.7,0,0,0-1.22.48,1.57,1.57,0,0,0-.51,1.17,1.54,1.54,0,0,0,.51,1.16l.5.49h4.88Z" fill="#369672"/><path d="M226.66,9.87a1.79,1.79,0,0,0-1.22-.48A1.69,1.69,0,0,0,223.71,11v.4l3.45,3.31V11A1.62,1.62,0,0,0,226.66,9.87Z" fill="#369672"/><path d="M222.71,6.09a1.73,1.73,0,0,0-1.22-.49,1.69,1.69,0,0,0-1.72,1.65v.4L223.22,11V7.25A1.59,1.59,0,0,0,222.71,6.09Z" fill="#369672"/><path d="M230.62,13.36h-.78A1.7,1.7,0,0,0,228.11,15a1.49,1.49,0,0,0,.28.88l.3.29a1.81,1.81,0,0,0,2.44,0,1.6,1.6,0,0,0,0-2.34Z" fill="#47a848"/><path d="M244.9,8.47V8.41h.47l0,.05.9.86a1.44,1.44,0,0,0,.3.21,1.3,1.3,0,0,0,1.5-.21.27.27,0,0,0,.07-.08l.09.08a1.28,1.28,0,0,1,.34.86,1.29,1.29,0,0,1-.41.94l-.9.86a1.41,1.41,0,0,1-1,.39h-1.39a1.27,1.27,0,0,1-.32.47l-.9.86a1.41,1.41,0,0,1-1,.39,1.45,1.45,0,0,1-1-.39l-4.49-4.29.09-.09a1.3,1.3,0,0,0,.9.36l.23,0,.23-.07a.9.9,0,0,0,.22-.11.89.89,0,0,0,.21-.16l1-.91h.47v.06" fill="#df1832"/><path d="M240.56,8.47h-.47l-1-.85a.9.9,0,0,0-.19-.15l-.22-.12-.24-.06-.24,0a1.3,1.3,0,0,0-.9.36l-.09-.09,4.49-4.29a1.45,1.45,0,0,1,1-.39,1.41,1.41,0,0,1,1,.39l.9.86a1.27,1.27,0,0,1,.32.47h1.39a1.43,1.43,0,0,1,1,.39l.9.86a1.29,1.29,0,0,1,.41.94,1.28,1.28,0,0,1-.34.86l0,0,0,0,.07.08,0,.09,0,0s0,.07.05.1l0,.09v0l0,.1a.31.31,0,0,1,0,.1v.29a.31.31,0,0,1,0,.1l0,.1v0l0,.09s0,.07-.05.1l0,0,0,.09-.07.08,0,.05-.08.1a1.42,1.42,0,0,1-1.65.22,1.38,1.38,0,0,1-.32-.22l-1-.95h-.39" fill="#930145"/><path d="M248.83,8.46a1.41,1.41,0,0,0-.44-1,1.55,1.55,0,0,0-2.12,0l-1,1,0,0h0l0,0,1,1a1.57,1.57,0,0,0,2.12,0l.05-.05a1.39,1.39,0,0,0,.39-1" fill="#e85859"/><ellipse cx="238.57" cy="8.47" rx="1.73" ry="1.65" fill="#e85859"/><path d="M244.67,8.47a5.63,5.63,0,0,0-.89-3,1.56,1.56,0,0,0-2.36-.22l0,0A1.41,1.41,0,0,0,241.17,7a2.79,2.79,0,0,1,0,2.91,1.43,1.43,0,0,0,.23,1.78h0a1.56,1.56,0,0,0,2.36-.22A5.62,5.62,0,0,0,244.67,8.47Z" fill="#e85859"/><path d="M231.72,9.67a1.79,1.79,0,0,0,2.44,0,1.59,1.59,0,0,0,0-2.33l-.5-.49h-.72a1.67,1.67,0,0,0-1.72,1.65A1.59,1.59,0,0,0,231.72,9.67Z" fill="#369672"/></g><g clip-path="url(#f)"><path d="M183.08,5.6v5.57a1.28,1.28,0,0,1-1.3,1.24h-4.37a4.37,4.37,0,0,1-2.53-.74A3.58,3.58,0,0,1,173.56,10a2.14,2.14,0,0,1-.16-.39l0-.06,0-.08h0a4.48,4.48,0,0,1-.17-1.12,4.26,4.26,0,0,1,.17-1.1h0l0-.09,0-.06a2.56,2.56,0,0,1,.16-.4,4,4,0,0,1,3.85-2.37h4.37A1.28,1.28,0,0,1,183.08,5.6Z" fill="#df1832"/><path d="M212.63,9.56h2.1v3.3H203.39l-3.07,2.94a.51.51,0,0,0-.21,0h-4.65l6-5.72a1.77,1.77,0,0,1,1.22-.49h9.95Z" fill="#007455"/><path d="M169.32,2.47a1.65,1.65,0,0,1-1.51,1.62l2.77,2.64H174a4.16,4.16,0,0,0-.16.4v.06l0,.09h0a3.89,3.89,0,0,0-.18,1.1,4.09,4.09,0,0,0,.18,1.12h0l0,.08v.06A3.2,3.2,0,0,0,174,10h-4.18a1.21,1.21,0,0,1-.43-.06.52.52,0,0,1-.23-.07,1.48,1.48,0,0,1-.56-.35L163,4.12H154.6L151.65,1.3a1.73,1.73,0,0,0-1.22-.48H167.6A1.68,1.68,0,0,1,169.32,2.47Z" fill="#f15f35"/><path d="M135,15.5a1.66,1.66,0,0,1,1.52,1.63,1.69,1.69,0,0,1-1.73,1.65H118.3v-.14a1,1,0,0,0,.6-.12,1.93,1.93,0,0,0,.36-.22l2.94-2.82h12.57A.75.75,0,0,1,135,15.5Z" fill="#df1832"/><path d="M103.66,2.21a1.65,1.65,0,0,1-1.48,1.88l2.76,2.64h3l-.18.18a2,2,0,0,0,0,2.95L108,10h-3.74a1.21,1.21,0,0,1-.43-.06.62.62,0,0,1-.23-.07,1.48,1.48,0,0,1-.56-.35h0L97.31,4.12H89.68l-3-2.82A1.71,1.71,0,0,0,85.51.82h16.36A1.76,1.76,0,0,1,103.66,2.21Z" fill="#00799b"/><path d="M78.34,9.56a2.18,2.18,0,0,0-1.86,1.29,2,2,0,0,0,.26,2H72.11L69.35,15.5h0l-2.92,2.8a1.83,1.83,0,0,1-1.22.47A1.78,1.78,0,0,1,64,18.3a1.63,1.63,0,0,1-.51-1.17A1.59,1.59,0,0,1,64,16l.36-.34.14-.14,5.85-5.59-.07.09a1.78,1.78,0,0,1,1.13-.42Z" fill="#f15f35"/><path d="M29.8.83h6.49A1.68,1.68,0,0,1,38,2.48a1.68,1.68,0,0,1-1.51,1.63.78.78,0,0,1-.22,0H34l1.76,1.68H40.5c-.07.13,0,.26,0,.39v.16a3.69,3.69,0,0,0,0,1.1,3.75,3.75,0,0,0,0,1.11v.14c0,.13-.07.27,0,.4H35A1.1,1.1,0,0,1,34.57,9,.86.86,0,0,1,34.34,9a1.54,1.54,0,0,1-.55-.36l-4.7-4.49H24L21.07,1.31A1.77,1.77,0,0,0,19.85.83Z" fill="#007455"/><path d="M19.13,4.13l-.5-.49a1.55,1.55,0,0,1-.51-1.16,1.57,1.57,0,0,1,.51-1.17A1.7,1.7,0,0,1,19.85.83" fill="#448a31"/><path d="M25.79,10v5a1.73,1.73,0,0,0,3.45,0V13.31Z" fill="#007455"/><path d="M31,1.31A1.73,1.73,0,0,0,29.8.83a1.7,1.7,0,0,0-1.22.48,1.61,1.61,0,0,0-.51,1.17,1.59,1.59,0,0,0,.51,1.16l.51.49h4.64a.68.68,0,0,0,.21,0Z" fill="#369672"/><path d="M133,1a.88.88,0,0,1,.23-.07A.68.68,0,0,0,133,1Z" fill="#448a31"/><path d="M67.36,1a.88.88,0,0,1,.23-.07A.68.68,0,0,0,67.36,1Z" fill="#448a31"/><path d="M164.89,1.3a1.73,1.73,0,0,0-1.22-.48,1.7,1.7,0,0,0-1.22.48,1.59,1.59,0,0,0,0,2.33l.51.49h4.64a.47.47,0,0,0,.21,0Z" fill="#f47a42"/><path d="M133,1a1.36,1.36,0,0,0-.55.35A1.48,1.48,0,0,1,133,1Z" fill="#448a31"/><path d="M99.25,1.3A1.72,1.72,0,0,0,98,.82a1.75,1.75,0,0,0-1.22.48,1.63,1.63,0,0,0,0,2.33l.51.49H102a.53.53,0,0,0,.22,0Z" fill="#008db1"/><path d="M67.36,1a1.36,1.36,0,0,0-.55.35A1.57,1.57,0,0,1,67.36,1Z" fill="#448a31"/><path d="M104.94,6.73h-.72a1.69,1.69,0,0,0-1.72,1.65,1.6,1.6,0,0,0,.5,1.17,1.48,1.48,0,0,0,.56.35.62.62,0,0,0,.23.07,1.21,1.21,0,0,0,.43.06,1.7,1.7,0,0,0,1.22-.48,1.6,1.6,0,0,0,0-2.33Z" fill="#008db1"/><path d="M170.58,6.73h-.72a1.69,1.69,0,0,0-1.72,1.65,1.6,1.6,0,0,0,.5,1.17,1.48,1.48,0,0,0,.56.35.52.52,0,0,0,.23.07,1.21,1.21,0,0,0,.43.06,1.73,1.73,0,0,0,1.22-.48,1.6,1.6,0,0,0,0-2.33Z" fill="#f47a42"/><path d="M174.74,6.73h-1.18a2.56,2.56,0,0,0-.16.4l0,.06,0,.09h0a4.26,4.26,0,0,0-.17,1.1,4.48,4.48,0,0,0,.17,1.12h0l0,.08,0,.06a2.14,2.14,0,0,0,.16.39h1.18a1.69,1.69,0,0,0,1.73-1.65A1.7,1.7,0,0,0,174.74,6.73Z" fill="#f3775f"/><path d="M83.6,10.17l3,2.86a2,2,0,0,1,.47,2.26,2.17,2.17,0,0,1-2,1.3h-4A2.22,2.22,0,0,1,79.51,16l-3-2.84a2.61,2.61,0,0,1-.22-.27,2,2,0,0,1-.25-2A2.15,2.15,0,0,1,77.9,9.56h4.16A2.23,2.23,0,0,1,83.6,10.17Z" fill="#007455"/><path d="M202.68,9.56a1.77,1.77,0,0,0-1.22.49,1.6,1.6,0,0,0-.51,1.16,1.69,1.69,0,0,0,1.73,1.65h.71l.51-.48a1.59,1.59,0,0,0,0-2.33A1.77,1.77,0,0,0,202.68,9.56Z" fill="#369672"/><path d="M169.2,9.9a1.48,1.48,0,0,1-.56-.35A1.29,1.29,0,0,0,169.2,9.9Z" fill="#448a31"/><path d="M103.56,9.9a1.48,1.48,0,0,1-.56-.35A1.29,1.29,0,0,0,103.56,9.9Z" fill="#448a31"/><path d="M169.43,10a.52.52,0,0,1-.23-.07A.48.48,0,0,0,169.43,10Z" fill="#448a31"/><path d="M103.79,10a.62.62,0,0,1-.23-.07A.48.48,0,0,0,103.79,10Z" fill="#448a31"/><path d="M141.54,9.73a2.07,2.07,0,0,0-.63,1.48,2.1,2.1,0,0,0,.63,1.48l.19.17h-4L134.52,16a.75.75,0,0,0-.21,0h-4.65l6.16-5.88A1.79,1.79,0,0,1,137,9.56h4.68Z" fill="#f15f35"/><path d="M157.09,10v5a1.73,1.73,0,0,0,3.45,0V13.27Z" fill="#007455"/><path d="M91.45,10.47V15a1.73,1.73,0,0,0,3.45,0V13.79Z" fill="#007455"/><path d="M64.49,15.48h-8L53.49,18.3c-.11.11-.51,0-.59.06s-.17.22-.3.41H65.21A1.78,1.78,0,0,1,64,18.3a1.63,1.63,0,0,1-.51-1.17A1.59,1.59,0,0,1,64,16Z" fill="#df1832"/><path d="M134.78,15.48h-4.65l-.5.48a1.59,1.59,0,0,0-.51,1.17,1.63,1.63,0,0,0,.51,1.17,1.82,1.82,0,0,0,2.44,0L135,15.5A.75.75,0,0,0,134.78,15.48Z" fill="#f3775f"/><path d="M69.35,15.5l-2.92,2.8a1.83,1.83,0,0,1-1.22.47h3.93a1.69,1.69,0,0,0,1.73-1.65A1.66,1.66,0,0,0,69.35,15.5Z" fill="#df1832"/><path d="M165.83,18.65a.68.68,0,0,1-.21-.1A.68.68,0,0,0,165.83,18.65Z" fill="#448a31"/><path d="M100.2,18.65a.74.74,0,0,1-.22-.1A.55.55,0,0,0,100.2,18.65Z" fill="#448a31"/><path d="M234.3,2.48a1.68,1.68,0,0,1-1.51,1.63.78.78,0,0,1-.22,0H220.29l-2.94-2.82a1.77,1.77,0,0,0-1.22-.48h16.44A1.69,1.69,0,0,1,234.3,2.48Z" fill="#007455"/><path d="M155.31,4.12l4.87,4.65,7,6.71h16.06l6.66-6.37V4.58a1.73,1.73,0,0,1,3.46,0V5.81l4.71-4.51a1.77,1.77,0,0,1,1.37-.47h17.33a1.73,1.73,0,0,1,1.22.48L221,4.13l4.87,4.65-.15.14a1.79,1.79,0,0,0-1.22-.48,1.69,1.69,0,0,0-1.73,1.65v.4l-6.65-6.36H200l-7,6.69-4.88,4.66h12.29a.75.75,0,0,1,.21,0,1.66,1.66,0,0,1,1.52,1.63,1.69,1.69,0,0,1-1.73,1.65H166.48a1.57,1.57,0,0,1-.65-.13.68.68,0,0,1-.21-.1,1.91,1.91,0,0,1-.36-.25l-4.72-4.51-3.45-3.32-6.66-6.35H134.38l-7,6.7-4.87,4.66-2.95,2.82a1.78,1.78,0,0,1-1.22.47H100.84a1.5,1.5,0,0,1-.64-.13.74.74,0,0,1-.22-.1,1.64,1.64,0,0,1-.36-.25L94.9,13.79l-3.45-3.32L84.8,4.12H68.74l-7,6.7-4.87,4.66-3,2.82a1.79,1.79,0,0,1-1.22.47H35.18a1.27,1.27,0,0,1-.34,0,1.66,1.66,0,0,1-.9-.44l-.3-.29-.1-.13-4.3-4.08-3.45-3.31L19.13,4.13l-.5-.49a1.55,1.55,0,0,1-.51-1.16,1.57,1.57,0,0,1,.51-1.17A1.7,1.7,0,0,1,19.85.83a1.77,1.77,0,0,1,1.22.48L24,4.13l4.87,4.65,7,6.7H52l6.65-6.36V4.58a1.73,1.73,0,0,1,3.46,0V5.82L66.81,1.3A1.57,1.57,0,0,1,67.36,1a.88.88,0,0,1,.23-.07A1.61,1.61,0,0,1,68,.82H85.51a1.71,1.71,0,0,1,1.22.48l3,2.82,4.86,4.65,7,6.71h16.06l6.65-6.36V4.58a1.73,1.73,0,0,1,3.45,0V5.82l4.74-4.52A1.48,1.48,0,0,1,133,1a.88.88,0,0,1,.23-.07,1.3,1.3,0,0,1,.44-.06h17.48a1.75,1.75,0,0,1,1.22.48Z" fill="#448a31"/><path d="M78,9.56H77.9a2.15,2.15,0,0,0-1.85,1.29,2,2,0,0,0,.25,2H78a1.65,1.65,0,1,0,0-3.3Z" fill="#369672"/><path d="M71.4,9.56a1.77,1.77,0,0,0-1.22.49,1.6,1.6,0,0,0-.51,1.16,1.69,1.69,0,0,0,1.73,1.65h.71l.51-.48a1.59,1.59,0,0,0,0-2.33A1.79,1.79,0,0,0,71.4,9.56Z" fill="#f47a42"/><path d="M115.56,5a2,2,0,0,1-.18,1.93,2,2,0,0,1,0,2.93,2,2,0,0,1,.18,1.93,1.77,1.77,0,0,1-.47.67,2.23,2.23,0,0,1-1.54.62h-2a2.24,2.24,0,0,1-1.56-.62l-2.07-2-.17-.16-.29-.28-.18-.17a2,2,0,0,1,0-2.95l.18-.18.26-.25.19-.19,2.08-2a2.28,2.28,0,0,1,1.56-.61h2A2.16,2.16,0,0,1,115.56,5Z" fill="#ba5080"/><path d="M21.07,1.31A1.77,1.77,0,0,0,19.85.83a1.7,1.7,0,0,0-1.22.48,1.57,1.57,0,0,0-.51,1.17,1.55,1.55,0,0,0,.51,1.16l.5.49H24Z" fill="#369672"/><path d="M28.73,8.92a1.77,1.77,0,0,0-1.22-.48,1.69,1.69,0,0,0-1.72,1.65v.4l3.45,3.31V10.09A1.62,1.62,0,0,0,28.73,8.92Z" fill="#369672"/><path d="M35.87,15.48h-.78a1.69,1.69,0,0,0-1.73,1.65,1.42,1.42,0,0,0,.28.88l.3.29a1.81,1.81,0,0,0,2.44,0,1.61,1.61,0,0,0,0-2.34Z" fill="#47a848"/><path d="M68,.82a1.61,1.61,0,0,0-.44.06.88.88,0,0,0-.23.07,1.57,1.57,0,0,0-.55.35,1.61,1.61,0,0,0-.51,1.17A1.69,1.69,0,0,0,68,4.12h.71l.51-.49a1.62,1.62,0,0,0,0-2.33A1.77,1.77,0,0,0,68,.82Z" fill="#47a848"/><path d="M86.73,1.3a1.79,1.79,0,0,0-2.44,0,1.59,1.59,0,0,0,0,2.33l.51.49h4.88Z" fill="#47a848"/><path d="M62.08,5.82l-3.46,3.3v.39a1.7,1.7,0,0,0,1.73,1.65,1.77,1.77,0,0,0,1.22-.49,1.59,1.59,0,0,0,.51-1.16Z" fill="#47a848"/><path d="M101.55,15.48h-.71a1.69,1.69,0,0,0-1.73,1.65,1.59,1.59,0,0,0,.87,1.42.74.74,0,0,0,.22.1,1.79,1.79,0,0,0,1.86-.35,1.6,1.6,0,0,0,0-2.34Z" fill="#47a848"/><path d="M56.85,15.48H52l-.51.48a1.62,1.62,0,0,0-.5,1.17,1.66,1.66,0,0,0,.5,1.17,1.81,1.81,0,0,0,1.22.47,1.79,1.79,0,0,0,1.22-.47Z" fill="#47a848"/><path d="M69.14,15.48H64.49L64,16a1.59,1.59,0,0,0-.51,1.17A1.63,1.63,0,0,0,64,18.3a1.78,1.78,0,0,0,1.22.47,1.83,1.83,0,0,0,1.22-.47l2.92-2.8A.75.75,0,0,0,69.14,15.48Z" fill="#f3775f"/><path d="M78,9.56H77.9a2.15,2.15,0,0,0-1.85,1.29,2,2,0,0,0,.25,2H78a1.65,1.65,0,1,0,0-3.3Z" fill="#369672"/><path d="M94.39,8.91a1.79,1.79,0,0,0-1.22-.48,1.69,1.69,0,0,0-1.72,1.65v.39l3.45,3.32V10.08A1.59,1.59,0,0,0,94.39,8.91Z" fill="#369672"/><path d="M108.38,6.73h-.91l-.18.18a2,2,0,0,0,0,2.95l.18.17h.91a1.69,1.69,0,0,0,1.73-1.65A1.7,1.7,0,0,0,108.38,6.73Z" fill="#7c78a1"/><path d="M133.67.82a1.3,1.3,0,0,0-.44.06A.88.88,0,0,0,133,1a1.48,1.48,0,0,0-.55.35,1.57,1.57,0,0,0-.51,1.17,1.69,1.69,0,0,0,1.73,1.65h.71l.51-.49a1.62,1.62,0,0,0,0-2.33A1.75,1.75,0,0,0,133.67.82Z" fill="#47a848"/><path d="M152.37,1.3a1.75,1.75,0,0,0-1.22-.48,1.7,1.7,0,0,0-1.22.48,1.59,1.59,0,0,0,0,2.33l.5.49h4.88Z" fill="#47a848"/><path d="M127.71,5.82l-3.45,3.3v.39A1.7,1.7,0,0,0,126,11.16a1.75,1.75,0,0,0,1.22-.49,1.58,1.58,0,0,0,.5-1.16Z" fill="#47a848"/><path d="M122.49,15.48h-4.88l-.51.48a1.62,1.62,0,0,0-.5,1.17,1.66,1.66,0,0,0,.5,1.17,1.85,1.85,0,0,0,1.22.47,1.78,1.78,0,0,0,1.22-.47Z" fill="#47a848"/><path d="M148.27,7l1.41,1.34a2.07,2.07,0,0,1,.64,1.48,2,2,0,0,1-.52,1.35,2,2,0,0,1,.52,1.34,2.05,2.05,0,0,1-.64,1.48l-1.41,1.35a2.25,2.25,0,0,1-1.54.61h-1.42a2.27,2.27,0,0,1-1.54-.61l-2.17-2.09-.47-.43-.18-.17a2.1,2.1,0,0,1-.63-1.48A2.07,2.07,0,0,1,141,9.73l.17-.17.48-.44L143.77,7a2.27,2.27,0,0,1,1.54-.61h1.42A2.25,2.25,0,0,1,148.27,7Z" fill="#00799b"/><path d="M137,9.56a1.79,1.79,0,0,0-1.22.49,1.6,1.6,0,0,0-.51,1.16A1.69,1.69,0,0,0,137,12.86h.71l.51-.48a1.59,1.59,0,0,0,0-2.33A1.77,1.77,0,0,0,137,9.56Z" fill="#f47a42"/><path d="M141.72,9.56h-.6l-.17.17a2.07,2.07,0,0,0-.63,1.48,2.1,2.1,0,0,0,.63,1.48l.18.17h.59a1.65,1.65,0,1,0,0-3.3Z" fill="#008db1"/><path d="M193.37,5.81l-3.46,3.3v.4a1.69,1.69,0,0,0,1.73,1.65,1.79,1.79,0,0,0,1.22-.49,1.59,1.59,0,0,0,.51-1.16Z" fill="#47a848"/><path d="M160,8.91a1.77,1.77,0,0,0-1.22-.48,1.69,1.69,0,0,0-1.72,1.65v.39l3.45,3.32V10.08A1.62,1.62,0,0,0,160,8.91Z" fill="#369672"/><path d="M167.19,15.48h-.71a1.7,1.7,0,0,0-1.73,1.65,1.64,1.64,0,0,0,.51,1.17,1.91,1.91,0,0,0,.36.25.68.68,0,0,0,.21.1,1.81,1.81,0,0,0,1.87-.35,1.6,1.6,0,0,0,0-2.34Z" fill="#47a848"/><path d="M188.13,15.48h-4.88l-.51.48a1.62,1.62,0,0,0-.5,1.17,1.66,1.66,0,0,0,.5,1.17,1.81,1.81,0,0,0,1.22.47,1.78,1.78,0,0,0,1.22-.47Z" fill="#47a848"/><path d="M200.42,15.48h-4.65l-.51.48a1.62,1.62,0,0,0-.5,1.17,1.66,1.66,0,0,0,.5,1.17,1.83,1.83,0,0,0,1.22.47,1.78,1.78,0,0,0,1.22-.47l2.93-2.8A.75.75,0,0,0,200.42,15.48Z" fill="#369672"/><path d="M199.3.83a1.3,1.3,0,0,0-.44.06l-.23.07a1.67,1.67,0,0,0-.55.35,1.62,1.62,0,0,0-.51,1.17,1.7,1.7,0,0,0,1.73,1.65H200l.51-.49a1.6,1.6,0,0,0,0-2.33A1.71,1.71,0,0,0,199.3.83Z" fill="#47a848"/><path d="M218,1.31a1.79,1.79,0,0,0-2.44,0,1.6,1.6,0,0,0-.5,1.17,1.56,1.56,0,0,0,.5,1.16l.51.49H221Z" fill="#369672"/><polygon points="44.08 11.59 48.35 7.51 44.08 3.43 39.82 7.51 44.08 11.59" fill="#ce738e"/><path d="M47.33,14.69a1.66,1.66,0,0,1-2.29,0L38.67,8.61a1.51,1.51,0,0,1,0-2.19L45,.33a1.66,1.66,0,0,1,2.29,0,1.51,1.51,0,0,1,0,2.19l-5.22,5,5.22,5A1.51,1.51,0,0,1,47.33,14.69Z" fill="#ba5080"/><path d="M51.26,10.94a1.67,1.67,0,0,1-2.3,0L42.6,4.86a1.5,1.5,0,0,1,0-2.2,1.68,1.68,0,0,1,2.29,0l6.37,6.09A1.51,1.51,0,0,1,51.26,10.94Z" fill="#ba5080"/><path d="M51.21,6.23l-6.37,6.08a1.66,1.66,0,0,1-2.29,0,1.49,1.49,0,0,1,0-2.19L48.92,4a1.68,1.68,0,0,1,2.29,0A1.52,1.52,0,0,1,51.21,6.23Z" fill="#ba5080"/><path d="M212.41,14.2a3,3,0,0,1-3.08-2.93,3.08,3.08,0,0,1,6.15,0,3,3,0,0,1-3.07,2.94Z" fill="#f2a06c"/><path d="M215.49,11.6h0m-.8,1.68h0m-.63-1.5a3.22,3.22,0,0,0-.35.38,3.68,3.68,0,0,0-.28.45,2.59,2.59,0,0,0-.52.12,2.48,2.48,0,0,0-.5.2,2.48,2.48,0,0,0-.5-.2,3.52,3.52,0,0,0-.52-.12,2.78,2.78,0,0,0-.29-.44,3.33,3.33,0,0,0-.35-.39,2.76,2.76,0,0,0,.05-.51,2.87,2.87,0,0,0-.05-.52,2.68,2.68,0,0,0,.35-.39,3,3,0,0,0,.28-.44,2.59,2.59,0,0,0,.52-.12,2.48,2.48,0,0,0,.5-.2,3.26,3.26,0,0,0,.5.2,3.84,3.84,0,0,0,.52.12,3.32,3.32,0,0,0,.29.44,4.4,4.4,0,0,0,.35.39,2.76,2.76,0,0,0-.05.51,3,3,0,0,0,.05.52Zm3.09-1.86a.51.51,0,0,0,0-.13c-.16-.44-1-.53-1.32-.9s-.1-1.2-.49-1.47-1.16.16-1.62,0-.81-.91-1.31-.91-.85.78-1.29.92-1.24-.28-1.62,0-.2,1.1-.49,1.48-1.16.45-1.31.9a.27.27,0,0,0,0,.13c0,.41.54.91.54,1.33s-.54.93-.54,1.34a.31.31,0,0,0,0,.13c.15.44,1,.53,1.31.9s.11,1.2.49,1.47,1.16-.16,1.62,0,.81.92,1.31.92.85-.78,1.3-.92,1.23.28,1.61,0,.2-1.11.49-1.48,1.16-.46,1.31-.9a.27.27,0,0,0,0-.13c0-.41-.53-.91-.54-1.33s.54-.93.54-1.34Z" fill="#df1832"/><path d="M40.19,5.82h-.91L39.1,6C37.89,7,37.89,8.05,39,9l.17.13h1a1.69,1.69,0,0,0,1.72-1.65A1.68,1.68,0,0,0,40.19,5.82Z" fill="#7c78a1"/><path d="M213.43,12.61a3.68,3.68,0,0,1,.28-.45,3.22,3.22,0,0,1,.35-.38,3,3,0,0,1-.05-.52,2.76,2.76,0,0,1,.05-.51,4.4,4.4,0,0,1-.35-.39,3.32,3.32,0,0,1-.29-.44,3.84,3.84,0,0,1-.52-.12,3.26,3.26,0,0,1-.5-.2,2.48,2.48,0,0,1-.5.2,2.59,2.59,0,0,1-.52.12,3,3,0,0,1-.28.44,2.68,2.68,0,0,1-.35.39,2.87,2.87,0,0,1,.05.52,2.76,2.76,0,0,1-.05.51,3.33,3.33,0,0,1,.35.39,2.78,2.78,0,0,1,.29.44,3.52,3.52,0,0,1,.52.12,2.48,2.48,0,0,1,.5.2,2.48,2.48,0,0,1,.5-.2A2.59,2.59,0,0,1,213.43,12.61Z" fill="none"/><path d="M213.72,15.09c.46-.15,1.23.28,1.61,0s.2-1.11.49-1.48,1.16-.46,1.31-.9a.27.27,0,0,0,0-.13c0-.41-.53-.91-.54-1.33s.54-.93.54-1.34a.51.51,0,0,0,0-.13c-.16-.44-1-.53-1.32-.9s-.1-1.2-.49-1.47-1.16.16-1.62,0-.81-.91-1.31-.91-.85.78-1.29.92-1.24-.28-1.62,0-.2,1.1-.49,1.48-.8.4-1.12.65h.37a1.77,1.77,0,0,1,1.22.49,1.62,1.62,0,0,1,.51,1.16,1.67,1.67,0,0,1-.51,1.17,1.74,1.74,0,0,1-1.22.48h-.48c.25.34,1,.44,1.24.78s.11,1.2.49,1.47,1.16-.16,1.62,0,.81.92,1.31.92S213.27,15.23,213.72,15.09Zm-1.81-2.36a3.52,3.52,0,0,0-.52-.12,2.78,2.78,0,0,0-.29-.44,3.33,3.33,0,0,0-.35-.39,2.76,2.76,0,0,0,.05-.51,2.87,2.87,0,0,0-.05-.52,2.68,2.68,0,0,0,.35-.39,3,3,0,0,0,.28-.44,2.59,2.59,0,0,0,.52-.12,2.48,2.48,0,0,0,.5-.2,3.26,3.26,0,0,0,.5.2,3.84,3.84,0,0,0,.52.12,3.32,3.32,0,0,0,.29.44,4.4,4.4,0,0,0,.35.39,2.76,2.76,0,0,0-.05.51,3,3,0,0,0,.05.52,3.22,3.22,0,0,0-.35.38,3.68,3.68,0,0,0-.28.45,2.59,2.59,0,0,0-.52.12,2.48,2.48,0,0,0-.5.2A2.48,2.48,0,0,0,211.91,12.73Z" fill="none"/><path d="M209.22,12.38a1.6,1.6,0,0,0,0-2.33A1.76,1.76,0,0,0,208,9.56h-.14a.58.58,0,0,0-.19.25.27.27,0,0,0,0,.13c0,.41.54.91.54,1.33s-.54.93-.54,1.34a.31.31,0,0,0,0,.13.37.37,0,0,0,.07.12H208A1.78,1.78,0,0,0,209.22,12.38Z" fill="#dd4943"/></g></svg>